{"glyphs":{"0":{"ha":833,"x_min":0,"x_max":0,"o":"m 417 -17 b 83 485 185 -17 83 168 b 417 986 83 801 185 986 b 750 485 649 986 750 801 b 417 -17 750 168 649 -17 m 417 85 b 628 406 568 85 628 218 l 628 564 b 417 885 628 751 568 885 b 206 564 265 885 206 751 l 206 406 b 417 85 206 218 265 85 "},"1":{"ha":833,"x_min":0,"x_max":0,"o":"m 122 0 l 122 103 l 393 103 l 393 883 l 383 883 l 139 656 l 71 729 l 328 969 l 510 969 l 510 103 l 760 103 l 760 0 "},"2":{"ha":833,"x_min":0,"x_max":0,"o":"m 740 0 l 104 0 l 104 119 l 421 411 b 581 685 511 494 581 592 l 581 701 b 401 882 581 808 521 882 b 200 718 282 882 226 810 l 96 758 b 407 986 133 872 219 986 b 704 704 596 986 704 869 b 492 338 704 554 615 449 l 231 103 l 740 103 "},"3":{"ha":833,"x_min":0,"x_max":0,"o":"m 363 558 b 560 719 493 558 560 626 l 560 729 b 386 882 560 831 489 882 b 186 761 286 882 226 835 l 100 828 b 389 986 149 906 233 986 b 683 742 553 986 683 899 b 497 515 683 617 600 542 l 497 510 b 701 265 601 489 701 411 b 372 -17 701 99 569 -17 b 58 149 204 -17 118 65 l 146 215 b 371 88 196 139 253 88 b 579 267 507 88 579 153 l 579 278 b 371 457 579 392 507 457 l 257 457 l 257 558 "},"4":{"ha":833,"x_min":0,"x_max":0,"o":"m 521 0 l 521 190 l 53 190 l 53 293 l 458 969 l 632 969 l 632 288 l 772 288 l 772 190 l 632 190 l 632 0 m 163 288 l 521 288 l 521 879 l 514 879 "},"5":{"ha":833,"x_min":0,"x_max":0,"o":"m 692 867 l 267 867 l 239 497 l 249 497 b 447 604 294 563 346 604 b 736 304 614 604 736 492 b 410 -17 736 115 614 -17 b 107 149 249 -17 165 65 l 194 215 b 410 88 244 139 293 88 b 613 289 542 88 613 161 l 613 303 b 410 504 613 431 542 504 b 236 422 321 504 276 467 l 138 436 l 172 969 l 692 969 "},"6":{"ha":833,"x_min":0,"x_max":0,"o":"m 418 -17 b 93 356 217 -17 93 125 b 439 969 93 643 283 868 l 589 969 b 214 467 382 818 267 692 l 221 464 b 454 603 267 543 336 603 b 740 304 621 603 740 488 b 418 -17 740 114 613 -17 m 417 85 b 619 289 544 85 619 158 l 619 300 b 417 504 619 431 544 504 b 214 300 289 504 214 431 l 214 289 b 417 85 214 158 289 85 "},"7":{"ha":833,"x_min":0,"x_max":0,"o":"m 243 0 l 614 869 l 200 869 l 200 689 l 96 689 l 96 969 l 732 969 l 732 867 l 368 0 "},"8":{"ha":833,"x_min":0,"x_max":0,"o":"m 417 -17 b 81 264 196 -17 81 104 b 276 504 81 396 160 472 l 276 515 b 110 743 175 550 110 632 b 417 986 110 890 224 986 b 724 743 610 986 724 890 b 557 515 724 632 658 550 l 557 504 b 753 264 674 472 753 396 b 417 -17 753 104 638 -17 m 417 85 b 629 258 551 85 629 149 l 629 288 b 417 461 629 397 551 461 b 204 288 282 461 204 397 l 204 258 b 417 85 204 149 282 85 m 417 558 b 603 711 538 558 603 613 l 603 732 b 417 885 603 831 538 885 b 231 732 296 885 231 831 l 231 711 b 417 558 231 613 296 558 "},"9":{"ha":833,"x_min":0,"x_max":0,"o":"m 740 614 b 394 0 740 326 550 101 l 244 0 b 619 503 451 151 567 278 l 613 506 b 379 367 567 426 497 367 b 93 665 213 367 93 482 b 415 986 93 856 221 986 b 740 614 617 986 740 844 m 417 465 b 619 669 544 465 619 539 l 619 681 b 417 885 619 811 544 885 b 214 681 289 885 214 811 l 214 669 b 417 465 214 539 289 465 "},"a":{"ha":742,"x_min":0,"x_max":0,"o":"m 639 0 b 515 117 557 0 524 50 l 508 117 b 301 -17 478 29 401 -17 b 61 200 150 -17 61 67 b 367 410 61 335 158 410 l 508 410 l 508 481 b 339 638 508 582 453 638 b 157 531 253 638 196 596 l 90 593 b 344 733 129 669 215 733 b 619 492 517 733 619 643 l 619 97 l 701 97 l 701 0 m 319 78 b 508 208 429 78 508 135 l 508 326 l 361 326 b 178 218 235 326 178 288 l 178 189 b 319 78 178 118 233 78 "},"b":{"ha":806,"x_min":0,"x_max":0,"o":"m 118 1028 l 229 1028 l 229 600 l 235 600 b 444 733 272 690 346 733 b 736 358 624 733 736 588 b 444 -17 736 129 624 -17 b 235 117 346 -17 278 28 l 229 117 l 229 0 l 118 0 m 414 83 b 617 297 539 83 617 169 l 617 419 b 414 633 617 547 539 633 b 229 496 313 633 229 575 l 229 229 b 414 83 229 136 313 83 "},"c":{"ha":699,"x_min":0,"x_max":0,"o":"m 385 -17 b 65 358 183 -17 65 129 b 385 733 65 588 183 733 b 653 565 526 733 611 664 l 560 518 b 385 635 533 592 472 635 b 185 419 253 635 185 544 l 185 297 b 385 82 185 172 253 82 b 579 207 475 82 540 125 l 660 153 b 385 -17 614 50 521 -17 "},"d":{"ha":806,"x_min":0,"x_max":0,"o":"m 576 117 l 571 117 b 361 -17 528 28 460 -17 b 69 358 182 -17 69 129 b 361 733 69 588 182 733 b 571 600 460 733 533 690 l 576 600 l 576 1028 l 688 1028 l 688 0 l 576 0 m 392 83 b 576 229 493 83 576 136 l 576 496 b 392 633 576 575 493 633 b 189 419 267 633 189 547 l 189 297 b 392 83 189 169 267 83 "},"e":{"ha":763,"x_min":0,"x_max":0,"o":"m 388 -17 b 65 358 193 -17 65 131 b 388 733 65 586 193 733 b 697 383 579 733 697 586 l 697 331 l 182 331 l 182 297 b 394 81 182 174 261 81 b 592 204 485 81 554 125 l 671 147 b 388 -17 625 50 522 -17 m 388 640 b 182 424 267 640 182 549 l 182 414 l 578 414 l 578 429 b 388 640 578 556 501 640 "},"f":{"ha":450,"x_min":0,"x_max":0,"o":"m 157 619 l 40 619 l 40 717 l 157 717 l 157 861 b 314 1028 157 960 208 1028 l 422 1028 l 422 931 l 268 931 l 268 717 l 422 717 l 422 619 l 268 619 l 268 0 l 157 0 "},"g":{"ha":733,"x_min":0,"x_max":0,"o":"m 722 -79 b 375 -294 722 -226 606 -294 b 60 -118 151 -294 60 -231 b 174 21 60 -40 103 1 l 174 36 b 110 136 133 56 110 88 b 233 261 110 208 161 243 l 233 267 b 99 486 149 307 99 386 b 368 733 99 632 206 733 b 504 706 419 733 465 724 l 504 718 b 588 814 504 774 528 814 l 694 814 l 694 717 l 558 717 l 558 671 b 640 486 610 626 640 563 b 369 239 640 340 533 239 b 300 246 346 239 321 242 b 206 165 253 233 206 210 b 315 111 206 122 250 111 l 468 111 b 722 -79 646 111 722 39 m 618 -87 b 469 7 618 -31 581 7 l 231 7 b 164 -90 185 -14 164 -46 b 319 -204 164 -153 207 -204 l 422 -204 b 618 -87 546 -204 618 -165 m 369 328 b 524 467 464 328 524 372 l 524 506 b 369 644 524 600 464 644 b 215 506 275 644 215 600 l 215 467 b 369 328 215 372 275 328 "},"h":{"ha":789,"x_min":0,"x_max":0,"o":"m 118 1028 l 229 1028 l 229 600 l 235 600 b 438 733 269 681 331 733 b 678 460 585 733 678 633 l 678 0 l 567 0 l 567 440 b 404 633 567 568 511 633 b 229 497 315 633 229 589 l 229 0 l 118 0 "},"i":{"ha":347,"x_min":0,"x_max":0,"o":"m 174 885 b 106 947 126 885 106 910 l 106 965 b 174 1028 106 1003 126 1028 b 242 965 221 1028 242 1003 l 242 947 b 174 885 242 910 221 885 m 118 717 l 229 717 l 229 0 l 118 0 "},"j":{"ha":347,"x_min":0,"x_max":0,"o":"m 118 717 l 229 717 l 229 -111 b 74 -278 229 -210 181 -278 l 1 -278 l 1 -181 l 118 -181 m 174 885 b 106 947 126 885 106 910 l 106 965 b 174 1028 106 1003 126 1028 b 242 965 221 1028 242 1003 l 242 947 b 174 885 242 910 221 885 "},"k":{"ha":732,"x_min":0,"x_max":0,"o":"m 118 1028 l 229 1028 l 229 376 l 235 376 l 344 499 l 547 717 l 682 717 l 417 433 l 708 0 l 574 0 l 336 365 l 229 256 l 229 0 l 118 0 "},"l":{"ha":378,"x_min":0,"x_max":0,"o":"m 236 0 b 118 115 160 0 118 49 l 118 1028 l 229 1028 l 229 97 l 335 97 l 335 0 "},"m":{"ha":1213,"x_min":0,"x_max":0,"o":"m 118 0 l 118 717 l 229 717 l 229 600 l 235 600 b 428 733 267 674 317 733 b 647 588 522 733 608 690 l 650 588 b 868 733 676 665 746 733 b 1101 460 1014 733 1101 633 l 1101 0 l 990 0 l 990 440 b 833 633 990 567 942 633 b 665 497 746 633 665 589 l 665 0 l 554 0 l 554 440 b 400 633 554 568 506 633 b 229 497 313 633 229 589 l 229 0 "},"n":{"ha":789,"x_min":0,"x_max":0,"o":"m 118 0 l 118 717 l 229 717 l 229 600 l 235 600 b 438 733 269 681 331 733 b 678 460 585 733 678 633 l 678 0 l 567 0 l 567 440 b 404 633 567 568 511 633 b 229 497 315 633 229 589 l 229 0 "},"o":{"ha":778,"x_min":0,"x_max":0,"o":"m 389 -17 b 65 358 197 -17 65 131 b 389 733 65 586 197 733 b 713 358 581 733 713 586 b 389 -17 713 131 581 -17 m 389 82 b 593 307 508 82 593 156 l 593 410 b 389 635 593 561 508 635 b 185 410 269 635 185 561 l 185 307 b 389 82 185 156 269 82 "},"p":{"ha":806,"x_min":0,"x_max":0,"o":"m 118 717 l 229 717 l 229 600 l 235 600 b 444 733 272 690 346 733 b 736 358 624 733 736 588 b 444 -17 736 129 624 -17 b 235 117 346 -17 278 28 l 229 117 l 229 -278 l 118 -278 m 414 83 b 617 297 539 83 617 169 l 617 419 b 414 633 617 547 539 633 b 229 496 313 633 229 575 l 229 229 b 414 83 229 136 313 83 "},"q":{"ha":806,"x_min":0,"x_max":0,"o":"m 576 117 l 571 117 b 361 -17 528 28 460 -17 b 69 358 182 -17 69 129 b 361 733 69 588 182 733 b 571 600 460 733 533 690 l 576 600 l 576 717 l 688 717 l 688 -278 l 576 -278 m 392 83 b 576 229 493 83 576 136 l 576 496 b 392 633 576 575 493 633 b 189 419 267 633 189 547 l 189 297 b 392 83 189 169 267 83 "},"r":{"ha":510,"x_min":0,"x_max":0,"o":"m 118 0 l 118 717 l 229 717 l 229 585 l 236 585 b 443 717 261 653 326 717 l 486 717 l 486 606 l 421 606 b 229 486 301 606 229 554 l 229 0 "},"s":{"ha":676,"x_min":0,"x_max":0,"o":"m 333 -17 b 50 124 201 -17 114 39 l 129 188 b 342 78 185 118 251 78 b 492 194 436 78 492 121 b 367 307 492 250 461 293 l 310 315 b 79 522 178 335 79 389 b 335 733 79 664 189 733 b 585 618 450 733 526 690 l 511 551 b 326 639 479 596 418 639 b 186 528 235 639 186 596 b 324 417 186 458 235 431 l 379 408 b 599 207 538 385 599 315 b 333 -17 599 68 497 -17 "},"t":{"ha":488,"x_min":0,"x_max":0,"o":"m 276 0 b 158 118 200 0 158 49 l 158 619 l 40 619 l 40 717 l 107 717 b 169 782 154 717 169 733 l 169 915 l 269 915 l 269 717 l 426 717 l 426 619 l 269 619 l 269 97 l 415 97 l 415 0 "},"u":{"ha":789,"x_min":0,"x_max":0,"o":"m 560 117 l 554 117 b 353 -17 526 49 472 -17 b 111 257 206 -17 111 83 l 111 717 l 222 717 l 222 276 b 386 83 222 149 279 83 b 560 221 474 83 560 126 l 560 717 l 671 717 l 671 0 l 560 0 "},"v":{"ha":683,"x_min":0,"x_max":0,"o":"m 276 0 l 25 717 l 136 717 l 261 361 l 339 117 l 346 117 l 424 361 l 551 717 l 658 717 l 406 0 "},"w":{"ha":1067,"x_min":0,"x_max":0,"o":"m 43 717 l 151 717 l 228 407 l 304 93 l 307 93 l 394 407 l 485 717 l 583 717 l 676 407 l 765 93 l 768 93 l 842 407 l 919 717 l 1024 717 l 833 0 l 696 0 l 596 344 l 533 563 l 531 563 l 469 344 l 369 0 l 235 0 "},"x":{"ha":704,"x_min":0,"x_max":0,"o":"m 294 361 l 40 717 l 171 717 l 353 450 l 357 450 l 546 717 l 669 717 l 417 369 l 675 0 l 544 0 l 358 281 l 354 281 l 153 0 l 29 0 "},"y":{"ha":693,"x_min":0,"x_max":0,"o":"m 560 717 l 669 717 l 349 -167 b 182 -278 317 -253 288 -278 l 125 -278 l 125 -181 l 238 -181 l 292 -28 l 24 717 l 135 717 l 307 229 l 340 113 l 347 113 l 386 229 "},"z":{"ha":644,"x_min":0,"x_max":0,"o":"m 46 0 l 46 93 l 453 619 l 58 619 l 58 717 l 588 717 l 588 633 l 172 97 l 599 97 l 599 0 "},"A":{"ha":890,"x_min":0,"x_max":0,"o":"m 736 0 l 639 286 l 247 286 l 150 0 l 32 0 l 371 969 l 519 969 l 858 0 m 446 861 l 439 861 l 275 389 l 610 389 "},"B":{"ha":907,"x_min":0,"x_max":0,"o":"m 129 969 l 528 969 b 786 719 688 969 786 871 b 629 514 786 575 693 524 l 629 506 b 819 281 699 501 819 442 b 569 0 819 121 713 0 l 129 0 m 246 103 l 533 103 b 694 253 633 103 694 156 l 694 300 b 533 450 694 397 633 450 l 246 450 m 246 550 l 514 550 b 661 685 606 550 661 599 l 661 732 b 514 867 661 818 606 867 l 246 867 "},"C":{"ha":863,"x_min":0,"x_max":0,"o":"m 471 -17 b 81 479 226 -17 81 156 b 471 986 81 803 226 986 b 804 774 632 986 743 908 l 710 717 b 471 882 671 817 590 882 b 206 551 304 882 206 750 l 206 407 b 471 88 206 208 304 88 b 718 263 594 88 679 157 l 811 204 b 471 -17 750 68 632 -17 "},"D":{"ha":932,"x_min":0,"x_max":0,"o":"m 129 969 l 454 969 b 851 485 696 969 851 808 b 454 0 851 161 696 0 l 129 0 m 454 103 b 726 406 614 103 726 214 l 726 564 b 454 867 726 756 614 867 l 246 867 l 246 103 "},"E":{"ha":810,"x_min":0,"x_max":0,"o":"m 129 0 l 129 969 l 721 969 l 721 867 l 246 867 l 246 542 l 693 542 l 693 439 l 246 439 l 246 103 l 721 103 l 721 0 "},"F":{"ha":776,"x_min":0,"x_max":0,"o":"m 129 0 l 129 969 l 707 969 l 707 867 l 246 867 l 246 542 l 667 542 l 667 439 l 246 439 l 246 0 "},"G":{"ha":965,"x_min":0,"x_max":0,"o":"m 757 142 l 753 142 b 483 -17 729 51 631 -17 b 81 485 246 -17 81 160 b 493 986 81 807 244 986 b 846 774 667 986 783 900 l 750 715 b 493 882 706 818 615 882 b 206 564 322 882 206 756 l 206 407 b 504 88 206 215 319 88 b 751 300 639 88 751 157 l 751 396 l 538 396 l 538 499 l 865 499 l 865 0 l 757 0 "},"H":{"ha":982,"x_min":0,"x_max":0,"o":"m 736 439 l 246 439 l 246 0 l 129 0 l 129 969 l 246 969 l 246 542 l 736 542 l 736 969 l 853 969 l 853 0 l 736 0 "},"I":{"ha":556,"x_min":0,"x_max":0,"o":"m 83 0 l 83 97 l 219 97 l 219 872 l 83 872 l 83 969 l 472 969 l 472 872 l 336 872 l 336 97 l 472 97 l 472 0 "},"J":{"ha":708,"x_min":0,"x_max":0,"o":"m 586 969 l 586 251 b 308 -17 586 88 472 -17 b 39 204 158 -17 65 72 l 144 229 b 311 88 163 146 213 88 b 469 272 411 88 469 149 l 469 867 l 136 867 l 136 969 "},"K":{"ha":881,"x_min":0,"x_max":0,"o":"m 383 476 l 246 324 l 246 0 l 129 0 l 129 969 l 246 969 l 246 454 l 250 454 l 389 622 l 682 969 l 825 969 l 464 554 l 850 0 l 706 0 "},"L":{"ha":696,"x_min":0,"x_max":0,"o":"m 129 0 l 129 969 l 246 969 l 246 103 l 658 103 l 658 0 "},"M":{"ha":1128,"x_min":0,"x_max":0,"o":"m 129 969 l 285 969 l 563 447 l 569 447 l 849 969 l 999 969 l 999 0 l 885 0 l 885 817 l 878 817 l 796 654 l 564 232 l 332 654 l 250 817 l 243 817 l 243 0 l 129 0 "},"N":{"ha":982,"x_min":0,"x_max":0,"o":"m 364 592 l 247 807 l 243 807 l 243 0 l 129 0 l 129 969 l 264 969 l 618 378 l 735 163 l 739 163 l 739 969 l 853 969 l 853 0 l 718 0 "},"O":{"ha":983,"x_min":0,"x_max":0,"o":"m 492 -17 b 81 485 242 -17 81 160 b 492 986 81 810 242 986 b 903 485 742 986 903 810 b 492 -17 903 160 742 -17 m 492 88 b 778 404 660 88 778 213 l 778 565 b 492 882 778 757 660 882 b 206 565 324 882 206 757 l 206 404 b 492 88 206 213 324 88 "},"P":{"ha":842,"x_min":0,"x_max":0,"o":"m 129 0 l 129 969 l 515 969 b 786 692 689 969 786 863 b 515 414 786 521 689 414 l 246 414 l 246 0 m 246 517 l 515 517 b 661 656 607 517 661 567 l 661 728 b 515 867 661 817 607 867 l 246 867 "},"Q":{"ha":983,"x_min":0,"x_max":0,"o":"m 706 -228 l 563 -228 b 446 -114 486 -228 446 -179 l 446 -15 b 81 485 222 6 81 181 b 492 986 81 810 242 986 b 903 485 742 986 903 810 b 557 -12 903 189 769 17 l 557 -131 l 706 -131 m 492 88 b 778 404 660 88 778 213 l 778 565 b 492 882 778 757 660 882 b 206 565 324 882 206 757 l 206 404 b 492 88 206 213 324 88 "},"R":{"ha":889,"x_min":0,"x_max":0,"o":"m 246 0 l 129 0 l 129 969 l 515 969 b 786 694 685 969 786 871 b 592 428 786 553 718 457 l 814 0 l 682 0 l 472 417 l 246 417 m 515 517 b 661 656 607 517 661 567 l 661 728 b 515 867 661 817 607 867 l 246 867 l 246 517 "},"S":{"ha":807,"x_min":0,"x_max":0,"o":"m 401 -17 b 58 153 246 -17 136 47 l 144 225 b 406 86 213 135 293 86 b 619 269 544 86 619 158 b 440 436 619 361 568 407 l 361 454 b 88 721 185 494 88 572 b 408 986 88 893 218 986 b 729 828 554 986 657 931 l 642 764 b 403 883 589 838 515 883 b 203 725 279 883 203 829 b 385 564 203 633 263 592 l 464 546 b 735 275 653 503 735 419 b 401 -17 735 97 610 -17 "},"T":{"ha":794,"x_min":0,"x_max":0,"o":"m 456 867 l 456 0 l 339 0 l 339 867 l 31 867 l 31 969 l 764 969 l 764 867 "},"U":{"ha":942,"x_min":0,"x_max":0,"o":"m 239 969 l 239 369 b 471 88 239 185 299 88 b 703 369 643 88 703 185 l 703 969 l 819 969 l 819 397 b 467 -17 819 115 725 -17 b 122 397 208 -17 122 115 l 122 969 "},"V":{"ha":846,"x_min":0,"x_max":0,"o":"m 350 0 l 28 969 l 153 969 l 313 481 l 419 117 l 426 117 l 536 481 l 697 969 l 818 969 l 492 0 "},"W":{"ha":1238,"x_min":0,"x_max":0,"o":"m 264 0 l 28 969 l 151 969 l 256 503 l 336 140 l 339 140 l 429 503 l 551 969 l 685 969 l 803 503 l 893 142 l 897 142 l 981 503 l 1090 969 l 1210 969 l 961 0 l 832 0 l 706 483 l 617 839 l 614 839 l 522 483 l 393 0 "},"X":{"ha":851,"x_min":0,"x_max":0,"o":"m 350 493 l 42 969 l 182 969 l 425 583 l 428 583 l 676 969 l 810 969 l 499 497 l 818 0 l 678 0 l 424 407 l 421 407 l 167 0 l 33 0 "},"Y":{"ha":824,"x_min":0,"x_max":0,"o":"m 351 0 l 351 383 l 18 969 l 151 969 l 410 503 l 414 503 l 672 969 l 806 969 l 468 388 l 468 0 "},"Z":{"ha":806,"x_min":0,"x_max":0,"o":"m 756 0 l 50 0 l 50 106 l 610 867 l 79 867 l 79 969 l 736 969 l 736 864 l 175 103 l 756 103 "},"&":{"ha":964,"x_min":0,"x_max":0,"o":"m 679 114 b 397 -17 640 65 554 -17 b 100 251 206 -17 100 103 b 299 525 100 396 199 471 b 189 753 232 594 189 667 b 440 986 189 883 289 986 b 674 778 578 986 674 901 b 451 510 674 650 574 578 l 669 275 b 715 510 697 346 711 428 l 904 510 l 904 415 l 806 415 b 739 201 793 335 769 263 l 928 0 l 783 0 m 435 893 b 299 763 356 893 299 836 l 299 746 b 392 572 299 690 336 635 b 567 758 479 619 567 682 l 567 775 b 435 893 567 850 506 893 m 407 81 b 617 181 500 81 568 119 l 357 461 b 215 267 282 421 215 375 l 215 246 b 407 81 215 144 290 81 "},"@":{"ha":1238,"x_min":0,"x_max":0,"o":"m 943 -168 l 621 -168 b 90 400 301 -168 90 57 b 633 983 90 744 306 983 b 1147 449 894 983 1147 832 b 906 96 1147 257 1081 96 b 765 215 818 96 774 144 l 760 215 b 588 96 724 142 672 96 b 346 401 458 96 346 194 b 588 707 346 608 458 707 b 746 600 672 707 721 660 l 751 600 l 751 694 l 847 694 l 847 272 b 924 181 847 200 872 181 b 1056 431 1010 181 1056 276 l 1056 494 b 632 900 1056 739 871 900 b 183 446 367 900 183 701 l 183 364 b 622 -83 183 101 360 -83 l 943 -83 m 607 188 b 751 321 704 188 751 236 l 751 490 b 607 615 751 561 706 615 b 463 457 508 615 463 553 l 463 346 b 607 188 463 250 508 188 "},"-":{"ha":554,"x_min":0,"x_max":0,"o":"m 96 363 l 96 482 l 458 482 l 458 363 "},"­":{"ha":554,"x_min":0,"x_max":0,"o":"m 96 363 l 96 482 l 458 482 l 458 363 "},"‐":{"ha":554,"x_min":0,"x_max":0,"o":"m 96 363 l 96 482 l 458 482 l 458 363 "},"‑":{"ha":554,"x_min":0,"x_max":0,"o":"m 96 363 l 96 482 l 458 482 l 458 363 "},"‒":{"ha":817,"x_min":0,"x_max":0,"o":"m 50 369 l 50 475 l 767 475 l 767 369 "},"–":{"ha":817,"x_min":0,"x_max":0,"o":"m 50 369 l 50 475 l 767 475 l 767 369 "},"—":{"ha":1083,"x_min":0,"x_max":0,"o":"m 50 369 l 50 475 l 1033 475 l 1033 369 "},"―":{"ha":1389,"x_min":0,"x_max":0,"o":"m 0 369 l 0 475 l 1389 475 l 1389 369 "},"_":{"ha":785,"x_min":0,"x_max":0,"o":"m 42 -229 l 42 -132 l 743 -132 l 743 -229 "},".":{"ha":378,"x_min":0,"x_max":0,"o":"m 189 -17 b 104 64 131 -17 104 17 l 104 82 b 189 163 104 129 131 163 b 274 82 247 163 274 129 l 274 64 b 189 -17 274 17 247 -17 "},"…":{"ha":1115,"x_min":0,"x_max":0,"o":"m 189 -17 b 104 64 131 -17 104 17 l 104 82 b 189 163 104 129 131 163 b 274 82 247 163 274 129 l 274 64 b 189 -17 274 17 247 -17 m 557 -17 b 472 64 499 -17 472 17 l 472 82 b 557 163 472 129 499 163 b 642 82 615 163 642 129 l 642 64 b 557 -17 642 17 615 -17 m 926 -17 b 842 64 868 -17 842 17 l 842 82 b 926 163 842 129 868 163 b 1011 82 985 163 1011 129 l 1011 64 b 926 -17 1011 17 985 -17 "},":":{"ha":406,"x_min":0,"x_max":0,"o":"m 203 -17 b 118 64 144 -17 118 17 l 118 82 b 203 163 118 129 144 163 b 288 82 261 163 288 129 l 288 64 b 203 -17 288 17 261 -17 m 203 554 b 118 635 144 554 118 588 l 118 653 b 203 733 118 700 144 733 b 288 653 261 733 288 700 l 288 635 b 203 554 288 588 261 554 "},",":{"ha":378,"x_min":0,"x_max":0,"o":"m 189 163 b 274 81 247 163 274 129 l 274 61 b 147 -185 274 -14 226 -117 l 54 -185 b 158 -12 110 -126 143 -78 b 104 61 121 -4 104 24 l 104 81 b 189 163 104 129 131 163 "},";":{"ha":406,"x_min":0,"x_max":0,"o":"m 203 163 b 288 81 261 163 288 129 l 288 61 b 161 -185 288 -14 240 -117 l 68 -185 b 172 -12 124 -126 157 -78 b 118 61 135 -4 118 24 l 118 81 b 203 163 118 129 144 163 m 203 554 b 118 635 144 554 118 588 l 118 653 b 203 733 118 700 144 733 b 288 653 261 733 288 700 l 288 635 b 203 554 288 588 261 554 "},";":{"ha":406,"x_min":0,"x_max":0,"o":"m 203 163 b 288 81 261 163 288 129 l 288 61 b 161 -185 288 -14 240 -117 l 68 -185 b 172 -12 124 -126 157 -78 b 118 61 135 -4 118 24 l 118 81 b 203 163 118 129 144 163 m 203 554 b 118 635 144 554 118 588 l 118 653 b 203 733 118 700 144 733 b 288 653 261 733 288 700 l 288 635 b 203 554 288 588 261 554 "},"'":{"ha":336,"x_min":0,"x_max":0,"o":"m 118 639 l 118 1028 l 218 1028 l 218 639 "},"\"":{"ha":582,"x_min":0,"x_max":0,"o":"m 118 639 l 118 1028 l 218 1028 l 218 639 m 364 639 l 364 1028 l 464 1028 l 464 639 "},"‘":{"ha":379,"x_min":0,"x_max":0,"o":"m 183 681 b 99 763 125 681 99 714 l 99 782 b 225 1028 99 857 146 960 l 318 1028 b 214 856 263 969 229 921 b 268 782 251 847 268 819 l 268 763 b 183 681 268 714 242 681 "},"’":{"ha":379,"x_min":0,"x_max":0,"o":"m 196 1042 b 281 960 254 1042 281 1008 l 281 940 b 154 694 281 865 233 763 l 61 694 b 165 867 117 753 150 801 b 111 940 128 875 111 903 l 111 960 b 196 1042 111 1008 138 1042 "},"“":{"ha":660,"x_min":0,"x_max":0,"o":"m 183 681 b 99 763 125 681 99 714 l 99 782 b 225 1028 99 857 146 960 l 318 1028 b 214 856 263 969 229 921 b 268 782 251 847 268 819 l 268 763 b 183 681 268 714 242 681 m 464 681 b 379 763 406 681 379 714 l 379 782 b 506 1028 379 857 426 960 l 599 1028 b 494 856 543 969 510 921 b 549 782 532 847 549 819 l 549 763 b 464 681 549 714 522 681 "},"”":{"ha":658,"x_min":0,"x_max":0,"o":"m 196 1042 b 281 960 254 1042 281 1008 l 281 940 b 154 694 281 865 233 763 l 61 694 b 165 867 117 753 150 801 b 111 940 128 875 111 903 l 111 960 b 196 1042 111 1008 138 1042 m 475 1042 b 560 960 533 1042 560 1008 l 560 940 b 433 694 560 865 513 763 l 340 694 b 444 867 396 753 429 801 b 390 940 407 875 390 903 l 390 960 b 475 1042 390 1008 417 1042 "},"‚":{"ha":381,"x_min":0,"x_max":0,"o":"m 183 186 b 268 104 242 186 268 153 l 268 85 b 142 -161 268 10 221 -93 l 49 -161 b 153 11 104 -103 138 -54 b 99 85 115 19 99 47 l 99 104 b 183 186 99 153 125 186 "},"„":{"ha":660,"x_min":0,"x_max":0,"o":"m 183 186 b 268 104 242 186 268 153 l 268 85 b 142 -161 268 10 221 -93 l 49 -161 b 153 11 104 -103 138 -54 b 99 85 115 19 99 47 l 99 104 b 183 186 99 153 125 186 m 463 186 b 547 104 521 186 547 153 l 547 85 b 421 -161 547 10 500 -93 l 328 -161 b 432 11 383 -103 417 -54 b 378 85 394 19 378 47 l 378 104 b 463 186 378 153 404 186 "},"‹":{"ha":422,"x_min":0,"x_max":0,"o":"m 317 111 l 50 342 l 50 447 l 317 678 l 350 603 l 160 394 l 350 186 "},"›":{"ha":422,"x_min":0,"x_max":0,"o":"m 263 394 l 72 603 l 106 678 l 372 447 l 372 342 l 106 111 l 72 186 "},"«":{"ha":713,"x_min":0,"x_max":0,"o":"m 317 111 l 50 342 l 50 447 l 317 678 l 350 603 l 160 394 l 350 186 m 607 111 l 340 342 l 340 447 l 607 678 l 640 603 l 450 394 l 640 186 "},"»":{"ha":713,"x_min":0,"x_max":0,"o":"m 263 394 l 72 603 l 106 678 l 372 447 l 372 342 l 106 111 l 72 186 m 553 394 l 363 603 l 396 678 l 663 447 l 663 342 l 396 111 l 363 186 "},"¡":{"ha":394,"x_min":0,"x_max":0,"o":"m 135 -253 l 135 29 l 168 460 l 224 460 l 257 29 l 257 -253 m 197 554 b 113 635 139 554 113 586 l 113 653 b 197 733 113 701 139 733 b 282 653 256 733 282 701 l 282 635 b 197 554 282 586 256 554 "},"!":{"ha":394,"x_min":0,"x_max":0,"o":"m 169 257 l 136 688 l 136 969 l 258 969 l 258 688 l 225 257 m 197 -17 b 113 64 139 -17 113 15 l 113 82 b 197 163 113 131 139 163 b 282 82 256 163 282 131 l 282 64 b 197 -17 282 15 256 -17 "},"¿":{"ha":649,"x_min":0,"x_max":0,"o":"m 331 -269 b 51 -7 160 -269 51 -167 b 307 278 51 171 185 254 l 307 428 l 414 428 l 414 200 b 171 7 263 193 171 124 l 171 -12 b 335 -168 171 -107 236 -168 b 528 -6 442 -168 506 -99 l 631 -44 b 331 -269 596 -164 504 -269 m 364 554 b 279 635 306 554 279 586 l 279 653 b 364 733 279 701 306 733 b 449 653 422 733 449 701 l 449 635 b 364 554 449 586 422 554 "},"?":{"ha":663,"x_min":0,"x_max":0,"o":"m 249 289 l 249 517 b 492 710 400 524 492 593 l 492 729 b 328 885 492 824 426 885 b 135 722 221 885 157 815 l 32 761 b 332 986 67 881 158 986 b 611 724 503 986 611 883 b 356 439 611 546 478 463 l 356 289 m 303 -17 b 218 64 244 -17 218 15 l 218 82 b 303 163 218 131 244 163 b 388 82 361 163 388 131 l 388 64 b 303 -17 388 15 361 -17 "},"(":{"ha":465,"x_min":0,"x_max":0,"o":"m 115 433 b 367 1056 115 701 225 935 l 472 1056 b 219 492 318 917 219 686 l 219 372 b 472 -190 219 178 322 -57 l 367 -190 b 115 433 229 -74 115 163 "},")":{"ha":465,"x_min":0,"x_max":0,"o":"m 350 433 b 99 -190 350 163 236 -74 l -7 -190 b 246 372 143 -57 246 178 l 246 492 b -7 1056 246 686 147 917 l 99 1056 b 350 433 240 935 350 701 "},"[":{"ha":440,"x_min":0,"x_max":0,"o":"m 129 -192 l 129 1056 l 357 1056 l 357 968 l 225 968 l 225 -104 l 357 -104 l 357 -192 "},"]":{"ha":440,"x_min":0,"x_max":0,"o":"m 311 1056 l 311 -192 l 83 -192 l 83 -104 l 215 -104 l 215 968 l 83 968 l 83 1056 "},"{":{"ha":476,"x_min":0,"x_max":0,"o":"m 276 -192 b 165 -78 203 -192 165 -142 l 165 256 b 31 378 165 335 108 378 l 31 486 b 165 608 108 486 165 529 l 165 942 b 276 1056 165 1006 203 1056 l 393 1056 l 393 968 l 261 968 l 261 621 b 129 443 261 533 207 458 l 129 421 b 261 243 207 406 261 331 l 261 -104 l 393 -104 l 393 -192 "},"}":{"ha":476,"x_min":0,"x_max":0,"o":"m 200 1056 b 311 942 274 1056 311 1006 l 311 608 b 446 486 311 529 368 486 l 446 378 b 311 256 368 378 311 335 l 311 -78 b 200 -192 311 -142 274 -192 l 83 -192 l 83 -104 l 215 -104 l 215 243 b 347 421 215 331 269 406 l 347 443 b 215 621 269 458 215 533 l 215 968 l 83 968 l 83 1056 "},"/":{"ha":532,"x_min":0,"x_max":0,"o":"m 13 -210 l 375 1028 l 475 1028 l 113 -210 "},"\\":{"ha":532,"x_min":0,"x_max":0,"o":"m 415 -210 l 56 1028 l 156 1028 l 515 -210 "},"⁄":{"ha":204,"x_min":0,"x_max":0,"o":"m -282 0 l 393 969 l 486 969 l -189 0 "},"∕":{"ha":204,"x_min":0,"x_max":0,"o":"m -282 0 l 393 969 l 486 969 l -189 0 "},"%":{"ha":1288,"x_min":0,"x_max":0,"o":"m 254 0 l 926 969 l 1033 969 l 361 0 m 310 436 b 90 711 169 436 90 533 b 310 986 90 889 169 986 b 529 711 450 986 529 889 b 310 436 529 533 450 436 m 310 508 b 429 669 390 508 429 564 l 429 753 b 310 914 429 858 390 914 b 190 753 229 914 190 858 l 190 669 b 310 508 190 564 229 508 m 978 -17 b 758 258 838 -17 758 81 b 978 533 758 436 838 533 b 1197 258 1118 533 1197 436 b 978 -17 1197 81 1118 -17 m 978 56 b 1097 217 1058 56 1097 111 l 1097 300 b 978 461 1097 406 1058 461 b 858 300 897 461 858 406 l 858 217 b 978 56 858 111 897 56 "},"‰":{"ha":1814,"x_min":0,"x_max":0,"o":"m 254 0 l 926 969 l 1033 969 l 361 0 m 310 436 b 90 711 169 436 90 533 b 310 986 90 889 169 986 b 529 711 450 986 529 889 b 310 436 529 533 450 436 m 310 508 b 429 669 390 508 429 564 l 429 753 b 310 914 429 858 390 914 b 190 753 229 914 190 858 l 190 669 b 310 508 190 564 229 508 m 978 -17 b 758 258 838 -17 758 81 b 978 533 758 436 838 533 b 1197 258 1118 533 1197 436 b 978 -17 1197 81 1118 -17 m 978 56 b 1097 217 1058 56 1097 111 l 1097 300 b 978 461 1097 406 1058 461 b 858 300 897 461 858 406 l 858 217 b 978 56 858 111 897 56 m 1504 -17 b 1285 258 1364 -17 1285 81 b 1504 533 1285 436 1364 533 b 1724 258 1644 533 1724 436 b 1504 -17 1724 81 1644 -17 m 1504 56 b 1624 217 1585 56 1624 111 l 1624 300 b 1504 461 1624 406 1585 461 b 1385 300 1424 461 1385 406 l 1385 217 b 1504 56 1385 111 1424 56 "},"|":{"ha":436,"x_min":0,"x_max":0,"o":"m 171 -192 l 171 1056 l 265 1056 l 265 -192 "},"¦":{"ha":436,"x_min":0,"x_max":0,"o":"m 171 564 l 171 1056 l 265 1056 l 265 564 m 171 -192 l 171 300 l 265 300 l 265 -192 "},"§":{"ha":814,"x_min":0,"x_max":0,"o":"m 660 6 b 385 -215 660 -131 547 -215 b 153 -137 301 -215 217 -193 l 217 -60 b 386 -119 261 -97 317 -119 b 550 3 489 -119 550 -72 b 406 138 550 72 496 110 l 318 164 b 106 376 169 208 106 283 b 257 575 106 465 161 536 l 257 585 b 154 767 196 625 154 685 b 428 986 154 900 264 986 b 661 908 511 986 596 964 l 596 831 b 426 890 551 868 496 890 b 263 768 324 890 263 843 b 407 633 263 699 317 661 l 494 607 b 708 394 644 563 708 488 b 556 196 708 306 653 235 l 556 188 b 660 6 622 146 660 85 m 599 365 b 436 521 599 443 547 490 l 350 544 b 306 560 335 549 319 554 b 215 406 250 521 215 471 b 376 250 215 328 265 281 l 463 226 b 507 211 478 222 493 217 b 599 365 563 251 599 300 "},"¶":{"ha":906,"x_min":0,"x_max":0,"o":"m 342 417 b 72 693 192 417 72 543 b 342 969 72 843 192 969 l 792 969 l 792 875 l 699 875 l 699 -207 l 597 -207 l 597 875 l 443 875 l 443 -207 l 342 -207 "},"©":{"ha":1078,"x_min":0,"x_max":0,"o":"m 539 -15 b 75 485 279 -15 75 176 b 539 985 75 793 279 985 b 1003 485 799 985 1003 793 b 539 -15 1003 176 799 -15 m 539 68 b 908 443 756 68 908 228 l 908 526 b 539 901 908 742 756 901 b 169 526 322 901 169 742 l 169 443 b 539 68 169 228 322 68 m 550 215 b 321 485 406 215 321 321 b 550 754 321 649 406 754 b 735 633 643 754 703 706 l 656 589 b 550 667 635 638 604 667 b 426 529 469 667 426 610 l 426 439 b 550 301 426 358 469 301 b 668 385 608 301 640 335 l 743 338 b 550 215 711 267 647 215 "},"®":{"ha":661,"x_min":0,"x_max":0,"o":"m 331 414 b 56 700 181 414 56 538 b 331 986 56 863 181 986 b 606 700 481 986 606 863 b 331 414 606 538 481 414 m 331 469 b 546 685 457 469 546 574 l 546 715 b 331 931 546 826 457 931 b 115 715 204 931 115 826 l 115 685 b 331 469 115 574 204 469 m 282 550 l 226 550 l 226 840 l 351 840 b 440 753 407 840 440 804 b 386 668 440 708 417 681 l 454 550 l 392 550 l 331 661 l 282 661 m 349 706 b 381 735 369 706 381 715 l 381 765 b 349 794 381 783 369 794 l 282 794 l 282 706 "},"™":{"ha":914,"x_min":0,"x_max":0,"o":"m 169 582 l 169 907 l 44 907 l 44 969 l 363 969 l 363 907 l 239 907 l 239 582 m 435 582 l 435 969 l 522 969 l 618 785 l 622 785 l 717 969 l 800 969 l 800 582 l 736 582 l 736 757 l 738 872 l 732 872 l 618 657 l 503 872 l 497 872 l 500 757 l 500 582 "},"ª":{"ha":554,"x_min":0,"x_max":0,"o":"m 500 486 l 453 486 b 367 560 399 486 367 510 l 361 560 b 207 478 340 517 292 478 b 56 614 110 478 56 533 b 263 758 56 713 131 758 l 361 758 l 361 797 b 257 906 361 871 325 906 b 131 833 194 906 150 875 l 72 881 b 261 978 100 928 160 978 b 449 801 376 978 449 914 l 449 564 l 500 564 m 260 694 b 143 629 185 694 143 672 l 143 615 b 226 549 143 569 172 549 b 361 638 297 549 361 583 l 361 694 "},"º":{"ha":553,"x_min":0,"x_max":0,"o":"m 276 478 b 61 728 142 478 61 572 b 276 978 61 883 142 978 b 492 728 411 978 492 883 b 276 478 492 572 411 478 m 276 550 b 397 685 357 550 397 606 l 397 771 b 276 906 397 850 357 906 b 156 771 196 906 156 850 l 156 685 b 276 550 156 606 196 550 "},"°":{"ha":650,"x_min":0,"x_max":0,"o":"m 325 508 b 92 747 193 508 92 611 b 325 986 92 883 193 986 b 558 747 457 986 558 883 b 325 508 558 611 457 508 m 325 597 b 461 747 408 597 461 664 b 325 897 461 831 408 897 b 189 747 242 897 189 831 b 325 597 189 664 242 597 "},"′":{"ha":336,"x_min":0,"x_max":0,"o":"m 78 525 l 156 969 l 258 969 l 181 525 "},"″":{"ha":582,"x_min":0,"x_max":0,"o":"m 78 525 l 156 969 l 258 969 l 181 525 m 324 525 l 401 969 l 504 969 l 426 525 "},"*":{"ha":625,"x_min":0,"x_max":0,"o":"m 199 539 l 121 596 l 247 757 l 50 811 l 81 904 l 272 833 l 264 1038 l 361 1038 l 353 833 l 544 904 l 575 811 l 378 757 l 504 596 l 426 539 l 313 710 "},"†":{"ha":767,"x_min":0,"x_max":0,"o":"m 335 -278 l 335 628 l 69 628 l 69 717 l 335 717 l 335 1028 l 432 1028 l 432 717 l 697 717 l 697 628 l 432 628 l 432 -278 "},"‡":{"ha":767,"x_min":0,"x_max":0,"o":"m 335 -278 l 335 33 l 69 33 l 69 122 l 335 122 l 335 628 l 69 628 l 69 717 l 335 717 l 335 1028 l 432 1028 l 432 717 l 697 717 l 697 628 l 432 628 l 432 122 l 697 122 l 697 33 l 432 33 l 432 -278 "},"#":{"ha":990,"x_min":0,"x_max":0,"o":"m 564 285 l 350 285 l 300 0 l 211 0 l 261 285 l 83 285 l 83 368 l 275 368 l 314 601 l 138 601 l 138 685 l 329 685 l 378 969 l 467 969 l 418 685 l 632 685 l 681 969 l 769 969 l 721 685 l 899 685 l 899 601 l 706 601 l 667 368 l 844 368 l 844 285 l 653 285 l 603 0 l 514 0 m 578 368 l 617 601 l 403 601 l 364 368 "},"^":{"ha":833,"x_min":0,"x_max":0,"o":"m 679 411 l 419 867 l 414 867 l 154 411 l 69 456 l 357 969 l 476 969 l 764 456 "},"~":{"ha":833,"x_min":0,"x_max":0,"o":"m 582 328 b 403 379 514 328 467 349 b 246 426 351 404 303 426 b 131 382 200 426 172 413 l 85 443 b 251 519 122 489 168 519 b 431 468 319 519 367 499 b 588 421 482 443 531 421 b 703 465 633 421 661 435 l 749 404 b 582 328 711 358 665 328 "},"+":{"ha":833,"x_min":0,"x_max":0,"o":"m 364 86 l 364 376 l 93 376 l 93 471 l 364 471 l 364 761 l 469 761 l 469 471 l 740 471 l 740 376 l 469 376 l 469 86 "},"−":{"ha":833,"x_min":0,"x_max":0,"o":"m 93 376 l 93 471 l 740 471 l 740 376 "},"±":{"ha":833,"x_min":0,"x_max":0,"o":"m 364 211 l 364 488 l 93 488 l 93 582 l 364 582 l 364 858 l 469 858 l 469 582 l 740 582 l 740 488 l 469 488 l 469 211 m 93 0 l 93 94 l 740 94 l 740 0 "},"×":{"ha":833,"x_min":0,"x_max":0,"o":"m 417 356 l 196 129 l 128 197 l 349 424 l 128 650 l 196 718 l 417 492 l 638 718 l 706 650 l 485 424 l 706 197 l 638 129 "},"÷":{"ha":833,"x_min":0,"x_max":0,"o":"m 93 376 l 93 471 l 740 471 l 740 376 m 417 72 b 331 139 353 72 331 101 l 331 169 b 417 236 331 207 353 236 b 503 169 481 236 503 207 l 503 139 b 417 72 503 101 481 72 m 417 611 b 331 678 353 611 331 640 l 331 708 b 417 775 331 746 353 775 b 503 708 481 775 503 746 l 503 678 b 417 611 503 640 481 611 "},"=":{"ha":833,"x_min":0,"x_max":0,"o":"m 93 517 l 93 611 l 740 611 l 740 517 m 93 239 l 93 333 l 740 333 l 740 239 "},"≈":{"ha":833,"x_min":0,"x_max":0,"o":"m 582 190 b 403 242 514 190 467 211 b 246 289 351 267 303 289 b 131 244 200 289 172 275 l 85 306 b 251 382 122 351 168 382 b 431 331 319 382 367 361 b 588 283 482 306 531 283 b 703 328 633 283 661 297 l 749 267 b 582 190 711 221 665 190 m 582 467 b 403 518 514 467 467 488 b 246 565 351 543 303 565 b 131 521 200 565 172 551 l 85 582 b 251 658 122 628 168 658 b 431 607 319 658 367 638 b 588 560 482 582 531 560 b 703 604 633 560 661 574 l 749 543 b 582 467 711 497 665 467 "},"≠":{"ha":833,"x_min":0,"x_max":0,"o":"m 193 100 l 268 239 l 93 239 l 93 333 l 319 333 l 415 517 l 93 517 l 93 611 l 467 611 l 540 750 l 640 750 l 565 611 l 740 611 l 740 517 l 514 517 l 418 333 l 740 333 l 740 239 l 367 239 l 293 100 "},"<":{"ha":833,"x_min":0,"x_max":0,"o":"m 125 329 l 125 440 l 708 786 l 708 669 l 229 390 l 229 379 l 708 100 l 708 -17 "},">":{"ha":833,"x_min":0,"x_max":0,"o":"m 125 100 l 604 379 l 604 390 l 125 669 l 125 786 l 708 440 l 708 329 l 125 -17 "},"≤":{"ha":833,"x_min":0,"x_max":0,"o":"m 125 0 l 125 94 l 708 94 l 708 0 m 708 710 l 231 500 l 231 490 l 708 281 l 708 168 l 125 433 l 125 557 l 708 821 "},"≥":{"ha":833,"x_min":0,"x_max":0,"o":"m 125 281 l 603 490 l 603 500 l 125 710 l 125 821 l 708 557 l 708 433 l 125 168 m 125 94 l 708 94 l 708 0 l 125 0 "},"∙":{"ha":453,"x_min":0,"x_max":0,"o":"m 226 333 b 142 414 168 333 142 367 l 142 432 b 226 513 142 479 168 513 b 311 432 285 513 311 479 l 311 414 b 226 333 311 367 285 333 "},"·":{"ha":453,"x_min":0,"x_max":0,"o":"m 226 333 b 142 414 168 333 142 367 l 142 432 b 226 513 142 479 168 513 b 311 432 285 513 311 479 l 311 414 b 226 333 311 367 285 333 "},"·":{"ha":406,"x_min":0,"x_max":0,"o":"m 203 554 b 118 635 144 554 118 588 l 118 653 b 203 733 118 700 144 733 b 288 653 261 733 288 700 l 288 635 b 203 554 288 588 261 554 "},"•":{"ha":550,"x_min":0,"x_max":0,"o":"m 275 258 b 106 403 151 258 106 321 l 106 442 b 275 586 106 524 151 586 b 444 442 399 586 444 524 l 444 403 b 275 258 444 321 399 258 "},"∶":{"ha":406,"x_min":0,"x_max":0,"o":"m 203 164 b 118 244 144 164 118 197 l 118 263 b 203 343 118 310 144 343 b 288 263 261 343 288 310 l 288 244 b 203 164 288 197 261 164 m 203 626 b 118 707 144 626 118 660 l 118 725 b 203 806 118 772 144 806 b 288 725 261 806 288 772 l 288 707 b 203 626 288 660 261 626 "},"◊":{"ha":833,"x_min":0,"x_max":0,"o":"m 363 0 l 65 485 l 363 969 l 472 969 l 769 485 l 472 0 m 422 104 l 653 485 l 422 865 l 413 865 l 182 485 l 413 104 "},"¬":{"ha":833,"x_min":0,"x_max":0,"o":"m 644 108 l 644 376 l 93 376 l 93 471 l 740 471 l 740 108 "},"√":{"ha":833,"x_min":0,"x_max":0,"o":"m 351 0 l 178 628 l 40 628 l 40 717 l 263 717 l 325 486 l 429 93 l 436 93 l 544 486 l 679 969 l 788 969 l 508 0 "},"∫":{"ha":592,"x_min":0,"x_max":0,"o":"m 69 -181 l 240 -181 l 240 864 b 397 1028 240 961 290 1028 l 522 1028 l 522 931 l 351 931 l 351 -114 b 194 -278 351 -211 301 -278 l 69 -278 "},"∞":{"ha":1028,"x_min":0,"x_max":0,"o":"m 269 160 b 22 424 117 160 22 271 b 269 688 22 576 117 688 b 538 493 415 688 493 624 l 544 493 b 758 688 572 629 654 688 b 1006 424 911 688 1006 576 b 758 160 1006 271 911 160 b 490 354 613 160 535 224 l 483 354 b 269 160 456 218 374 160 m 269 254 b 457 424 360 254 425 303 b 269 593 425 544 360 593 b 136 458 189 593 136 539 l 136 389 b 269 254 136 308 189 254 m 758 254 b 892 389 839 254 892 308 l 892 458 b 758 593 892 539 839 593 b 571 424 668 593 603 544 b 758 254 603 303 668 254 "},"℮":{"ha":1008,"x_min":0,"x_max":0,"o":"m 250 151 b 504 54 308 96 393 54 b 843 261 671 54 776 138 l 907 226 b 504 -17 833 86 701 -17 b 50 485 243 -17 50 179 b 504 986 50 790 243 986 b 958 485 765 986 958 790 l 250 485 m 758 551 l 758 822 b 504 919 700 878 615 919 b 250 822 393 919 308 878 l 250 551 "},"ℓ":{"ha":678,"x_min":0,"x_max":0,"o":"m 378 -17 b 169 221 242 -17 169 81 l 169 235 b 93 182 144 215 118 199 l 47 257 b 167 339 86 282 129 310 l 167 779 b 361 1044 167 978 249 1044 b 556 811 489 1044 556 963 b 274 308 556 628 456 475 l 274 247 b 388 81 274 126 315 81 b 558 226 471 81 519 142 l 638 178 b 378 -17 590 69 508 -17 m 365 951 b 274 789 313 951 274 915 l 274 428 b 453 797 389 550 453 674 l 453 821 b 365 951 453 915 418 951 "},"№":{"ha":1426,"x_min":0,"x_max":0,"o":"m 1143 506 b 921 746 1018 506 921 593 b 1143 986 921 899 1018 986 b 1365 746 1268 986 1365 899 b 1143 506 1365 593 1268 506 m 129 0 l 129 969 l 257 969 l 568 407 l 703 161 l 707 161 l 707 969 l 815 969 l 815 0 l 685 0 l 357 582 l 242 797 l 238 797 l 238 0 m 1143 579 b 1268 707 1219 579 1268 636 l 1268 785 b 1143 913 1268 856 1219 913 b 1018 785 1067 913 1018 856 l 1018 707 b 1143 579 1018 636 1067 579 m 953 338 l 953 429 l 1333 429 l 1333 338 "},"∂":{"ha":821,"x_min":0,"x_max":0,"o":"m 726 374 b 411 -17 726 110 604 -17 b 88 342 208 -17 88 124 b 393 700 88 560 208 700 b 568 624 474 700 528 672 l 572 626 b 196 969 526 760 364 882 l 371 969 b 726 374 499 892 726 733 m 407 79 b 608 293 528 79 608 150 l 608 390 b 407 604 608 533 528 604 b 206 390 286 604 206 533 l 206 293 b 407 79 206 150 286 79 "},"¤":{"ha":850,"x_min":0,"x_max":0,"o":"m 425 165 b 233 228 347 165 282 188 l 92 86 l 25 151 l 172 299 b 128 485 143 350 128 413 b 172 671 128 557 143 619 l 25 818 l 92 883 l 233 742 b 425 804 282 782 347 804 b 617 742 503 804 568 782 l 758 883 l 825 818 l 678 671 b 722 485 707 619 722 557 b 678 299 722 413 707 350 l 825 151 l 758 86 l 617 228 b 425 165 568 188 503 165 m 425 258 b 604 440 532 258 604 318 l 604 529 b 425 711 604 651 532 711 b 246 529 318 711 246 651 l 246 440 b 425 258 246 318 318 258 "},"¢":{"ha":714,"x_min":0,"x_max":0,"o":"m 326 -158 l 326 -12 b 65 358 160 11 65 151 b 326 729 65 567 161 706 l 326 875 l 424 875 l 424 732 b 651 568 539 722 613 657 l 563 519 b 422 633 538 585 490 624 l 422 83 b 581 206 494 92 547 133 l 661 151 b 424 -15 621 58 540 -6 l 424 -158 m 185 297 b 328 88 185 192 233 108 l 328 629 b 185 419 233 610 185 526 l 185 297 "},"€":{"ha":868,"x_min":0,"x_max":0,"o":"m 469 -17 b 81 485 225 -17 81 161 b 469 986 81 808 225 986 b 800 774 631 986 739 907 l 710 718 b 469 883 671 817 588 883 b 207 644 321 883 229 788 l 564 644 l 564 551 l 201 551 l 201 418 l 564 418 l 564 325 l 207 325 b 469 86 231 182 322 86 b 717 263 592 86 676 158 l 807 203 b 469 -17 747 76 647 -17 "},"ƒ":{"ha":674,"x_min":0,"x_max":0,"o":"m 6 -89 l 207 -89 l 258 418 l 60 418 l 71 519 l 268 519 l 297 806 b 472 969 307 903 365 969 l 640 969 l 629 872 l 417 872 l 381 519 l 615 519 l 606 418 l 371 418 l 326 -22 b 151 -186 317 -118 260 -186 l -4 -186 "},"£":{"ha":826,"x_min":0,"x_max":0,"o":"m 114 0 l 114 139 b 214 329 192 172 214 251 b 208 397 214 353 211 376 l 83 397 l 83 494 l 182 494 b 139 693 161 557 139 617 b 458 986 139 865 257 986 b 756 828 600 986 693 926 l 668 764 b 454 883 621 838 556 883 b 260 682 335 883 260 817 b 299 494 260 611 281 553 l 599 494 l 599 397 l 324 397 b 328 342 326 379 328 361 b 224 111 328 238 279 149 l 224 104 l 729 104 l 729 0 "},"$":{"ha":831,"x_min":0,"x_max":0,"o":"m 375 -114 l 375 0 b 72 165 235 10 140 75 l 154 239 b 376 99 214 160 283 111 l 376 456 b 101 719 186 499 101 576 b 375 969 101 868 214 954 l 375 1083 l 461 1083 l 461 971 b 743 814 586 960 676 906 l 658 750 b 460 871 613 814 549 858 l 460 546 l 472 543 b 749 278 664 500 749 424 b 461 0 749 119 638 17 l 461 -114 m 639 271 b 460 440 639 364 589 410 l 460 99 b 639 271 569 113 639 176 m 211 728 b 376 564 211 633 265 594 l 376 871 b 211 728 276 858 211 808 "},"¥":{"ha":840,"x_min":0,"x_max":0,"o":"m 478 201 l 478 0 l 363 0 l 363 201 l 118 201 l 118 294 l 363 294 l 363 428 l 118 428 l 118 521 l 307 521 l 47 969 l 178 969 l 421 532 l 428 532 l 664 969 l 793 969 l 533 521 l 722 521 l 722 428 l 478 428 l 478 294 l 722 294 l 722 201 "},"฿":{"ha":894,"x_min":0,"x_max":0,"o":"m 482 -114 l 396 -114 l 396 29 l 129 29 l 129 940 l 396 940 l 396 1083 l 482 1083 l 482 940 l 515 940 b 772 706 674 940 772 847 b 610 511 772 582 697 526 l 610 503 b 807 293 700 488 807 446 b 556 29 807 143 699 29 l 482 29 m 397 546 l 397 838 l 244 838 l 244 546 m 481 546 l 518 546 b 651 671 610 546 651 588 l 651 713 b 518 838 651 796 610 838 l 481 838 m 397 132 l 397 450 l 244 450 l 244 132 m 481 132 l 524 132 b 686 267 624 132 686 176 l 686 315 b 524 450 686 406 624 450 l 481 450 "},"₡":{"ha":872,"x_min":0,"x_max":0,"o":"m 439 -1 b 368 8 414 0 389 3 l 354 -114 l 260 -114 l 276 39 b 81 482 151 104 81 254 b 372 964 81 764 189 926 l 385 1083 l 479 1083 l 467 972 l 471 972 b 539 967 494 972 518 971 l 551 1083 l 646 1083 l 632 942 b 804 760 710 910 765 844 l 711 703 b 617 829 689 757 660 801 l 542 108 b 718 278 629 129 686 193 l 811 217 b 533 1 758 104 675 19 l 521 -114 l 426 -114 m 454 868 l 376 118 b 451 101 399 108 424 103 l 531 861 b 474 868 513 865 493 868 m 206 407 b 293 163 206 301 235 214 l 363 850 b 206 564 261 811 206 706 l 206 407 "},"₤":{"ha":826,"x_min":0,"x_max":0,"o":"m 729 0 l 114 0 l 114 139 b 214 331 192 172 214 251 l 83 331 l 83 424 l 203 424 b 165 546 193 467 178 506 l 83 546 l 83 639 l 143 639 b 139 693 140 656 139 674 b 458 986 139 865 257 986 b 756 828 600 986 693 926 l 668 764 b 454 883 621 838 556 883 b 260 682 335 883 260 817 b 263 639 260 667 261 653 l 599 639 l 599 546 l 282 546 b 318 424 294 506 310 465 l 599 424 l 599 331 l 328 331 b 224 111 324 231 276 147 l 224 104 l 729 104 "},"₦":{"ha":967,"x_min":0,"x_max":0,"o":"m 503 329 l 246 329 l 246 0 l 132 0 l 132 325 l 21 325 l 21 418 l 132 418 l 132 551 l 21 551 l 21 644 l 132 644 l 132 969 l 264 969 l 457 640 l 721 640 l 721 969 l 835 969 l 835 644 l 946 644 l 946 551 l 835 551 l 835 418 l 946 418 l 946 325 l 835 325 l 835 0 l 697 0 m 461 414 l 250 788 l 246 788 l 246 414 m 717 167 l 721 167 l 721 556 l 499 556 "},"₨":{"ha":990,"x_min":0,"x_max":0,"o":"m 129 0 l 129 969 l 369 969 b 618 710 535 969 618 875 b 468 467 618 583 569 499 l 603 183 b 739 76 638 111 671 76 b 844 167 806 76 844 107 b 769 285 844 208 833 221 l 743 311 b 642 501 665 389 642 439 b 810 663 642 593 703 663 b 949 622 858 663 906 654 l 904 543 b 815 574 879 563 850 574 b 746 503 771 574 746 547 b 819 379 746 460 764 435 l 840 358 b 949 167 925 274 949 242 b 729 -17 949 57 879 -17 b 503 131 624 -17 551 22 l 361 447 l 240 447 l 240 0 m 358 544 b 504 675 450 544 504 590 l 504 739 b 358 869 504 824 450 869 l 240 869 l 240 544 "},"₩":{"ha":1322,"x_min":0,"x_max":0,"o":"m 788 331 l 522 331 l 435 0 l 308 0 l 231 326 l 51 326 l 51 419 l 208 419 l 178 551 l 51 551 l 51 644 l 156 644 l 78 969 l 193 969 l 267 640 l 507 640 l 593 969 l 726 969 l 810 640 l 1056 640 l 1132 969 l 1249 969 l 1165 644 l 1271 644 l 1271 551 l 1142 551 l 1108 419 l 1271 419 l 1271 326 l 1085 326 l 1000 0 l 874 0 m 471 503 l 483 556 l 286 556 l 297 503 l 378 140 l 381 140 m 939 142 l 1022 503 l 1035 556 l 832 556 l 844 503 l 935 142 m 546 415 l 765 415 l 747 483 l 658 849 l 656 849 l 564 483 "},"₪":{"ha":1069,"x_min":0,"x_max":0,"o":"m 363 750 l 474 750 l 474 97 l 682 97 b 829 253 757 97 829 132 l 829 969 l 940 969 l 940 275 b 682 0 940 90 832 0 l 363 0 m 129 0 l 129 969 l 451 969 b 707 694 601 969 707 879 l 707 219 l 596 219 l 596 717 b 450 872 596 838 526 872 l 240 872 l 240 0 "},"₫":{"ha":806,"x_min":0,"x_max":0,"o":"m 544 290 l 539 290 b 343 182 500 221 435 182 b 99 481 193 182 99 289 b 343 779 99 672 193 779 b 539 669 435 779 500 739 l 544 669 l 544 860 l 338 860 l 338 944 l 544 944 l 544 1028 l 650 1028 l 650 944 l 744 944 l 744 860 l 650 860 l 650 194 l 544 194 m 382 271 b 544 400 475 271 544 322 l 544 561 b 382 690 544 639 475 690 b 211 528 279 690 211 625 l 211 433 b 382 271 211 336 279 271 m 99 0 l 99 93 l 692 93 l 692 0 "},"₭":{"ha":857,"x_min":0,"x_max":0,"o":"m 246 0 l 132 0 l 132 454 l 14 454 l 14 550 l 132 550 l 132 969 l 246 969 l 246 550 l 357 550 l 668 969 l 797 969 l 478 550 l 775 550 l 775 454 l 486 454 l 819 0 l 681 0 l 360 454 l 246 454 "},"₮":{"ha":844,"x_min":0,"x_max":0,"o":"m 481 301 l 481 0 l 364 0 l 364 244 l 179 156 l 179 251 l 364 340 l 364 467 l 179 378 l 179 474 l 364 563 l 364 867 l 56 867 l 56 969 l 789 969 l 789 867 l 481 867 l 481 619 l 667 710 l 667 614 l 481 524 l 481 397 l 667 488 l 667 392 "},"₱":{"ha":872,"x_min":0,"x_max":0,"o":"m 268 0 l 153 0 l 153 461 l 42 461 l 42 554 l 153 554 l 153 688 l 42 688 l 42 781 l 153 781 l 153 969 l 474 969 b 721 781 607 969 686 899 l 847 781 l 847 688 l 738 688 b 740 619 739 665 740 642 b 738 554 740 597 739 575 l 847 554 l 847 461 l 721 461 b 474 269 688 342 608 269 l 268 269 m 268 776 l 614 776 b 474 869 593 832 543 869 l 268 869 m 625 550 l 625 692 l 268 692 l 268 550 m 474 369 b 617 465 544 369 597 407 l 268 465 l 268 369 "},"₲":{"ha":939,"x_min":0,"x_max":0,"o":"m 310 -114 l 333 17 b 81 489 174 72 81 229 b 474 972 81 810 226 972 b 499 971 479 972 486 972 l 518 1083 l 608 1083 l 586 958 b 818 760 693 931 771 863 l 724 703 b 567 857 694 778 642 833 l 504 499 l 839 499 l 839 361 b 465 -3 839 74 624 -3 b 421 0 451 -3 433 -1 l 400 -114 m 206 407 b 353 128 206 271 258 171 l 483 869 l 475 869 b 206 564 304 869 206 756 l 206 407 m 486 393 l 436 103 b 483 100 450 101 468 100 b 725 333 636 100 725 190 l 725 393 "},"₴":{"ha":872,"x_min":0,"x_max":0,"o":"m 439 -17 b 149 244 263 -17 149 90 b 167 344 149 285 157 317 l 64 344 l 64 438 l 238 438 l 468 571 l 64 571 l 64 664 l 585 664 b 597 735 593 685 597 708 b 426 883 597 835 533 883 b 233 793 354 883 289 858 l 160 867 b 436 986 236 951 335 986 b 713 744 599 986 713 894 b 700 664 713 714 708 686 l 808 664 l 808 571 l 633 571 l 403 438 l 808 438 l 808 344 l 286 344 b 264 253 272 318 264 289 b 446 86 264 143 335 86 b 665 194 522 86 590 115 l 736 118 b 439 -17 663 31 557 -17 "},"₵":{"ha":872,"x_min":0,"x_max":0,"o":"m 310 -114 l 333 17 b 81 485 175 71 81 229 b 468 972 81 808 229 972 b 499 971 476 972 490 972 l 518 1083 l 608 1083 l 586 957 b 804 763 688 928 760 860 l 710 706 b 567 853 683 772 638 826 l 436 103 b 468 101 446 101 458 101 b 718 276 594 101 679 172 l 811 218 b 468 -3 751 92 650 -3 b 421 0 453 -3 435 -1 l 400 -114 m 206 407 b 353 125 206 272 257 171 l 483 869 l 468 869 b 206 564 301 869 206 747 l 206 407 "},"₸":{"ha":844,"x_min":0,"x_max":0,"o":"m 56 872 l 56 969 l 789 969 l 789 872 m 481 650 l 481 0 l 364 0 l 364 650 l 56 650 l 56 747 l 789 747 l 789 650 "},"₹":{"ha":840,"x_min":0,"x_max":0,"o":"m 547 0 l 243 414 l 74 414 l 74 511 l 382 511 b 544 644 476 511 544 557 l 74 644 l 74 742 l 544 742 b 382 872 542 826 475 872 l 74 872 l 74 969 l 793 969 l 793 872 l 563 872 l 563 867 b 656 742 586 864 643 849 l 793 742 l 793 644 l 656 644 b 379 414 639 500 540 414 l 689 0 "},"₺":{"ha":842,"x_min":0,"x_max":0,"o":"m 153 344 l 18 279 l 18 375 l 153 440 l 153 567 l 18 501 l 18 597 l 153 663 l 153 969 l 269 969 l 269 718 l 569 863 l 569 767 l 269 622 l 269 496 l 569 640 l 569 544 l 269 400 l 269 101 l 419 101 b 665 424 572 101 665 226 l 779 424 b 426 0 779 188 660 0 l 153 0 "},"₽":{"ha":865,"x_min":0,"x_max":0,"o":"m 269 183 l 269 0 l 153 0 l 153 183 l 42 183 l 42 281 l 153 281 l 153 415 l 42 415 l 42 513 l 153 513 l 153 969 l 539 969 b 810 692 713 969 810 861 b 539 415 810 522 713 415 l 269 415 l 269 281 l 651 281 l 651 183 m 269 513 l 539 513 b 685 651 631 513 685 563 l 685 728 b 539 867 685 817 631 867 l 269 867 "},"₿":{"ha":893,"x_min":0,"x_max":0,"o":"m 461 29 l 378 29 l 378 -114 l 281 -114 l 281 29 l 128 29 l 128 940 l 281 940 l 281 1083 l 378 1083 l 378 940 l 461 940 l 461 1083 l 558 1083 l 558 939 b 771 706 692 924 771 835 b 608 511 771 582 696 526 l 608 503 b 806 293 699 488 806 446 b 558 29 806 143 700 29 l 558 -114 l 461 -114 m 243 549 l 517 549 b 650 674 608 549 650 590 l 650 713 b 517 838 650 796 608 838 l 243 838 m 243 132 l 522 132 b 685 268 622 132 685 179 l 685 313 b 522 449 685 401 622 449 l 243 449 "},"ﬁ":{"ha":788,"x_min":0,"x_max":0,"o":"m 157 619 l 40 619 l 40 717 l 157 717 l 157 861 b 314 1028 157 960 208 1028 l 422 1028 l 422 931 l 268 931 l 268 717 l 669 717 l 669 0 l 558 0 l 558 619 l 268 619 l 268 0 l 157 0 m 614 885 b 546 947 567 885 546 910 l 546 965 b 614 1028 546 1003 567 1028 b 682 965 661 1028 682 1003 l 682 947 b 614 885 682 910 661 885 "},"ﬂ":{"ha":828,"x_min":0,"x_max":0,"o":"m 157 619 l 40 619 l 40 717 l 157 717 l 157 861 b 314 1028 157 960 208 1028 l 422 1028 l 422 931 l 268 931 l 268 717 l 422 717 l 422 619 l 268 619 l 268 0 l 157 0 m 686 0 b 568 115 610 0 568 49 l 568 1028 l 679 1028 l 679 97 l 785 97 l 785 0 "},"á":{"ha":742,"x_min":0,"x_max":0,"o":"m 639 0 b 515 117 557 0 524 50 l 508 117 b 301 -17 478 29 401 -17 b 61 200 150 -17 61 67 b 367 410 61 335 158 410 l 508 410 l 508 481 b 339 638 508 582 453 638 b 157 531 253 638 196 596 l 90 593 b 344 733 129 669 215 733 b 619 492 517 733 619 643 l 619 97 l 701 97 l 701 0 m 319 78 b 508 208 429 78 508 135 l 508 326 l 361 326 b 178 218 235 326 178 288 l 178 189 b 319 78 178 118 233 78 m 360 813 l 288 846 l 406 1082 l 507 1033 "},"ă":{"ha":742,"x_min":0,"x_max":0,"o":"m 639 0 b 515 117 557 0 524 50 l 508 117 b 301 -17 478 29 401 -17 b 61 200 150 -17 61 67 b 367 410 61 335 158 410 l 508 410 l 508 481 b 339 638 508 582 453 638 b 157 531 253 638 196 596 l 90 593 b 344 733 129 669 215 733 b 619 492 517 733 619 643 l 619 97 l 701 97 l 701 0 m 319 78 b 508 208 429 78 508 135 l 508 326 l 361 326 b 178 218 235 326 178 288 l 178 189 b 319 78 178 118 233 78 m 350 828 b 139 1001 201 828 164 925 l 201 1032 l 231 986 b 350 915 256 946 279 915 b 469 986 421 915 444 946 l 499 1032 l 561 1001 b 350 828 536 925 499 828 "},"ǎ":{"ha":742,"x_min":0,"x_max":0,"o":"m 639 0 b 515 117 557 0 524 50 l 508 117 b 301 -17 478 29 401 -17 b 61 200 150 -17 61 67 b 367 410 61 335 158 410 l 508 410 l 508 481 b 339 638 508 582 453 638 b 157 531 253 638 196 596 l 90 593 b 344 733 129 669 215 733 b 619 492 517 733 619 643 l 619 97 l 701 97 l 701 0 m 319 78 b 508 208 429 78 508 135 l 508 326 l 361 326 b 178 218 235 326 178 288 l 178 189 b 319 78 178 118 233 78 m 281 832 l 126 1031 l 188 1074 l 350 911 l 513 1074 l 574 1031 l 419 832 "},"â":{"ha":742,"x_min":0,"x_max":0,"o":"m 639 0 b 515 117 557 0 524 50 l 508 117 b 301 -17 478 29 401 -17 b 61 200 150 -17 61 67 b 367 410 61 335 158 410 l 508 410 l 508 481 b 339 638 508 582 453 638 b 157 531 253 638 196 596 l 90 593 b 344 733 129 669 215 733 b 619 492 517 733 619 643 l 619 97 l 701 97 l 701 0 m 319 78 b 508 208 429 78 508 135 l 508 326 l 361 326 b 178 218 235 326 178 288 l 178 189 b 319 78 178 118 233 78 m 419 1063 l 574 864 l 513 821 l 350 983 l 188 821 l 126 864 l 281 1063 "},"ä":{"ha":742,"x_min":0,"x_max":0,"o":"m 639 0 b 515 117 557 0 524 50 l 508 117 b 301 -17 478 29 401 -17 b 61 200 150 -17 61 67 b 367 410 61 335 158 410 l 508 410 l 508 481 b 339 638 508 582 453 638 b 157 531 253 638 196 596 l 90 593 b 344 733 129 669 215 733 b 619 492 517 733 619 643 l 619 97 l 701 97 l 701 0 m 319 78 b 508 208 429 78 508 135 l 508 326 l 361 326 b 178 218 235 326 178 288 l 178 189 b 319 78 178 118 233 78 m 221 858 b 153 922 174 858 153 883 l 153 938 b 221 1001 153 976 174 1001 b 289 938 268 1001 289 976 l 289 922 b 221 858 289 883 268 858 m 479 858 b 411 922 432 858 411 883 l 411 938 b 479 1001 411 976 432 1001 b 547 938 526 1001 547 976 l 547 922 b 479 858 547 883 526 858 "},"ạ":{"ha":742,"x_min":0,"x_max":0,"o":"m 639 0 b 515 117 557 0 524 50 l 508 117 b 301 -17 478 29 401 -17 b 61 200 150 -17 61 67 b 367 410 61 335 158 410 l 508 410 l 508 481 b 339 638 508 582 453 638 b 157 531 253 638 196 596 l 90 593 b 344 733 129 669 215 733 b 619 492 517 733 619 643 l 619 97 l 701 97 l 701 0 m 319 78 b 508 208 429 78 508 135 l 508 326 l 361 326 b 178 218 235 326 178 288 l 178 189 b 319 78 178 118 233 78 m 340 -235 b 269 -171 293 -235 269 -210 l 269 -156 b 340 -92 269 -117 293 -92 b 411 -156 388 -92 411 -117 l 411 -171 b 340 -235 411 -210 388 -235 "},"à":{"ha":742,"x_min":0,"x_max":0,"o":"m 639 0 b 515 117 557 0 524 50 l 508 117 b 301 -17 478 29 401 -17 b 61 200 150 -17 61 67 b 367 410 61 335 158 410 l 508 410 l 508 481 b 339 638 508 582 453 638 b 157 531 253 638 196 596 l 90 593 b 344 733 129 669 215 733 b 619 492 517 733 619 643 l 619 97 l 701 97 l 701 0 m 319 78 b 508 208 429 78 508 135 l 508 326 l 361 326 b 178 218 235 326 178 288 l 178 189 b 319 78 178 118 233 78 m 193 1033 l 294 1082 l 413 846 l 340 813 "},"ả":{"ha":742,"x_min":0,"x_max":0,"o":"m 639 0 b 515 117 557 0 524 50 l 508 117 b 301 -17 478 29 401 -17 b 61 200 150 -17 61 67 b 367 410 61 335 158 410 l 508 410 l 508 481 b 339 638 508 582 453 638 b 157 531 253 638 196 596 l 90 593 b 344 733 129 669 215 733 b 619 492 517 733 619 643 l 619 97 l 701 97 l 701 0 m 319 78 b 508 208 429 78 508 135 l 508 326 l 361 326 b 178 218 235 326 178 288 l 178 189 b 319 78 178 118 233 78 m 233 1063 l 385 1063 b 482 986 456 1063 482 1028 b 414 843 482 946 457 897 l 381 801 l 317 833 l 397 978 l 233 978 "},"ā":{"ha":742,"x_min":0,"x_max":0,"o":"m 639 0 b 515 117 557 0 524 50 l 508 117 b 301 -17 478 29 401 -17 b 61 200 150 -17 61 67 b 367 410 61 335 158 410 l 508 410 l 508 481 b 339 638 508 582 453 638 b 157 531 253 638 196 596 l 90 593 b 344 733 129 669 215 733 b 619 492 517 733 619 643 l 619 97 l 701 97 l 701 0 m 319 78 b 508 208 429 78 508 135 l 508 326 l 361 326 b 178 218 235 326 178 288 l 178 189 b 319 78 178 118 233 78 m 156 979 l 544 979 l 544 885 l 156 885 "},"ą":{"ha":742,"x_min":0,"x_max":0,"o":"m 701 0 b 565 -171 583 -108 565 -140 b 608 -212 565 -201 583 -212 b 675 -179 635 -212 658 -200 l 731 -233 b 608 -287 714 -262 672 -287 b 476 -182 536 -287 476 -256 b 618 -3 476 -111 542 -58 l 617 1 b 515 117 551 10 522 57 l 508 117 b 301 -17 478 29 401 -17 b 61 200 150 -17 61 67 b 367 410 61 335 158 410 l 508 410 l 508 481 b 339 638 508 582 453 638 b 157 531 253 638 196 596 l 90 593 b 344 733 129 669 215 733 b 619 492 517 733 619 643 l 619 97 l 701 97 m 361 326 b 178 218 235 326 178 288 l 178 189 b 319 78 178 118 233 78 b 508 208 429 78 508 135 l 508 326 "},"å":{"ha":742,"x_min":0,"x_max":0,"o":"m 639 0 b 515 117 557 0 524 50 l 508 117 b 301 -17 478 29 401 -17 b 61 200 150 -17 61 67 b 367 410 61 335 158 410 l 508 410 l 508 481 b 339 638 508 582 453 638 b 157 531 253 638 196 596 l 90 593 b 344 733 129 669 215 733 b 619 492 517 733 619 643 l 619 97 l 701 97 l 701 0 m 319 78 b 508 208 429 78 508 135 l 508 326 l 361 326 b 178 218 235 326 178 288 l 178 189 b 319 78 178 118 233 78 m 350 800 b 189 960 260 800 189 868 b 350 1119 189 1051 260 1119 b 511 960 440 1119 511 1051 b 350 800 511 868 440 800 m 350 868 b 431 944 400 868 431 896 l 431 975 b 350 1051 431 1024 400 1051 b 269 975 300 1051 269 1024 l 269 944 b 350 868 269 896 300 868 "},"ǻ":{"ha":742,"x_min":0,"x_max":0,"o":"m 639 0 b 515 117 557 0 524 50 l 508 117 b 301 -17 478 29 401 -17 b 61 200 150 -17 61 67 b 367 410 61 335 158 410 l 508 410 l 508 481 b 339 638 508 582 453 638 b 157 531 253 638 196 596 l 90 593 b 344 733 129 669 215 733 b 619 492 517 733 619 643 l 619 97 l 701 97 l 701 0 m 319 78 b 508 208 429 78 508 135 l 508 326 l 361 326 b 178 218 235 326 178 288 l 178 189 b 319 78 178 118 233 78 m 365 1131 l 308 1167 l 413 1328 l 496 1276 m 350 786 b 189 946 260 786 189 854 b 350 1106 189 1038 260 1106 b 511 946 440 1106 511 1038 b 350 786 511 854 440 786 m 350 854 b 431 931 400 854 431 882 l 431 961 b 350 1038 431 1010 400 1038 b 269 961 300 1038 269 1010 l 269 931 b 350 854 269 882 300 854 "},"ã":{"ha":742,"x_min":0,"x_max":0,"o":"m 639 0 b 515 117 557 0 524 50 l 508 117 b 301 -17 478 29 401 -17 b 61 200 150 -17 61 67 b 367 410 61 335 158 410 l 508 410 l 508 481 b 339 638 508 582 453 638 b 157 531 253 638 196 596 l 90 593 b 344 733 129 669 215 733 b 619 492 517 733 619 643 l 619 97 l 701 97 l 701 0 m 319 78 b 508 208 429 78 508 135 l 508 326 l 361 326 b 178 218 235 326 178 288 l 178 189 b 319 78 178 118 233 78 m 451 850 b 340 886 403 850 369 871 b 243 919 296 910 267 919 b 163 882 213 919 190 906 l 117 938 b 249 1011 142 975 185 1011 b 360 975 297 1011 331 990 b 457 942 404 951 433 942 b 538 979 488 942 510 956 l 583 924 b 451 850 558 886 515 850 "},"ắ":{"ha":742,"x_min":0,"x_max":0,"o":"m 639 0 b 515 117 557 0 524 50 l 508 117 b 301 -17 478 29 401 -17 b 61 200 150 -17 61 67 b 367 410 61 335 158 410 l 508 410 l 508 481 b 339 638 508 582 453 638 b 157 531 253 638 196 596 l 90 593 b 344 733 129 669 215 733 b 619 492 517 733 619 643 l 619 97 l 701 97 l 701 0 m 319 78 b 508 208 429 78 508 135 l 508 326 l 361 326 b 178 218 235 326 178 288 l 178 189 b 319 78 178 118 233 78 m 350 813 b 136 988 201 813 161 911 l 199 1018 l 228 972 b 350 894 253 932 279 894 b 472 972 421 894 447 932 l 501 1018 l 564 988 b 350 813 539 911 499 813 m 356 969 l 288 1001 l 406 1238 l 503 1190 "},"ặ":{"ha":742,"x_min":0,"x_max":0,"o":"m 639 0 b 515 117 557 0 524 50 l 508 117 b 301 -17 478 29 401 -17 b 61 200 150 -17 61 67 b 367 410 61 335 158 410 l 508 410 l 508 481 b 339 638 508 582 453 638 b 157 531 253 638 196 596 l 90 593 b 344 733 129 669 215 733 b 619 492 517 733 619 643 l 619 97 l 701 97 l 701 0 m 319 78 b 508 208 429 78 508 135 l 508 326 l 361 326 b 178 218 235 326 178 288 l 178 189 b 319 78 178 118 233 78 m 350 828 b 139 1001 201 828 164 925 l 201 1032 l 231 986 b 350 915 256 946 279 915 b 469 986 421 915 444 946 l 499 1032 l 561 1001 b 350 828 536 925 499 828 m 340 -235 b 269 -171 293 -235 269 -210 l 269 -156 b 340 -92 269 -117 293 -92 b 411 -156 388 -92 411 -117 l 411 -171 b 340 -235 411 -210 388 -235 "},"ằ":{"ha":742,"x_min":0,"x_max":0,"o":"m 639 0 b 515 117 557 0 524 50 l 508 117 b 301 -17 478 29 401 -17 b 61 200 150 -17 61 67 b 367 410 61 335 158 410 l 508 410 l 508 481 b 339 638 508 582 453 638 b 157 531 253 638 196 596 l 90 593 b 344 733 129 669 215 733 b 619 492 517 733 619 643 l 619 97 l 701 97 l 701 0 m 319 78 b 508 208 429 78 508 135 l 508 326 l 361 326 b 178 218 235 326 178 288 l 178 189 b 319 78 178 118 233 78 m 350 813 b 136 988 201 813 161 911 l 199 1018 l 228 972 b 350 894 253 932 279 894 b 472 972 421 894 447 932 l 501 1018 l 564 988 b 350 813 539 911 499 813 m 197 1190 l 294 1238 l 413 1001 l 344 969 "},"ẳ":{"ha":742,"x_min":0,"x_max":0,"o":"m 639 0 b 515 117 557 0 524 50 l 508 117 b 301 -17 478 29 401 -17 b 61 200 150 -17 61 67 b 367 410 61 335 158 410 l 508 410 l 508 481 b 339 638 508 582 453 638 b 157 531 253 638 196 596 l 90 593 b 344 733 129 669 215 733 b 619 492 517 733 619 643 l 619 97 l 701 97 l 701 0 m 319 78 b 508 208 429 78 508 135 l 508 326 l 361 326 b 178 218 235 326 178 288 l 178 189 b 319 78 178 118 233 78 m 350 813 b 136 988 201 813 161 911 l 199 1018 l 228 972 b 350 894 253 932 279 894 b 472 972 421 894 447 932 l 501 1018 l 564 988 b 350 813 539 911 499 813 m 226 1222 l 357 1222 b 454 1146 428 1222 454 1188 b 386 1003 454 1106 429 1057 l 353 961 l 292 993 l 375 1142 l 226 1142 "},"ẵ":{"ha":742,"x_min":0,"x_max":0,"o":"m 639 0 b 515 117 557 0 524 50 l 508 117 b 301 -17 478 29 401 -17 b 61 200 150 -17 61 67 b 367 410 61 335 158 410 l 508 410 l 508 481 b 339 638 508 582 453 638 b 157 531 253 638 196 596 l 90 593 b 344 733 129 669 215 733 b 619 492 517 733 619 643 l 619 97 l 701 97 l 701 0 m 319 78 b 508 208 429 78 508 135 l 508 326 l 361 326 b 178 218 235 326 178 288 l 178 189 b 319 78 178 118 233 78 m 350 813 b 136 988 201 813 161 911 l 199 1018 l 228 972 b 350 894 253 932 279 894 b 472 972 421 894 447 932 l 501 1018 l 564 988 b 350 813 539 911 499 813 m 450 1072 b 339 1108 401 1072 368 1093 b 242 1142 294 1132 265 1142 b 161 1104 211 1142 189 1128 l 118 1154 b 250 1228 143 1192 186 1228 b 361 1192 299 1228 332 1207 b 458 1158 406 1168 435 1158 b 539 1196 489 1158 511 1172 l 582 1146 b 450 1072 557 1108 514 1072 "},"ấ":{"ha":742,"x_min":0,"x_max":0,"o":"m 639 0 b 515 117 557 0 524 50 l 508 117 b 301 -17 478 29 401 -17 b 61 200 150 -17 61 67 b 367 410 61 335 158 410 l 508 410 l 508 481 b 339 638 508 582 453 638 b 157 531 253 638 196 596 l 90 593 b 344 733 129 669 215 733 b 619 492 517 733 619 643 l 619 97 l 701 97 l 701 0 m 319 78 b 508 208 429 78 508 135 l 508 326 l 361 326 b 178 218 235 326 178 288 l 178 189 b 319 78 178 118 233 78 m 564 969 l 496 1001 l 614 1238 l 711 1190 m 419 1035 l 572 849 l 515 807 l 350 963 l 185 807 l 128 849 l 281 1035 "},"ậ":{"ha":742,"x_min":0,"x_max":0,"o":"m 639 0 b 515 117 557 0 524 50 l 508 117 b 301 -17 478 29 401 -17 b 61 200 150 -17 61 67 b 367 410 61 335 158 410 l 508 410 l 508 481 b 339 638 508 582 453 638 b 157 531 253 638 196 596 l 90 593 b 344 733 129 669 215 733 b 619 492 517 733 619 643 l 619 97 l 701 97 l 701 0 m 319 78 b 508 208 429 78 508 135 l 508 326 l 361 326 b 178 218 235 326 178 288 l 178 189 b 319 78 178 118 233 78 m 419 1063 l 574 864 l 513 821 l 350 983 l 188 821 l 126 864 l 281 1063 m 340 -235 b 269 -171 293 -235 269 -210 l 269 -156 b 340 -92 269 -117 293 -92 b 411 -156 388 -92 411 -117 l 411 -171 b 340 -235 411 -210 388 -235 "},"ầ":{"ha":742,"x_min":0,"x_max":0,"o":"m 639 0 b 515 117 557 0 524 50 l 508 117 b 301 -17 478 29 401 -17 b 61 200 150 -17 61 67 b 367 410 61 335 158 410 l 508 410 l 508 481 b 339 638 508 582 453 638 b 157 531 253 638 196 596 l 90 593 b 344 733 129 669 215 733 b 619 492 517 733 619 643 l 619 97 l 701 97 l 701 0 m 319 78 b 508 208 429 78 508 135 l 508 326 l 361 326 b 178 218 235 326 178 288 l 178 189 b 319 78 178 118 233 78 m -11 1190 l 86 1238 l 204 1001 l 136 969 m 419 1035 l 572 849 l 515 807 l 350 963 l 185 807 l 128 849 l 281 1035 "},"ẩ":{"ha":742,"x_min":0,"x_max":0,"o":"m 639 0 b 515 117 557 0 524 50 l 508 117 b 301 -17 478 29 401 -17 b 61 200 150 -17 61 67 b 367 410 61 335 158 410 l 508 410 l 508 481 b 339 638 508 582 453 638 b 157 531 253 638 196 596 l 90 593 b 344 733 129 669 215 733 b 619 492 517 733 619 643 l 619 97 l 701 97 l 701 0 m 319 78 b 508 208 429 78 508 135 l 508 326 l 361 326 b 178 218 235 326 178 288 l 178 189 b 319 78 178 118 233 78 m 419 1222 l 571 1222 b 668 1146 642 1222 668 1188 b 600 1003 668 1106 643 1057 l 567 961 l 506 993 l 589 1142 l 419 1142 m 419 1035 l 572 849 l 515 807 l 350 963 l 185 807 l 128 849 l 281 1035 "},"ẫ":{"ha":742,"x_min":0,"x_max":0,"o":"m 639 0 b 515 117 557 0 524 50 l 508 117 b 301 -17 478 29 401 -17 b 61 200 150 -17 61 67 b 367 410 61 335 158 410 l 508 410 l 508 481 b 339 638 508 582 453 638 b 157 531 253 638 196 596 l 90 593 b 344 733 129 669 215 733 b 619 492 517 733 619 643 l 619 97 l 701 97 l 701 0 m 319 78 b 508 208 429 78 508 135 l 508 326 l 361 326 b 178 218 235 326 178 288 l 178 189 b 319 78 178 118 233 78 m 250 1228 b 361 1192 299 1228 332 1207 b 458 1158 406 1168 435 1158 b 539 1196 489 1158 511 1172 l 582 1146 b 450 1072 557 1108 514 1072 b 339 1108 401 1072 368 1093 b 242 1142 294 1132 265 1142 b 161 1104 211 1142 189 1128 l 118 1154 b 250 1228 143 1192 186 1228 m 419 1035 l 572 849 l 515 807 l 350 963 l 185 807 l 128 849 l 281 1035 "},"æ":{"ha":1200,"x_min":0,"x_max":0,"o":"m 361 331 b 178 218 235 326 178 288 l 178 189 b 321 78 178 118 232 78 b 508 208 428 78 508 135 l 508 331 m 1015 414 l 1015 429 b 825 640 1015 556 939 640 b 619 424 704 640 619 549 l 619 414 m 832 81 b 1029 203 924 81 990 124 l 1108 147 b 838 -17 1063 49 961 -17 b 572 144 686 -17 588 81 l 564 144 b 299 -17 551 83 458 -17 b 61 197 154 -17 61 67 b 367 414 61 335 164 414 l 508 414 l 508 481 b 343 638 508 582 451 638 b 157 532 251 638 197 599 l 90 593 b 346 733 128 668 215 733 b 571 574 510 733 557 629 l 579 574 b 838 733 596 638 692 733 b 1135 383 1019 733 1135 586 l 1135 331 l 619 331 l 619 297 b 832 81 619 174 699 81 "},"ǽ":{"ha":1200,"x_min":0,"x_max":0,"o":"m 361 331 b 178 218 235 326 178 288 l 178 189 b 321 78 178 118 232 78 b 508 208 428 78 508 135 l 508 331 m 1015 414 l 1015 429 b 825 640 1015 556 939 640 b 619 424 704 640 619 549 l 619 414 m 832 81 b 1029 203 924 81 990 124 l 1108 147 b 838 -17 1063 49 961 -17 b 572 144 686 -17 588 81 l 564 144 b 299 -17 551 83 458 -17 b 61 197 154 -17 61 67 b 367 414 61 335 164 414 l 508 414 l 508 481 b 343 638 508 582 451 638 b 157 532 251 638 197 599 l 90 593 b 346 733 128 668 215 733 b 571 574 510 733 557 629 l 579 574 b 838 733 596 638 692 733 b 1135 383 1019 733 1135 586 l 1135 331 l 619 331 l 619 297 b 832 81 619 174 699 81 m 585 813 l 513 846 l 631 1082 l 732 1033 "},"ć":{"ha":699,"x_min":0,"x_max":0,"o":"m 385 -17 b 65 358 183 -17 65 129 b 385 733 65 588 183 733 b 653 565 526 733 611 664 l 560 518 b 385 635 533 592 472 635 b 185 419 253 635 185 544 l 185 297 b 385 82 185 172 253 82 b 579 207 475 82 540 125 l 660 153 b 385 -17 614 50 521 -17 m 393 813 l 321 846 l 439 1082 l 540 1033 "},"č":{"ha":699,"x_min":0,"x_max":0,"o":"m 385 -17 b 65 358 183 -17 65 129 b 385 733 65 588 183 733 b 653 565 526 733 611 664 l 560 518 b 385 635 533 592 472 635 b 185 419 253 635 185 544 l 185 297 b 385 82 185 172 253 82 b 579 207 475 82 540 125 l 660 153 b 385 -17 614 50 521 -17 m 314 832 l 160 1031 l 221 1074 l 383 911 l 546 1074 l 607 1031 l 453 832 "},"ç":{"ha":699,"x_min":0,"x_max":0,"o":"m 385 733 b 653 567 526 733 611 664 l 560 518 b 385 635 533 592 472 635 b 185 419 253 635 185 544 l 185 297 b 385 82 185 172 253 82 b 579 207 475 82 540 125 l 660 153 b 415 -15 618 58 535 -7 l 401 -85 l 406 -89 b 460 -81 424 -83 443 -81 b 554 -172 514 -81 554 -112 b 400 -287 554 -251 482 -287 b 263 -231 325 -287 282 -257 l 315 -174 b 400 -212 332 -194 360 -212 b 461 -169 435 -212 461 -199 b 367 -112 461 -144 444 -124 l 328 -107 l 346 -15 b 65 358 167 3 65 146 b 385 733 65 588 183 733 "},"ĉ":{"ha":699,"x_min":0,"x_max":0,"o":"m 385 -17 b 65 358 183 -17 65 129 b 385 733 65 588 183 733 b 653 565 526 733 611 664 l 560 518 b 385 635 533 592 472 635 b 185 419 253 635 185 544 l 185 297 b 385 82 185 172 253 82 b 579 207 475 82 540 125 l 660 153 b 385 -17 614 50 521 -17 m 453 1063 l 607 864 l 546 821 l 383 983 l 221 821 l 160 864 l 314 1063 "},"ċ":{"ha":699,"x_min":0,"x_max":0,"o":"m 385 -17 b 65 358 183 -17 65 129 b 385 733 65 588 183 733 b 653 565 526 733 611 664 l 560 518 b 385 635 533 592 472 635 b 185 419 253 635 185 544 l 185 297 b 385 82 185 172 253 82 b 579 207 475 82 540 125 l 660 153 b 385 -17 614 50 521 -17 m 383 856 b 313 919 336 856 313 881 l 313 935 b 383 999 313 974 336 999 b 454 935 431 999 454 974 l 454 919 b 383 856 454 881 431 856 "},"ď":{"ha":838,"x_min":0,"x_max":0,"o":"m 576 117 l 571 117 b 361 -17 528 28 460 -17 b 69 358 182 -17 69 129 b 361 733 69 588 182 733 b 571 600 460 733 533 690 l 576 600 l 576 1028 l 688 1028 l 688 0 l 576 0 m 392 83 b 576 229 493 83 576 136 l 576 496 b 392 633 576 575 493 633 b 189 419 267 633 189 547 l 189 297 b 392 83 189 169 267 83 m 843 771 l 769 771 l 786 1028 l 915 1028 "},"đ":{"ha":810,"x_min":0,"x_max":0,"o":"m 576 117 l 571 117 b 361 -17 528 28 460 -17 b 69 358 182 -17 69 129 b 361 733 69 588 182 733 b 571 600 460 733 533 690 l 576 600 l 576 844 l 368 844 l 368 931 l 576 931 l 576 1028 l 688 1028 l 688 931 l 776 931 l 776 844 l 688 844 l 688 0 l 576 0 m 392 83 b 576 229 493 83 576 136 l 576 496 b 392 633 576 575 493 633 b 189 419 267 633 189 547 l 189 297 b 392 83 189 169 267 83 "},"ð":{"ha":771,"x_min":0,"x_max":0,"o":"m 581 989 l 472 911 b 701 376 589 797 701 621 b 383 -17 701 117 569 -17 b 65 342 188 -17 65 131 b 383 700 65 553 188 700 b 564 564 474 700 536 649 l 569 567 b 392 854 550 672 481 771 l 282 776 l 239 833 l 336 903 b 154 1028 278 950 215 992 l 325 1028 b 417 961 353 1011 385 989 l 535 1046 m 383 79 b 582 296 503 79 582 164 l 582 388 b 383 604 582 519 503 604 b 185 388 264 604 185 519 l 185 296 b 383 79 185 164 264 79 "},"é":{"ha":763,"x_min":0,"x_max":0,"o":"m 388 -17 b 65 358 193 -17 65 131 b 388 733 65 586 193 733 b 697 383 579 733 697 586 l 697 331 l 182 331 l 182 297 b 394 81 182 174 261 81 b 592 204 485 81 554 125 l 671 147 b 388 -17 625 50 522 -17 m 388 640 b 182 424 267 640 182 549 l 182 414 l 578 414 l 578 429 b 388 640 578 556 501 640 m 397 813 l 325 846 l 443 1082 l 544 1033 "},"ĕ":{"ha":763,"x_min":0,"x_max":0,"o":"m 388 -17 b 65 358 193 -17 65 131 b 388 733 65 586 193 733 b 697 383 579 733 697 586 l 697 331 l 182 331 l 182 297 b 394 81 182 174 261 81 b 592 204 485 81 554 125 l 671 147 b 388 -17 625 50 522 -17 m 388 640 b 182 424 267 640 182 549 l 182 414 l 578 414 l 578 429 b 388 640 578 556 501 640 m 388 828 b 176 1001 239 828 201 925 l 239 1032 l 268 986 b 388 915 293 946 317 915 b 507 986 458 915 482 946 l 536 1032 l 599 1001 b 388 828 574 925 536 828 "},"ě":{"ha":763,"x_min":0,"x_max":0,"o":"m 388 -17 b 65 358 193 -17 65 131 b 388 733 65 586 193 733 b 697 383 579 733 697 586 l 697 331 l 182 331 l 182 297 b 394 81 182 174 261 81 b 592 204 485 81 554 125 l 671 147 b 388 -17 625 50 522 -17 m 388 640 b 182 424 267 640 182 549 l 182 414 l 578 414 l 578 429 b 388 640 578 556 501 640 m 318 832 l 164 1031 l 225 1074 l 388 911 l 550 1074 l 611 1031 l 457 832 "},"ê":{"ha":763,"x_min":0,"x_max":0,"o":"m 388 -17 b 65 358 193 -17 65 131 b 388 733 65 586 193 733 b 697 383 579 733 697 586 l 697 331 l 182 331 l 182 297 b 394 81 182 174 261 81 b 592 204 485 81 554 125 l 671 147 b 388 -17 625 50 522 -17 m 388 640 b 182 424 267 640 182 549 l 182 414 l 578 414 l 578 429 b 388 640 578 556 501 640 m 457 1063 l 611 864 l 550 821 l 388 983 l 225 821 l 164 864 l 318 1063 "},"ë":{"ha":763,"x_min":0,"x_max":0,"o":"m 388 -17 b 65 358 193 -17 65 131 b 388 733 65 586 193 733 b 697 383 579 733 697 586 l 697 331 l 182 331 l 182 297 b 394 81 182 174 261 81 b 592 204 485 81 554 125 l 671 147 b 388 -17 625 50 522 -17 m 388 640 b 182 424 267 640 182 549 l 182 414 l 578 414 l 578 429 b 388 640 578 556 501 640 m 258 858 b 190 922 211 858 190 883 l 190 938 b 258 1001 190 976 211 1001 b 326 938 306 1001 326 976 l 326 922 b 258 858 326 883 306 858 m 517 858 b 449 922 469 858 449 883 l 449 938 b 517 1001 449 976 469 1001 b 585 938 564 1001 585 976 l 585 922 b 517 858 585 883 564 858 "},"ė":{"ha":763,"x_min":0,"x_max":0,"o":"m 388 -17 b 65 358 193 -17 65 131 b 388 733 65 586 193 733 b 697 383 579 733 697 586 l 697 331 l 182 331 l 182 297 b 394 81 182 174 261 81 b 592 204 485 81 554 125 l 671 147 b 388 -17 625 50 522 -17 m 388 640 b 182 424 267 640 182 549 l 182 414 l 578 414 l 578 429 b 388 640 578 556 501 640 m 388 856 b 317 919 340 856 317 881 l 317 935 b 388 999 317 974 340 999 b 458 935 435 999 458 974 l 458 919 b 388 856 458 881 435 856 "},"ẹ":{"ha":763,"x_min":0,"x_max":0,"o":"m 388 -17 b 65 358 193 -17 65 131 b 388 733 65 586 193 733 b 697 383 579 733 697 586 l 697 331 l 182 331 l 182 297 b 394 81 182 174 261 81 b 592 204 485 81 554 125 l 671 147 b 388 -17 625 50 522 -17 m 388 640 b 182 424 267 640 182 549 l 182 414 l 578 414 l 578 429 b 388 640 578 556 501 640 m 393 -235 b 322 -171 346 -235 322 -210 l 322 -156 b 393 -92 322 -117 346 -92 b 464 -156 440 -92 464 -117 l 464 -171 b 393 -235 464 -210 440 -235 "},"è":{"ha":763,"x_min":0,"x_max":0,"o":"m 388 -17 b 65 358 193 -17 65 131 b 388 733 65 586 193 733 b 697 383 579 733 697 586 l 697 331 l 182 331 l 182 297 b 394 81 182 174 261 81 b 592 204 485 81 554 125 l 671 147 b 388 -17 625 50 522 -17 m 388 640 b 182 424 267 640 182 549 l 182 414 l 578 414 l 578 429 b 388 640 578 556 501 640 m 231 1033 l 332 1082 l 450 846 l 378 813 "},"ẻ":{"ha":763,"x_min":0,"x_max":0,"o":"m 388 -17 b 65 358 193 -17 65 131 b 388 733 65 586 193 733 b 697 383 579 733 697 586 l 697 331 l 182 331 l 182 297 b 394 81 182 174 261 81 b 592 204 485 81 554 125 l 671 147 b 388 -17 625 50 522 -17 m 388 640 b 182 424 267 640 182 549 l 182 414 l 578 414 l 578 429 b 388 640 578 556 501 640 m 271 1063 l 422 1063 b 519 986 493 1063 519 1028 b 451 843 519 946 494 897 l 418 801 l 354 833 l 435 978 l 271 978 "},"ē":{"ha":763,"x_min":0,"x_max":0,"o":"m 388 -17 b 65 358 193 -17 65 131 b 388 733 65 586 193 733 b 697 383 579 733 697 586 l 697 331 l 182 331 l 182 297 b 394 81 182 174 261 81 b 592 204 485 81 554 125 l 671 147 b 388 -17 625 50 522 -17 m 388 640 b 182 424 267 640 182 549 l 182 414 l 578 414 l 578 429 b 388 640 578 556 501 640 m 193 979 l 582 979 l 582 885 l 193 885 "},"ę":{"ha":763,"x_min":0,"x_max":0,"o":"m 494 -287 b 364 -181 422 -287 364 -256 b 506 0 364 -97 439 -43 l 500 7 b 388 -17 476 -6 440 -17 b 65 358 193 -17 65 131 b 388 733 65 586 193 733 b 697 383 579 733 697 586 l 697 331 l 182 331 l 182 297 b 394 81 182 174 261 81 b 592 204 485 81 554 125 l 671 147 b 624 74 656 117 643 97 b 453 -169 569 4 453 -86 b 496 -212 453 -201 471 -212 b 563 -179 521 -212 546 -200 l 617 -233 b 494 -287 600 -262 560 -287 m 578 414 l 578 429 b 388 640 578 556 501 640 b 182 424 267 640 182 549 l 182 414 "},"ẽ":{"ha":763,"x_min":0,"x_max":0,"o":"m 388 -17 b 65 358 193 -17 65 131 b 388 733 65 586 193 733 b 697 383 579 733 697 586 l 697 331 l 182 331 l 182 297 b 394 81 182 174 261 81 b 592 204 485 81 554 125 l 671 147 b 388 -17 625 50 522 -17 m 388 640 b 182 424 267 640 182 549 l 182 414 l 578 414 l 578 429 b 388 640 578 556 501 640 m 489 850 b 378 886 440 850 407 871 b 281 919 333 910 304 919 b 200 882 250 919 228 906 l 154 938 b 286 1011 179 975 222 1011 b 397 975 335 1011 368 990 b 494 942 442 951 471 942 b 575 979 525 942 547 956 l 621 924 b 489 850 596 886 553 850 "},"ế":{"ha":763,"x_min":0,"x_max":0,"o":"m 388 -17 b 65 358 193 -17 65 131 b 388 733 65 586 193 733 b 697 383 579 733 697 586 l 697 331 l 182 331 l 182 297 b 394 81 182 174 261 81 b 592 204 485 81 554 125 l 671 147 b 388 -17 625 50 522 -17 m 388 640 b 182 424 267 640 182 549 l 182 414 l 578 414 l 578 429 b 388 640 578 556 501 640 m 601 969 l 533 1001 l 651 1238 l 749 1190 m 457 1035 l 610 849 l 553 807 l 388 963 l 222 807 l 165 849 l 318 1035 "},"ệ":{"ha":763,"x_min":0,"x_max":0,"o":"m 388 -17 b 65 358 193 -17 65 131 b 388 733 65 586 193 733 b 697 383 579 733 697 586 l 697 331 l 182 331 l 182 297 b 394 81 182 174 261 81 b 592 204 485 81 554 125 l 671 147 b 388 -17 625 50 522 -17 m 388 640 b 182 424 267 640 182 549 l 182 414 l 578 414 l 578 429 b 388 640 578 556 501 640 m 457 1063 l 611 864 l 550 821 l 388 983 l 225 821 l 164 864 l 318 1063 m 393 -235 b 322 -171 346 -235 322 -210 l 322 -156 b 393 -92 322 -117 346 -92 b 464 -156 440 -92 464 -117 l 464 -171 b 393 -235 464 -210 440 -235 "},"ề":{"ha":763,"x_min":0,"x_max":0,"o":"m 388 -17 b 65 358 193 -17 65 131 b 388 733 65 586 193 733 b 697 383 579 733 697 586 l 697 331 l 182 331 l 182 297 b 394 81 182 174 261 81 b 592 204 485 81 554 125 l 671 147 b 388 -17 625 50 522 -17 m 388 640 b 182 424 267 640 182 549 l 182 414 l 578 414 l 578 429 b 388 640 578 556 501 640 m 26 1190 l 124 1238 l 242 1001 l 174 969 m 457 1035 l 610 849 l 553 807 l 388 963 l 222 807 l 165 849 l 318 1035 "},"ể":{"ha":763,"x_min":0,"x_max":0,"o":"m 388 -17 b 65 358 193 -17 65 131 b 388 733 65 586 193 733 b 697 383 579 733 697 586 l 697 331 l 182 331 l 182 297 b 394 81 182 174 261 81 b 592 204 485 81 554 125 l 671 147 b 388 -17 625 50 522 -17 m 388 640 b 182 424 267 640 182 549 l 182 414 l 578 414 l 578 429 b 388 640 578 556 501 640 m 457 1222 l 608 1222 b 706 1146 679 1222 706 1188 b 638 1003 706 1106 681 1057 l 604 961 l 543 993 l 626 1142 l 457 1142 m 457 1035 l 610 849 l 553 807 l 388 963 l 222 807 l 165 849 l 318 1035 "},"ễ":{"ha":763,"x_min":0,"x_max":0,"o":"m 388 -17 b 65 358 193 -17 65 131 b 388 733 65 586 193 733 b 697 383 579 733 697 586 l 697 331 l 182 331 l 182 297 b 394 81 182 174 261 81 b 592 204 485 81 554 125 l 671 147 b 388 -17 625 50 522 -17 m 388 640 b 182 424 267 640 182 549 l 182 414 l 578 414 l 578 429 b 388 640 578 556 501 640 m 288 1228 b 399 1192 336 1228 369 1207 b 496 1158 443 1168 472 1158 b 576 1196 526 1158 549 1172 l 619 1146 b 488 1072 594 1108 551 1072 b 376 1108 439 1072 406 1093 b 279 1142 332 1132 303 1142 b 199 1104 249 1142 226 1128 l 156 1154 b 288 1228 181 1192 224 1228 m 457 1035 l 610 849 l 553 807 l 388 963 l 222 807 l 165 849 l 318 1035 "},"ə":{"ha":763,"x_min":0,"x_max":0,"o":"m 581 386 l 581 419 b 368 636 581 543 501 636 b 171 513 278 636 208 592 l 92 569 b 375 733 138 667 240 733 b 697 358 569 733 697 586 b 375 -17 697 131 569 -17 b 65 333 183 -17 65 131 l 65 386 m 185 288 b 375 76 185 161 261 76 b 581 293 496 76 581 168 l 581 303 l 185 303 "},"ğ":{"ha":738,"x_min":0,"x_max":0,"o":"m 722 -79 b 375 -294 722 -226 606 -294 b 60 -118 151 -294 60 -231 b 174 21 60 -40 103 1 l 174 36 b 110 136 133 56 110 88 b 233 261 110 208 161 243 l 233 267 b 99 486 149 307 99 386 b 368 733 99 632 206 733 b 476 717 407 733 444 728 l 700 717 l 700 628 l 589 628 b 640 486 621 592 640 544 b 369 239 640 340 533 239 b 300 246 346 239 321 242 b 206 165 253 233 206 210 b 315 111 206 122 250 111 l 468 111 b 722 -79 646 111 722 39 m 369 328 b 524 467 464 328 524 372 l 524 506 b 369 644 524 600 464 644 b 215 506 275 644 215 600 l 215 467 b 369 328 215 372 275 328 m 618 -87 b 469 7 618 -31 581 7 l 231 7 b 164 -90 185 -14 164 -46 b 319 -204 164 -153 207 -204 l 422 -204 b 618 -87 546 -204 618 -165 m 369 828 b 158 1001 221 828 183 925 l 221 1032 l 250 986 b 369 915 275 946 299 915 b 489 986 440 915 464 946 l 518 1032 l 581 1001 b 369 828 556 925 518 828 "},"ĝ":{"ha":738,"x_min":0,"x_max":0,"o":"m 722 -79 b 375 -294 722 -226 606 -294 b 60 -118 151 -294 60 -231 b 174 21 60 -40 103 1 l 174 36 b 110 136 133 56 110 88 b 233 261 110 208 161 243 l 233 267 b 99 486 149 307 99 386 b 368 733 99 632 206 733 b 476 717 407 733 444 728 l 700 717 l 700 628 l 589 628 b 640 486 621 592 640 544 b 369 239 640 340 533 239 b 300 246 346 239 321 242 b 206 165 253 233 206 210 b 315 111 206 122 250 111 l 468 111 b 722 -79 646 111 722 39 m 369 328 b 524 467 464 328 524 372 l 524 506 b 369 644 524 600 464 644 b 215 506 275 644 215 600 l 215 467 b 369 328 215 372 275 328 m 618 -87 b 469 7 618 -31 581 7 l 231 7 b 164 -90 185 -14 164 -46 b 319 -204 164 -153 207 -204 l 422 -204 b 618 -87 546 -204 618 -165 m 439 1063 l 593 864 l 532 821 l 369 983 l 207 821 l 146 864 l 300 1063 "},"ģ":{"ha":738,"x_min":0,"x_max":0,"o":"m 722 -79 b 375 -294 722 -226 606 -294 b 60 -118 151 -294 60 -231 b 174 21 60 -40 103 1 l 174 36 b 110 136 133 56 110 88 b 233 261 110 208 161 243 l 233 267 b 99 486 149 307 99 386 b 368 733 99 632 206 733 b 476 717 407 733 444 728 l 700 717 l 700 628 l 589 628 b 640 486 621 592 640 544 b 369 239 640 340 533 239 b 300 246 346 239 321 242 b 206 165 253 233 206 210 b 315 111 206 122 250 111 l 468 111 b 722 -79 646 111 722 39 m 369 328 b 524 467 464 328 524 372 l 524 506 b 369 644 524 600 464 644 b 215 506 275 644 215 600 l 215 467 b 369 328 215 372 275 328 m 618 -87 b 469 7 618 -31 581 7 l 231 7 b 164 -90 185 -14 164 -46 b 319 -204 164 -153 207 -204 l 422 -204 b 618 -87 546 -204 618 -165 m 371 826 b 300 892 325 826 300 851 l 300 907 b 383 1075 300 972 339 1033 l 464 1075 b 393 967 426 1036 406 1010 b 442 906 425 960 442 936 l 442 892 b 371 826 442 851 417 826 "},"ġ":{"ha":738,"x_min":0,"x_max":0,"o":"m 722 -79 b 375 -294 722 -226 606 -294 b 60 -118 151 -294 60 -231 b 174 21 60 -40 103 1 l 174 36 b 110 136 133 56 110 88 b 233 261 110 208 161 243 l 233 267 b 99 486 149 307 99 386 b 368 733 99 632 206 733 b 476 717 407 733 444 728 l 700 717 l 700 628 l 589 628 b 640 486 621 592 640 544 b 369 239 640 340 533 239 b 300 246 346 239 321 242 b 206 165 253 233 206 210 b 315 111 206 122 250 111 l 468 111 b 722 -79 646 111 722 39 m 369 328 b 524 467 464 328 524 372 l 524 506 b 369 644 524 600 464 644 b 215 506 275 644 215 600 l 215 467 b 369 328 215 372 275 328 m 618 -87 b 469 7 618 -31 581 7 l 231 7 b 164 -90 185 -14 164 -46 b 319 -204 164 -153 207 -204 l 422 -204 b 618 -87 546 -204 618 -165 m 369 856 b 299 919 322 856 299 881 l 299 935 b 369 999 299 974 322 999 b 440 935 417 999 440 974 l 440 919 b 369 856 440 881 417 856 "},"ħ":{"ha":789,"x_min":0,"x_max":0,"o":"m 118 0 l 118 844 l 29 844 l 29 931 l 118 931 l 118 1028 l 229 1028 l 229 931 l 438 931 l 438 844 l 229 844 l 229 600 l 235 600 b 438 733 269 681 331 733 b 678 460 585 733 678 633 l 678 0 l 567 0 l 567 440 b 404 633 567 568 511 633 b 229 497 315 633 229 589 l 229 0 "},"ĥ":{"ha":789,"x_min":0,"x_max":0,"o":"m 118 1028 l 229 1028 l 229 600 l 235 600 b 438 733 269 681 331 733 b 678 460 585 733 678 633 l 678 0 l 567 0 l 567 440 b 404 633 567 568 511 633 b 229 497 315 633 229 589 l 229 0 l 118 0 m 246 1282 l 400 1083 l 339 1040 l 176 1203 l 14 1040 l -47 1083 l 107 1282 "},"ı":{"ha":347,"x_min":0,"x_max":0,"o":"m 118 0 l 118 717 l 229 717 l 229 0 "},"í":{"ha":347,"x_min":0,"x_max":0,"o":"m 118 0 l 118 717 l 229 717 l 229 0 m 183 813 l 111 846 l 229 1082 l 331 1033 "},"ĭ":{"ha":347,"x_min":0,"x_max":0,"o":"m 118 0 l 118 717 l 229 717 l 229 0 m 174 828 b -37 1001 25 828 -12 925 l 25 1032 l 54 986 b 174 915 79 946 103 915 b 293 986 244 915 268 946 l 322 1032 l 385 1001 b 174 828 360 925 322 828 "},"ǐ":{"ha":347,"x_min":0,"x_max":0,"o":"m 118 0 l 118 717 l 229 717 l 229 0 m 104 832 l -50 1031 l 11 1074 l 174 911 l 336 1074 l 397 1031 l 243 832 "},"î":{"ha":347,"x_min":0,"x_max":0,"o":"m 118 0 l 118 717 l 229 717 l 229 0 m 243 1063 l 397 864 l 336 821 l 174 983 l 11 821 l -50 864 l 104 1063 "},"ï":{"ha":347,"x_min":0,"x_max":0,"o":"m 118 0 l 118 717 l 229 717 l 229 0 m 44 858 b -24 922 -3 858 -24 883 l -24 938 b 44 1001 -24 976 -3 1001 b 113 938 92 1001 113 976 l 113 922 b 44 858 113 883 92 858 m 303 858 b 235 922 256 858 235 883 l 235 938 b 303 1001 235 976 256 1001 b 371 938 350 1001 371 976 l 371 922 b 303 858 371 883 350 858 "},"ị":{"ha":347,"x_min":0,"x_max":0,"o":"m 174 885 b 106 947 126 885 106 910 l 106 965 b 174 1028 106 1003 126 1028 b 242 965 221 1028 242 1003 l 242 947 b 174 885 242 910 221 885 m 118 717 l 229 717 l 229 0 l 118 0 m 174 -235 b 103 -171 126 -235 103 -210 l 103 -156 b 174 -92 103 -117 126 -92 b 244 -156 221 -92 244 -117 l 244 -171 b 174 -235 244 -210 221 -235 "},"ì":{"ha":347,"x_min":0,"x_max":0,"o":"m 118 0 l 118 717 l 229 717 l 229 0 m 17 1033 l 118 1082 l 236 846 l 164 813 "},"ỉ":{"ha":347,"x_min":0,"x_max":0,"o":"m 118 0 l 118 717 l 229 717 l 229 0 m 57 1063 l 208 1063 b 306 986 279 1063 306 1028 b 238 843 306 946 281 897 l 204 801 l 140 833 l 221 978 l 57 978 "},"ī":{"ha":347,"x_min":0,"x_max":0,"o":"m 118 0 l 118 717 l 229 717 l 229 0 m -21 979 l 368 979 l 368 885 l -21 885 "},"į":{"ha":347,"x_min":0,"x_max":0,"o":"m 118 717 l 229 717 l 229 0 b 93 -171 111 -108 93 -140 b 136 -212 93 -201 111 -212 b 203 -179 163 -212 186 -200 l 258 -233 b 136 -287 242 -262 200 -287 b 4 -182 64 -287 4 -256 b 146 -6 4 -111 71 -60 l 143 0 l 118 0 m 174 885 b 106 947 126 885 106 910 l 106 965 b 174 1028 106 1003 126 1028 b 242 965 221 1028 242 1003 l 242 947 b 174 885 242 910 221 885 "},"ĩ":{"ha":347,"x_min":0,"x_max":0,"o":"m 118 0 l 118 717 l 229 717 l 229 0 m 275 850 b 164 886 226 850 193 871 b 67 919 119 910 90 919 b -14 882 36 919 14 906 l -60 938 b 72 1011 -35 975 8 1011 b 183 975 121 1011 154 990 b 281 942 228 951 257 942 b 361 979 311 942 333 956 l 407 924 b 275 850 382 886 339 850 "},"ĳ":{"ha":689,"x_min":0,"x_max":0,"o":"m 174 885 b 106 947 126 885 106 910 l 106 965 b 174 1028 106 1003 126 1028 b 242 965 221 1028 242 1003 l 242 947 b 174 885 242 910 221 885 m 118 717 l 229 717 l 229 0 l 118 0 m 460 717 l 571 717 l 571 -111 b 415 -278 571 -210 522 -278 l 343 -278 l 343 -181 l 460 -181 m 515 885 b 447 947 468 885 447 910 l 447 965 b 515 1028 447 1003 468 1028 b 583 965 563 1028 583 1003 l 583 947 b 515 885 583 910 563 885 "},"ȷ":{"ha":347,"x_min":0,"x_max":0,"o":"m 1 -181 l 118 -181 l 118 717 l 229 717 l 229 -111 b 74 -278 229 -210 181 -278 l 1 -278 "},"ĵ":{"ha":347,"x_min":0,"x_max":0,"o":"m 1 -181 l 118 -181 l 118 717 l 229 717 l 229 -111 b 74 -278 229 -210 181 -278 l 1 -278 m 243 1063 l 397 864 l 336 821 l 174 983 l 11 821 l -50 864 l 104 1063 "},"ķ":{"ha":732,"x_min":0,"x_max":0,"o":"m 118 1028 l 229 1028 l 229 376 l 235 376 l 344 499 l 547 717 l 682 717 l 417 433 l 708 0 l 574 0 l 336 365 l 229 256 l 229 0 l 118 0 m 406 -92 b 476 -157 451 -92 476 -117 l 476 -172 b 393 -340 476 -237 438 -299 l 313 -340 b 383 -232 350 -301 371 -275 b 335 -171 351 -225 335 -201 l 335 -157 b 406 -92 335 -117 360 -92 "},"ĸ":{"ha":732,"x_min":0,"x_max":0,"o":"m 336 365 l 229 256 l 229 0 l 118 0 l 118 717 l 229 717 l 229 379 l 235 379 l 346 501 l 550 717 l 686 717 l 417 436 l 708 0 l 574 0 "},"ĺ":{"ha":378,"x_min":0,"x_max":0,"o":"m 236 0 b 118 115 160 0 118 49 l 118 1028 l 229 1028 l 229 97 l 335 97 l 335 0 m 183 1090 l 111 1124 l 229 1360 l 331 1311 "},"ľ":{"ha":381,"x_min":0,"x_max":0,"o":"m 236 0 b 118 115 160 0 118 49 l 118 1028 l 229 1028 l 229 97 l 335 97 l 335 0 m 385 771 l 311 771 l 328 1028 l 457 1028 "},"ļ":{"ha":378,"x_min":0,"x_max":0,"o":"m 236 0 b 118 115 160 0 118 49 l 118 1028 l 229 1028 l 229 97 l 335 97 l 335 0 m 228 -92 b 299 -157 274 -92 299 -117 l 299 -172 b 215 -340 299 -237 260 -299 l 135 -340 b 206 -232 172 -301 193 -275 b 157 -171 174 -225 157 -201 l 157 -157 b 228 -92 157 -117 182 -92 "},"ŀ":{"ha":497,"x_min":0,"x_max":0,"o":"m 236 0 b 118 115 160 0 118 49 l 118 1028 l 229 1028 l 229 97 l 335 97 l 335 0 m 422 351 b 351 415 375 351 351 376 l 351 431 b 422 494 351 469 375 494 b 493 431 469 494 493 469 l 493 415 b 422 351 493 376 469 351 "},"ł":{"ha":386,"x_min":0,"x_max":0,"o":"m 339 0 l 240 0 b 122 115 164 0 122 49 l 122 451 l 25 419 l 25 514 l 122 546 l 122 1028 l 233 1028 l 233 583 l 376 631 l 376 536 l 233 489 l 233 97 l 339 97 "},"ń":{"ha":789,"x_min":0,"x_max":0,"o":"m 118 0 l 118 717 l 229 717 l 229 600 l 235 600 b 438 733 269 681 331 733 b 678 460 585 733 678 633 l 678 0 l 567 0 l 567 440 b 404 633 567 568 511 633 b 229 497 315 633 229 589 l 229 0 m 410 813 l 338 846 l 456 1082 l 557 1033 "},"ň":{"ha":789,"x_min":0,"x_max":0,"o":"m 118 0 l 118 717 l 229 717 l 229 600 l 235 600 b 438 733 269 681 331 733 b 678 460 585 733 678 633 l 678 0 l 567 0 l 567 440 b 404 633 567 568 511 633 b 229 497 315 633 229 589 l 229 0 m 331 832 l 176 1031 l 238 1074 l 400 911 l 563 1074 l 624 1031 l 469 832 "},"ņ":{"ha":789,"x_min":0,"x_max":0,"o":"m 118 0 l 118 717 l 229 717 l 229 600 l 235 600 b 438 733 269 681 331 733 b 678 460 585 733 678 633 l 678 0 l 567 0 l 567 440 b 404 633 567 568 511 633 b 229 497 315 633 229 589 l 229 0 m 399 -92 b 469 -157 444 -92 469 -117 l 469 -172 b 386 -340 469 -237 431 -299 l 306 -340 b 376 -232 343 -301 364 -275 b 328 -171 344 -225 328 -201 l 328 -157 b 399 -92 328 -117 353 -92 "},"ñ":{"ha":789,"x_min":0,"x_max":0,"o":"m 118 0 l 118 717 l 229 717 l 229 600 l 235 600 b 438 733 269 681 331 733 b 678 460 585 733 678 633 l 678 0 l 567 0 l 567 440 b 404 633 567 568 511 633 b 229 497 315 633 229 589 l 229 0 m 501 850 b 390 886 453 850 419 871 b 293 919 346 910 317 919 b 213 882 263 919 240 906 l 167 938 b 299 1011 192 975 235 1011 b 410 975 347 1011 381 990 b 507 942 454 951 483 942 b 588 979 538 942 560 956 l 633 924 b 501 850 608 886 565 850 "},"ŉ":{"ha":1126,"x_min":0,"x_max":0,"o":"m 456 0 l 456 717 l 567 717 l 567 600 l 572 600 b 775 733 607 681 668 733 b 1015 460 922 733 1015 633 l 1015 0 l 904 0 l 904 440 b 742 633 904 568 849 633 b 567 497 653 633 567 589 l 567 0 m 196 1042 b 281 960 254 1042 281 1008 l 281 940 b 154 694 281 865 233 763 l 61 694 b 165 867 117 753 150 801 b 111 940 128 875 111 903 l 111 960 b 196 1042 111 1008 138 1042 "},"ŋ":{"ha":789,"x_min":0,"x_max":0,"o":"m 450 -181 l 567 -181 l 567 440 b 404 633 567 568 511 633 b 229 497 315 633 229 589 l 229 0 l 118 0 l 118 717 l 229 717 l 229 600 l 235 600 b 438 733 269 681 331 733 b 678 460 585 733 678 633 l 678 -114 b 524 -278 678 -212 629 -278 l 450 -278 "},"ó":{"ha":778,"x_min":0,"x_max":0,"o":"m 389 -17 b 65 358 197 -17 65 131 b 389 733 65 586 197 733 b 713 358 581 733 713 586 b 389 -17 713 131 581 -17 m 389 82 b 593 307 508 82 593 156 l 593 410 b 389 635 593 561 508 635 b 185 410 269 635 185 561 l 185 307 b 389 82 185 156 269 82 m 399 813 l 326 846 l 444 1082 l 546 1033 "},"ŏ":{"ha":778,"x_min":0,"x_max":0,"o":"m 389 -17 b 65 358 197 -17 65 131 b 389 733 65 586 197 733 b 713 358 581 733 713 586 b 389 -17 713 131 581 -17 m 389 82 b 593 307 508 82 593 156 l 593 410 b 389 635 593 561 508 635 b 185 410 269 635 185 561 l 185 307 b 389 82 185 156 269 82 m 389 828 b 178 1001 240 828 203 925 l 240 1032 l 269 986 b 389 915 294 946 318 915 b 508 986 460 915 483 946 l 538 1032 l 600 1001 b 389 828 575 925 538 828 "},"ǒ":{"ha":778,"x_min":0,"x_max":0,"o":"m 389 -17 b 65 358 197 -17 65 131 b 389 733 65 586 197 733 b 713 358 581 733 713 586 b 389 -17 713 131 581 -17 m 389 82 b 593 307 508 82 593 156 l 593 410 b 389 635 593 561 508 635 b 185 410 269 635 185 561 l 185 307 b 389 82 185 156 269 82 m 319 832 l 165 1031 l 226 1074 l 389 911 l 551 1074 l 613 1031 l 458 832 "},"ô":{"ha":778,"x_min":0,"x_max":0,"o":"m 389 -17 b 65 358 197 -17 65 131 b 389 733 65 586 197 733 b 713 358 581 733 713 586 b 389 -17 713 131 581 -17 m 389 82 b 593 307 508 82 593 156 l 593 410 b 389 635 593 561 508 635 b 185 410 269 635 185 561 l 185 307 b 389 82 185 156 269 82 m 458 1063 l 613 864 l 551 821 l 389 983 l 226 821 l 165 864 l 319 1063 "},"ö":{"ha":778,"x_min":0,"x_max":0,"o":"m 389 -17 b 65 358 197 -17 65 131 b 389 733 65 586 197 733 b 713 358 581 733 713 586 b 389 -17 713 131 581 -17 m 389 82 b 593 307 508 82 593 156 l 593 410 b 389 635 593 561 508 635 b 185 410 269 635 185 561 l 185 307 b 389 82 185 156 269 82 m 260 858 b 192 922 213 858 192 883 l 192 938 b 260 1001 192 976 213 1001 b 328 938 307 1001 328 976 l 328 922 b 260 858 328 883 307 858 m 518 858 b 450 922 471 858 450 883 l 450 938 b 518 1001 450 976 471 1001 b 586 938 565 1001 586 976 l 586 922 b 518 858 586 883 565 858 "},"ọ":{"ha":778,"x_min":0,"x_max":0,"o":"m 389 -17 b 65 358 197 -17 65 131 b 389 733 65 586 197 733 b 713 358 581 733 713 586 b 389 -17 713 131 581 -17 m 389 82 b 593 307 508 82 593 156 l 593 410 b 389 635 593 561 508 635 b 185 410 269 635 185 561 l 185 307 b 389 82 185 156 269 82 m 389 -235 b 318 -171 342 -235 318 -210 l 318 -156 b 389 -92 318 -117 342 -92 b 460 -156 436 -92 460 -117 l 460 -171 b 389 -235 460 -210 436 -235 "},"ò":{"ha":778,"x_min":0,"x_max":0,"o":"m 389 -17 b 65 358 197 -17 65 131 b 389 733 65 586 197 733 b 713 358 581 733 713 586 b 389 -17 713 131 581 -17 m 389 82 b 593 307 508 82 593 156 l 593 410 b 389 635 593 561 508 635 b 185 410 269 635 185 561 l 185 307 b 389 82 185 156 269 82 m 232 1033 l 333 1082 l 451 846 l 379 813 "},"ỏ":{"ha":778,"x_min":0,"x_max":0,"o":"m 389 -17 b 65 358 197 -17 65 131 b 389 733 65 586 197 733 b 713 358 581 733 713 586 b 389 -17 713 131 581 -17 m 389 82 b 593 307 508 82 593 156 l 593 410 b 389 635 593 561 508 635 b 185 410 269 635 185 561 l 185 307 b 389 82 185 156 269 82 m 272 1063 l 424 1063 b 521 986 494 1063 521 1028 b 453 843 521 946 496 897 l 419 801 l 356 833 l 436 978 l 272 978 "},"ő":{"ha":778,"x_min":0,"x_max":0,"o":"m 389 -17 b 65 358 197 -17 65 131 b 389 733 65 586 197 733 b 713 358 581 733 713 586 b 389 -17 713 131 581 -17 m 389 82 b 593 307 508 82 593 156 l 593 410 b 389 635 593 561 508 635 b 185 410 269 635 185 561 l 185 307 b 389 82 185 156 269 82 m 288 814 l 221 844 l 339 1081 l 435 1035 m 510 814 l 443 844 l 561 1081 l 657 1035 "},"ō":{"ha":778,"x_min":0,"x_max":0,"o":"m 389 -17 b 65 358 197 -17 65 131 b 389 733 65 586 197 733 b 713 358 581 733 713 586 b 389 -17 713 131 581 -17 m 389 82 b 593 307 508 82 593 156 l 593 410 b 389 635 593 561 508 635 b 185 410 269 635 185 561 l 185 307 b 389 82 185 156 269 82 m 194 979 l 583 979 l 583 885 l 194 885 "},"ø":{"ha":789,"x_min":0,"x_max":0,"o":"m 49 -8 l 142 108 b 71 358 96 172 71 257 b 394 733 71 586 203 733 b 592 665 471 733 539 708 l 678 772 l 740 725 l 647 607 b 718 358 692 544 718 458 b 394 -17 718 131 586 -17 b 197 50 317 -17 250 7 l 111 -56 m 394 82 b 599 307 514 82 599 156 l 599 410 b 578 522 599 454 590 492 l 258 128 b 394 82 293 97 340 82 m 190 307 b 211 193 190 263 197 225 l 531 589 b 394 635 494 619 449 635 b 190 410 275 635 190 561 l 190 307 "},"ǿ":{"ha":789,"x_min":0,"x_max":0,"o":"m 49 -8 l 142 108 b 71 358 96 172 71 257 b 394 733 71 586 203 733 b 592 665 471 733 539 708 l 678 772 l 740 725 l 647 607 b 718 358 692 544 718 458 b 394 -17 718 131 586 -17 b 197 50 317 -17 250 7 l 111 -56 m 394 82 b 599 307 514 82 599 156 l 599 410 b 578 522 599 454 590 492 l 258 128 b 394 82 293 97 340 82 m 190 307 b 211 193 190 263 197 225 l 531 589 b 394 635 494 619 449 635 b 190 410 275 635 190 561 l 190 307 m 404 813 l 332 846 l 450 1082 l 551 1033 "},"õ":{"ha":778,"x_min":0,"x_max":0,"o":"m 389 -17 b 65 358 197 -17 65 131 b 389 733 65 586 197 733 b 713 358 581 733 713 586 b 389 -17 713 131 581 -17 m 389 82 b 593 307 508 82 593 156 l 593 410 b 389 635 593 561 508 635 b 185 410 269 635 185 561 l 185 307 b 389 82 185 156 269 82 m 490 850 b 379 886 442 850 408 871 b 282 919 335 910 306 919 b 201 882 251 919 229 906 l 156 938 b 288 1011 181 975 224 1011 b 399 975 336 1011 369 990 b 496 942 443 951 472 942 b 576 979 526 942 549 956 l 622 924 b 490 850 597 886 554 850 "},"ơ":{"ha":778,"x_min":0,"x_max":0,"o":"m 721 872 l 721 736 b 635 649 721 686 703 649 l 606 649 b 713 358 686 565 713 469 b 389 -17 713 131 581 -17 b 65 358 197 -17 65 131 b 389 733 65 586 197 733 b 494 717 426 733 463 728 l 622 717 l 622 872 m 389 82 b 593 307 508 82 593 156 l 593 410 b 389 635 593 561 508 635 b 185 410 269 635 185 561 l 185 307 b 389 82 185 156 269 82 "},"ớ":{"ha":778,"x_min":0,"x_max":0,"o":"m 721 872 l 721 736 b 635 649 721 686 703 649 l 606 649 b 713 358 686 565 713 469 b 389 -17 713 131 581 -17 b 65 358 197 -17 65 131 b 389 733 65 586 197 733 b 494 717 426 733 463 728 l 622 717 l 622 872 m 389 82 b 593 307 508 82 593 156 l 593 410 b 389 635 593 561 508 635 b 185 410 269 635 185 561 l 185 307 b 389 82 185 156 269 82 m 399 813 l 326 846 l 444 1082 l 546 1033 "},"ợ":{"ha":778,"x_min":0,"x_max":0,"o":"m 721 872 l 721 736 b 635 649 721 686 703 649 l 606 649 b 713 358 686 565 713 469 b 389 -17 713 131 581 -17 b 65 358 197 -17 65 131 b 389 733 65 586 197 733 b 494 717 426 733 463 728 l 622 717 l 622 872 m 389 82 b 593 307 508 82 593 156 l 593 410 b 389 635 593 561 508 635 b 185 410 269 635 185 561 l 185 307 b 389 82 185 156 269 82 m 389 -235 b 318 -171 342 -235 318 -210 l 318 -156 b 389 -92 318 -117 342 -92 b 460 -156 436 -92 460 -117 l 460 -171 b 389 -235 460 -210 436 -235 "},"ờ":{"ha":778,"x_min":0,"x_max":0,"o":"m 721 872 l 721 736 b 635 649 721 686 703 649 l 606 649 b 713 358 686 565 713 469 b 389 -17 713 131 581 -17 b 65 358 197 -17 65 131 b 389 733 65 586 197 733 b 494 717 426 733 463 728 l 622 717 l 622 872 m 389 82 b 593 307 508 82 593 156 l 593 410 b 389 635 593 561 508 635 b 185 410 269 635 185 561 l 185 307 b 389 82 185 156 269 82 m 232 1033 l 333 1082 l 451 846 l 379 813 "},"ở":{"ha":778,"x_min":0,"x_max":0,"o":"m 721 872 l 721 736 b 635 649 721 686 703 649 l 606 649 b 713 358 686 565 713 469 b 389 -17 713 131 581 -17 b 65 358 197 -17 65 131 b 389 733 65 586 197 733 b 494 717 426 733 463 728 l 622 717 l 622 872 m 389 82 b 593 307 508 82 593 156 l 593 410 b 389 635 593 561 508 635 b 185 410 269 635 185 561 l 185 307 b 389 82 185 156 269 82 m 272 1063 l 424 1063 b 521 986 494 1063 521 1028 b 453 843 521 946 496 897 l 419 801 l 356 833 l 436 978 l 272 978 "},"ỡ":{"ha":778,"x_min":0,"x_max":0,"o":"m 721 872 l 721 736 b 635 649 721 686 703 649 l 606 649 b 713 358 686 565 713 469 b 389 -17 713 131 581 -17 b 65 358 197 -17 65 131 b 389 733 65 586 197 733 b 494 717 426 733 463 728 l 622 717 l 622 872 m 389 82 b 593 307 508 82 593 156 l 593 410 b 389 635 593 561 508 635 b 185 410 269 635 185 561 l 185 307 b 389 82 185 156 269 82 m 476 856 b 379 886 433 856 404 874 b 300 914 344 904 325 914 b 221 876 271 914 247 900 l 175 932 b 301 1006 200 969 242 1006 b 399 975 344 1006 374 988 b 478 947 433 957 453 947 b 557 985 507 947 531 961 l 603 929 b 476 856 578 892 536 856 "},"ố":{"ha":778,"x_min":0,"x_max":0,"o":"m 389 -17 b 65 358 197 -17 65 131 b 389 733 65 586 197 733 b 713 358 581 733 713 586 b 389 -17 713 131 581 -17 m 389 82 b 593 307 508 82 593 156 l 593 410 b 389 635 593 561 508 635 b 185 410 269 635 185 561 l 185 307 b 389 82 185 156 269 82 m 603 969 l 535 1001 l 653 1238 l 750 1190 m 458 1035 l 611 849 l 554 807 l 389 963 l 224 807 l 167 849 l 319 1035 "},"ộ":{"ha":778,"x_min":0,"x_max":0,"o":"m 389 -17 b 65 358 197 -17 65 131 b 389 733 65 586 197 733 b 713 358 581 733 713 586 b 389 -17 713 131 581 -17 m 389 82 b 593 307 508 82 593 156 l 593 410 b 389 635 593 561 508 635 b 185 410 269 635 185 561 l 185 307 b 389 82 185 156 269 82 m 458 1063 l 613 864 l 551 821 l 389 983 l 226 821 l 165 864 l 319 1063 m 389 -235 b 318 -171 342 -235 318 -210 l 318 -156 b 389 -92 318 -117 342 -92 b 460 -156 436 -92 460 -117 l 460 -171 b 389 -235 460 -210 436 -235 "},"ồ":{"ha":778,"x_min":0,"x_max":0,"o":"m 389 -17 b 65 358 197 -17 65 131 b 389 733 65 586 197 733 b 713 358 581 733 713 586 b 389 -17 713 131 581 -17 m 389 82 b 593 307 508 82 593 156 l 593 410 b 389 635 593 561 508 635 b 185 410 269 635 185 561 l 185 307 b 389 82 185 156 269 82 m 28 1190 l 125 1238 l 243 1001 l 175 969 m 458 1035 l 611 849 l 554 807 l 389 963 l 224 807 l 167 849 l 319 1035 "},"ổ":{"ha":778,"x_min":0,"x_max":0,"o":"m 389 -17 b 65 358 197 -17 65 131 b 389 733 65 586 197 733 b 713 358 581 733 713 586 b 389 -17 713 131 581 -17 m 389 82 b 593 307 508 82 593 156 l 593 410 b 389 635 593 561 508 635 b 185 410 269 635 185 561 l 185 307 b 389 82 185 156 269 82 m 458 1222 l 610 1222 b 707 1146 681 1222 707 1188 b 639 1003 707 1106 682 1057 l 606 961 l 544 993 l 628 1142 l 458 1142 m 458 1035 l 611 849 l 554 807 l 389 963 l 224 807 l 167 849 l 319 1035 "},"ỗ":{"ha":778,"x_min":0,"x_max":0,"o":"m 389 -17 b 65 358 197 -17 65 131 b 389 733 65 586 197 733 b 713 358 581 733 713 586 b 389 -17 713 131 581 -17 m 389 82 b 593 307 508 82 593 156 l 593 410 b 389 635 593 561 508 635 b 185 410 269 635 185 561 l 185 307 b 389 82 185 156 269 82 m 289 1228 b 400 1192 338 1228 371 1207 b 497 1158 444 1168 474 1158 b 578 1196 528 1158 550 1172 l 621 1146 b 489 1072 596 1108 553 1072 b 378 1108 440 1072 407 1093 b 281 1142 333 1132 304 1142 b 200 1104 250 1142 228 1128 l 157 1154 b 289 1228 182 1192 225 1228 m 458 1035 l 611 849 l 554 807 l 389 963 l 224 807 l 167 849 l 319 1035 "},"œ":{"ha":1293,"x_min":0,"x_max":0,"o":"m 389 82 b 593 307 508 82 593 156 l 593 410 b 389 635 593 561 508 635 b 185 410 269 635 185 561 l 185 307 b 389 82 185 156 269 82 m 1108 414 l 1108 429 b 918 640 1108 556 1032 640 b 713 424 797 640 713 549 l 713 414 m 926 -17 b 657 143 788 -17 699 57 l 650 143 b 389 -17 608 51 508 -17 b 65 358 197 -17 65 131 b 389 733 65 586 197 733 b 650 574 511 733 606 676 l 658 574 b 918 733 699 671 792 733 b 1228 383 1107 733 1228 588 l 1228 331 l 713 331 l 713 297 b 925 81 713 174 792 81 b 1124 204 1017 81 1085 125 l 1201 147 b 926 -17 1156 50 1058 -17 "},"ŕ":{"ha":510,"x_min":0,"x_max":0,"o":"m 118 0 l 118 717 l 229 717 l 229 585 l 236 585 b 443 717 261 653 326 717 l 486 717 l 486 606 l 421 606 b 229 486 301 606 229 554 l 229 0 m 314 813 l 242 846 l 360 1082 l 461 1033 "},"ř":{"ha":510,"x_min":0,"x_max":0,"o":"m 118 0 l 118 717 l 229 717 l 229 585 l 236 585 b 443 717 261 653 326 717 l 486 717 l 486 606 l 421 606 b 229 486 301 606 229 554 l 229 0 m 235 832 l 81 1031 l 142 1074 l 304 911 l 467 1074 l 528 1031 l 374 832 "},"ŗ":{"ha":510,"x_min":0,"x_max":0,"o":"m 118 0 l 118 717 l 229 717 l 229 585 l 236 585 b 443 717 261 653 326 717 l 486 717 l 486 606 l 421 606 b 229 486 301 606 229 554 l 229 0 m 176 -92 b 247 -157 222 -92 247 -117 l 247 -172 b 164 -340 247 -237 208 -299 l 83 -340 b 154 -232 121 -301 142 -275 b 106 -171 122 -225 106 -201 l 106 -157 b 176 -92 106 -117 131 -92 "},"ś":{"ha":676,"x_min":0,"x_max":0,"o":"m 333 -17 b 50 124 201 -17 114 39 l 129 188 b 342 78 185 118 251 78 b 492 194 436 78 492 121 b 367 307 492 250 461 293 l 310 315 b 79 522 178 335 79 389 b 335 733 79 664 189 733 b 585 618 450 733 526 690 l 511 551 b 326 639 479 596 418 639 b 186 528 235 639 186 596 b 324 417 186 458 235 431 l 379 408 b 599 207 538 385 599 315 b 333 -17 599 68 497 -17 m 340 813 l 268 846 l 386 1082 l 488 1033 "},"š":{"ha":676,"x_min":0,"x_max":0,"o":"m 333 -17 b 50 124 201 -17 114 39 l 129 188 b 342 78 185 118 251 78 b 492 194 436 78 492 121 b 367 307 492 250 461 293 l 310 315 b 79 522 178 335 79 389 b 335 733 79 664 189 733 b 585 618 450 733 526 690 l 511 551 b 326 639 479 596 418 639 b 186 528 235 639 186 596 b 324 417 186 458 235 431 l 379 408 b 599 207 538 385 599 315 b 333 -17 599 68 497 -17 m 261 832 l 107 1031 l 168 1074 l 331 911 l 493 1074 l 554 1031 l 400 832 "},"ş":{"ha":676,"x_min":0,"x_max":0,"o":"m 350 -287 b 213 -231 275 -287 232 -257 l 265 -174 b 350 -212 282 -194 310 -212 b 411 -169 385 -212 411 -199 b 317 -112 411 -144 394 -124 l 278 -107 l 296 -15 b 50 124 185 -6 107 47 l 129 188 b 342 78 185 118 251 78 b 492 194 436 78 492 121 b 367 307 492 250 461 293 l 310 315 b 79 522 178 335 79 389 b 335 733 79 664 189 733 b 585 618 450 733 526 690 l 511 551 b 326 639 479 596 418 639 b 186 528 235 639 186 596 b 324 417 186 458 235 431 l 379 408 b 599 207 538 385 599 315 b 365 -15 599 78 510 -6 l 351 -85 l 356 -89 b 410 -81 374 -83 393 -81 b 504 -172 464 -81 504 -112 b 350 -287 504 -251 432 -287 "},"ŝ":{"ha":676,"x_min":0,"x_max":0,"o":"m 333 -17 b 50 124 201 -17 114 39 l 129 188 b 342 78 185 118 251 78 b 492 194 436 78 492 121 b 367 307 492 250 461 293 l 310 315 b 79 522 178 335 79 389 b 335 733 79 664 189 733 b 585 618 450 733 526 690 l 511 551 b 326 639 479 596 418 639 b 186 528 235 639 186 596 b 324 417 186 458 235 431 l 379 408 b 599 207 538 385 599 315 b 333 -17 599 68 497 -17 m 400 1063 l 554 864 l 493 821 l 331 983 l 168 821 l 107 864 l 261 1063 "},"ș":{"ha":676,"x_min":0,"x_max":0,"o":"m 333 -17 b 50 124 201 -17 114 39 l 129 188 b 342 78 185 118 251 78 b 492 194 436 78 492 121 b 367 307 492 250 461 293 l 310 315 b 79 522 178 335 79 389 b 335 733 79 664 189 733 b 585 618 450 733 526 690 l 511 551 b 326 639 479 596 418 639 b 186 528 235 639 186 596 b 324 417 186 458 235 431 l 379 408 b 599 207 538 385 599 315 b 333 -17 599 68 497 -17 m 333 -92 b 404 -157 379 -92 404 -117 l 404 -172 b 321 -340 404 -237 365 -299 l 240 -340 b 311 -232 278 -301 299 -275 b 263 -171 279 -225 263 -201 l 263 -157 b 333 -92 263 -117 288 -92 "},"ſ":{"ha":386,"x_min":0,"x_max":0,"o":"m 157 619 l 40 619 l 40 717 l 157 717 l 157 861 b 314 1028 157 960 208 1028 l 422 1028 l 422 931 l 268 931 l 268 0 l 157 0 "},"ß":{"ha":889,"x_min":0,"x_max":0,"o":"m 851 207 b 600 -17 851 68 756 -17 b 354 100 489 -17 411 26 l 429 167 b 608 78 478 107 535 78 b 744 194 694 78 744 121 b 647 307 744 250 724 290 l 604 317 b 401 522 490 343 401 389 b 649 725 401 649 497 722 l 649 732 b 457 950 649 879 588 950 b 268 732 326 950 268 879 l 268 0 l 157 0 l 157 619 l 40 619 l 40 717 l 157 717 l 157 724 b 457 1044 157 918 265 1044 b 757 724 647 1044 757 918 l 757 639 l 692 639 b 508 528 575 639 508 607 b 618 415 508 458 549 432 l 660 406 b 851 207 796 374 851 314 "},"ŧ":{"ha":496,"x_min":0,"x_max":0,"o":"m 419 0 l 281 0 b 163 117 204 0 163 47 l 163 344 l 74 344 l 74 431 l 163 431 l 163 619 l 44 619 l 44 717 l 111 717 b 174 782 158 717 174 733 l 174 915 l 274 915 l 274 717 l 431 717 l 431 619 l 274 619 l 274 431 l 400 431 l 400 344 l 274 344 l 274 97 l 419 97 "},"ť":{"ha":488,"x_min":0,"x_max":0,"o":"m 276 0 b 158 118 200 0 158 49 l 158 619 l 40 619 l 40 717 l 107 717 b 169 782 154 717 169 733 l 169 915 l 269 915 l 269 717 l 426 717 l 426 619 l 269 619 l 269 97 l 415 97 l 415 0 m 439 786 l 365 786 l 382 1043 l 511 1043 "},"ț":{"ha":488,"x_min":0,"x_max":0,"o":"m 276 0 b 158 118 200 0 158 49 l 158 619 l 40 619 l 40 717 l 107 717 b 169 782 154 717 169 733 l 169 915 l 269 915 l 269 717 l 426 717 l 426 619 l 269 619 l 269 97 l 415 97 l 415 0 m 296 -92 b 367 -157 342 -92 367 -117 l 367 -172 b 283 -340 367 -237 328 -299 l 203 -340 b 274 -232 240 -301 261 -275 b 225 -171 242 -225 225 -201 l 225 -157 b 296 -92 225 -117 250 -92 "},"ţ":{"ha":488,"x_min":0,"x_max":0,"o":"m 313 -287 b 175 -231 238 -287 194 -257 l 228 -174 b 313 -212 244 -194 272 -212 b 374 -169 347 -212 374 -199 b 279 -112 374 -144 357 -124 l 240 -107 l 261 0 b 158 118 194 7 158 53 l 158 619 l 40 619 l 40 717 l 107 717 b 169 782 154 717 169 733 l 169 915 l 269 915 l 269 717 l 426 717 l 426 619 l 269 619 l 269 97 l 415 97 l 415 0 l 331 0 l 314 -85 l 318 -89 b 372 -81 336 -83 356 -81 b 467 -172 426 -81 467 -112 b 313 -287 467 -251 394 -287 "},"þ":{"ha":806,"x_min":0,"x_max":0,"o":"m 118 1028 l 229 1028 l 229 600 l 235 600 b 444 733 272 690 346 733 b 736 358 624 733 736 588 b 444 -17 736 129 624 -17 b 235 117 346 -17 278 28 l 229 117 l 229 -278 l 118 -278 m 414 83 b 617 297 539 83 617 169 l 617 419 b 414 633 617 547 539 633 b 229 496 313 633 229 575 l 229 229 b 414 83 229 136 313 83 "},"ú":{"ha":789,"x_min":0,"x_max":0,"o":"m 560 117 l 554 117 b 353 -17 526 49 472 -17 b 111 257 206 -17 111 83 l 111 717 l 222 717 l 222 276 b 386 83 222 149 279 83 b 560 221 474 83 560 126 l 560 717 l 671 717 l 671 0 l 560 0 m 401 813 l 329 846 l 447 1082 l 549 1033 "},"ŭ":{"ha":789,"x_min":0,"x_max":0,"o":"m 560 117 l 554 117 b 353 -17 526 49 472 -17 b 111 257 206 -17 111 83 l 111 717 l 222 717 l 222 276 b 386 83 222 149 279 83 b 560 221 474 83 560 126 l 560 717 l 671 717 l 671 0 l 560 0 m 392 828 b 181 1001 243 828 206 925 l 243 1032 l 272 986 b 392 915 297 946 321 915 b 511 986 463 915 486 946 l 540 1032 l 603 1001 b 392 828 578 925 540 828 "},"ǔ":{"ha":789,"x_min":0,"x_max":0,"o":"m 560 117 l 554 117 b 353 -17 526 49 472 -17 b 111 257 206 -17 111 83 l 111 717 l 222 717 l 222 276 b 386 83 222 149 279 83 b 560 221 474 83 560 126 l 560 717 l 671 717 l 671 0 l 560 0 m 322 832 l 168 1031 l 229 1074 l 392 911 l 554 1074 l 615 1031 l 461 832 "},"û":{"ha":789,"x_min":0,"x_max":0,"o":"m 560 117 l 554 117 b 353 -17 526 49 472 -17 b 111 257 206 -17 111 83 l 111 717 l 222 717 l 222 276 b 386 83 222 149 279 83 b 560 221 474 83 560 126 l 560 717 l 671 717 l 671 0 l 560 0 m 461 1063 l 615 864 l 554 821 l 392 983 l 229 821 l 168 864 l 322 1063 "},"ü":{"ha":789,"x_min":0,"x_max":0,"o":"m 560 117 l 554 117 b 353 -17 526 49 472 -17 b 111 257 206 -17 111 83 l 111 717 l 222 717 l 222 276 b 386 83 222 149 279 83 b 560 221 474 83 560 126 l 560 717 l 671 717 l 671 0 l 560 0 m 263 858 b 194 922 215 858 194 883 l 194 938 b 263 1001 194 976 215 1001 b 331 938 310 1001 331 976 l 331 922 b 263 858 331 883 310 858 m 521 858 b 453 922 474 858 453 883 l 453 938 b 521 1001 453 976 474 1001 b 589 938 568 1001 589 976 l 589 922 b 521 858 589 883 568 858 "},"ụ":{"ha":789,"x_min":0,"x_max":0,"o":"m 560 117 l 554 117 b 353 -17 526 49 472 -17 b 111 257 206 -17 111 83 l 111 717 l 222 717 l 222 276 b 386 83 222 149 279 83 b 560 221 474 83 560 126 l 560 717 l 671 717 l 671 0 l 560 0 m 386 -235 b 315 -171 339 -235 315 -210 l 315 -156 b 386 -92 315 -117 339 -92 b 457 -156 433 -92 457 -117 l 457 -171 b 386 -235 457 -210 433 -235 "},"ù":{"ha":789,"x_min":0,"x_max":0,"o":"m 560 117 l 554 117 b 353 -17 526 49 472 -17 b 111 257 206 -17 111 83 l 111 717 l 222 717 l 222 276 b 386 83 222 149 279 83 b 560 221 474 83 560 126 l 560 717 l 671 717 l 671 0 l 560 0 m 235 1033 l 336 1082 l 454 846 l 382 813 "},"ủ":{"ha":789,"x_min":0,"x_max":0,"o":"m 560 117 l 554 117 b 353 -17 526 49 472 -17 b 111 257 206 -17 111 83 l 111 717 l 222 717 l 222 276 b 386 83 222 149 279 83 b 560 221 474 83 560 126 l 560 717 l 671 717 l 671 0 l 560 0 m 275 1063 l 426 1063 b 524 986 497 1063 524 1028 b 456 843 524 946 499 897 l 422 801 l 358 833 l 439 978 l 275 978 "},"ű":{"ha":789,"x_min":0,"x_max":0,"o":"m 560 117 l 554 117 b 353 -17 526 49 472 -17 b 111 257 206 -17 111 83 l 111 717 l 222 717 l 222 276 b 386 83 222 149 279 83 b 560 221 474 83 560 126 l 560 717 l 671 717 l 671 0 l 560 0 m 290 814 l 224 844 l 342 1081 l 438 1035 m 513 814 l 446 844 l 564 1081 l 660 1035 "},"ū":{"ha":789,"x_min":0,"x_max":0,"o":"m 560 117 l 554 117 b 353 -17 526 49 472 -17 b 111 257 206 -17 111 83 l 111 717 l 222 717 l 222 276 b 386 83 222 149 279 83 b 560 221 474 83 560 126 l 560 717 l 671 717 l 671 0 l 560 0 m 197 979 l 586 979 l 586 885 l 197 885 "},"ų":{"ha":789,"x_min":0,"x_max":0,"o":"m 671 0 b 535 -171 553 -108 535 -140 b 578 -212 535 -201 553 -212 b 644 -179 604 -212 628 -200 l 700 -233 b 578 -287 683 -262 642 -287 b 446 -182 506 -287 446 -256 b 586 -4 446 -111 510 -58 l 585 0 l 560 0 l 560 117 l 554 117 b 353 -17 526 49 472 -17 b 111 257 206 -17 111 83 l 111 717 l 222 717 l 222 276 b 386 83 222 149 279 83 b 560 221 474 83 560 126 l 560 717 l 671 717 "},"ů":{"ha":789,"x_min":0,"x_max":0,"o":"m 560 117 l 554 117 b 353 -17 526 49 472 -17 b 111 257 206 -17 111 83 l 111 717 l 222 717 l 222 276 b 386 83 222 149 279 83 b 560 221 474 83 560 126 l 560 717 l 671 717 l 671 0 l 560 0 m 392 800 b 231 960 301 800 231 868 b 392 1119 231 1051 301 1119 b 553 960 482 1119 553 1051 b 392 800 553 868 482 800 m 392 868 b 472 944 442 868 472 896 l 472 975 b 392 1051 472 1024 442 1051 b 311 975 342 1051 311 1024 l 311 944 b 392 868 311 896 342 868 "},"ũ":{"ha":789,"x_min":0,"x_max":0,"o":"m 560 117 l 554 117 b 353 -17 526 49 472 -17 b 111 257 206 -17 111 83 l 111 717 l 222 717 l 222 276 b 386 83 222 149 279 83 b 560 221 474 83 560 126 l 560 717 l 671 717 l 671 0 l 560 0 m 493 850 b 382 886 444 850 411 871 b 285 919 338 910 308 919 b 204 882 254 919 232 906 l 158 938 b 290 1011 183 975 226 1011 b 401 975 339 1011 372 990 b 499 942 446 951 475 942 b 579 979 529 942 551 956 l 625 924 b 493 850 600 886 557 850 "},"ư":{"ha":789,"x_min":0,"x_max":0,"o":"m 786 731 b 699 643 786 682 768 643 l 671 643 l 671 0 l 560 0 l 560 117 l 554 117 b 353 -17 526 49 472 -17 b 111 257 206 -17 111 83 l 111 717 l 222 717 l 222 276 b 386 83 222 149 279 83 b 560 221 474 83 560 126 l 560 717 l 688 717 l 688 872 l 786 872 "},"ứ":{"ha":789,"x_min":0,"x_max":0,"o":"m 786 731 b 699 643 786 682 768 643 l 671 643 l 671 0 l 560 0 l 560 117 l 554 117 b 353 -17 526 49 472 -17 b 111 257 206 -17 111 83 l 111 717 l 222 717 l 222 276 b 386 83 222 149 279 83 b 560 221 474 83 560 126 l 560 717 l 688 717 l 688 872 l 786 872 m 401 813 l 329 846 l 447 1082 l 549 1033 "},"ự":{"ha":789,"x_min":0,"x_max":0,"o":"m 786 731 b 699 643 786 682 768 643 l 671 643 l 671 0 l 560 0 l 560 117 l 554 117 b 353 -17 526 49 472 -17 b 111 257 206 -17 111 83 l 111 717 l 222 717 l 222 276 b 386 83 222 149 279 83 b 560 221 474 83 560 126 l 560 717 l 688 717 l 688 872 l 786 872 m 386 -235 b 315 -171 339 -235 315 -210 l 315 -156 b 386 -92 315 -117 339 -92 b 457 -156 433 -92 457 -117 l 457 -171 b 386 -235 457 -210 433 -235 "},"ừ":{"ha":789,"x_min":0,"x_max":0,"o":"m 786 731 b 699 643 786 682 768 643 l 671 643 l 671 0 l 560 0 l 560 117 l 554 117 b 353 -17 526 49 472 -17 b 111 257 206 -17 111 83 l 111 717 l 222 717 l 222 276 b 386 83 222 149 279 83 b 560 221 474 83 560 126 l 560 717 l 688 717 l 688 872 l 786 872 m 235 1033 l 336 1082 l 454 846 l 382 813 "},"ử":{"ha":789,"x_min":0,"x_max":0,"o":"m 786 731 b 699 643 786 682 768 643 l 671 643 l 671 0 l 560 0 l 560 117 l 554 117 b 353 -17 526 49 472 -17 b 111 257 206 -17 111 83 l 111 717 l 222 717 l 222 276 b 386 83 222 149 279 83 b 560 221 474 83 560 126 l 560 717 l 688 717 l 688 872 l 786 872 m 275 1063 l 426 1063 b 524 986 497 1063 524 1028 b 456 843 524 946 499 897 l 422 801 l 358 833 l 439 978 l 275 978 "},"ữ":{"ha":789,"x_min":0,"x_max":0,"o":"m 786 731 b 699 643 786 682 768 643 l 671 643 l 671 0 l 560 0 l 560 117 l 554 117 b 353 -17 526 49 472 -17 b 111 257 206 -17 111 83 l 111 717 l 222 717 l 222 276 b 386 83 222 149 279 83 b 560 221 474 83 560 126 l 560 717 l 688 717 l 688 872 l 786 872 m 479 856 b 382 886 436 856 407 874 b 303 914 347 904 328 914 b 224 876 274 914 250 900 l 178 932 b 304 1006 203 969 244 1006 b 401 975 347 1006 376 988 b 481 947 436 957 456 947 b 560 985 510 947 533 961 l 606 929 b 479 856 581 892 539 856 "},"ǖ":{"ha":789,"x_min":0,"x_max":0,"o":"m 560 117 l 554 117 b 353 -17 526 49 472 -17 b 111 257 206 -17 111 83 l 111 717 l 222 717 l 222 276 b 386 83 222 149 279 83 b 560 221 474 83 560 126 l 560 717 l 671 717 l 671 0 l 560 0 m 197 1135 l 586 1135 l 586 1040 l 197 1040 m 254 829 b 186 893 207 829 186 854 l 186 908 b 254 972 186 947 207 972 b 322 908 301 972 322 947 l 322 893 b 254 829 322 854 301 829 m 529 829 b 461 893 482 829 461 854 l 461 908 b 529 972 461 947 482 972 b 597 908 576 972 597 947 l 597 893 b 529 829 597 854 576 829 "},"ǘ":{"ha":789,"x_min":0,"x_max":0,"o":"m 560 117 l 554 117 b 353 -17 526 49 472 -17 b 111 257 206 -17 111 83 l 111 717 l 222 717 l 222 276 b 386 83 222 149 279 83 b 560 221 474 83 560 126 l 560 717 l 671 717 l 671 0 l 560 0 m 408 969 l 340 1001 l 458 1238 l 556 1190 m 254 829 b 186 893 207 829 186 854 l 186 908 b 254 972 186 947 207 972 b 322 908 301 972 322 947 l 322 893 b 254 829 322 854 301 829 m 529 829 b 461 893 482 829 461 854 l 461 908 b 529 972 461 947 482 972 b 597 908 576 972 597 947 l 597 893 b 529 829 597 854 576 829 "},"ǜ":{"ha":789,"x_min":0,"x_max":0,"o":"m 560 117 l 554 117 b 353 -17 526 49 472 -17 b 111 257 206 -17 111 83 l 111 717 l 222 717 l 222 276 b 386 83 222 149 279 83 b 560 221 474 83 560 126 l 560 717 l 671 717 l 671 0 l 560 0 m 228 1190 l 325 1238 l 443 1001 l 375 969 m 254 829 b 186 893 207 829 186 854 l 186 908 b 254 972 186 947 207 972 b 322 908 301 972 322 947 l 322 893 b 254 829 322 854 301 829 m 529 829 b 461 893 482 829 461 854 l 461 908 b 529 972 461 947 482 972 b 597 908 576 972 597 947 l 597 893 b 529 829 597 854 576 829 "},"ǚ":{"ha":789,"x_min":0,"x_max":0,"o":"m 560 117 l 554 117 b 353 -17 526 49 472 -17 b 111 257 206 -17 111 83 l 111 717 l 222 717 l 222 276 b 386 83 222 149 279 83 b 560 221 474 83 560 126 l 560 717 l 671 717 l 671 0 l 560 0 m 322 1007 l 169 1193 l 226 1235 l 392 1079 l 557 1235 l 614 1193 l 461 1007 m 254 829 b 186 893 207 829 186 854 l 186 908 b 254 972 186 947 207 972 b 322 908 301 972 322 947 l 322 893 b 254 829 322 854 301 829 m 529 829 b 461 893 482 829 461 854 l 461 908 b 529 972 461 947 482 972 b 597 908 576 972 597 947 l 597 893 b 529 829 597 854 576 829 "},"ẃ":{"ha":1067,"x_min":0,"x_max":0,"o":"m 43 717 l 151 717 l 228 407 l 304 93 l 307 93 l 394 407 l 485 717 l 583 717 l 676 407 l 765 93 l 768 93 l 842 407 l 919 717 l 1024 717 l 833 0 l 696 0 l 596 344 l 533 563 l 531 563 l 469 344 l 369 0 l 235 0 m 543 813 l 471 846 l 589 1082 l 690 1033 "},"ŵ":{"ha":1067,"x_min":0,"x_max":0,"o":"m 43 717 l 151 717 l 228 407 l 304 93 l 307 93 l 394 407 l 485 717 l 583 717 l 676 407 l 765 93 l 768 93 l 842 407 l 919 717 l 1024 717 l 833 0 l 696 0 l 596 344 l 533 563 l 531 563 l 469 344 l 369 0 l 235 0 m 603 1063 l 757 864 l 696 821 l 533 983 l 371 821 l 310 864 l 464 1063 "},"ẅ":{"ha":1067,"x_min":0,"x_max":0,"o":"m 43 717 l 151 717 l 228 407 l 304 93 l 307 93 l 394 407 l 485 717 l 583 717 l 676 407 l 765 93 l 768 93 l 842 407 l 919 717 l 1024 717 l 833 0 l 696 0 l 596 344 l 533 563 l 531 563 l 469 344 l 369 0 l 235 0 m 404 858 b 336 922 357 858 336 883 l 336 938 b 404 1001 336 976 357 1001 b 472 938 451 1001 472 976 l 472 922 b 404 858 472 883 451 858 m 663 858 b 594 922 615 858 594 883 l 594 938 b 663 1001 594 976 615 1001 b 731 938 710 1001 731 976 l 731 922 b 663 858 731 883 710 858 "},"ẁ":{"ha":1067,"x_min":0,"x_max":0,"o":"m 43 717 l 151 717 l 228 407 l 304 93 l 307 93 l 394 407 l 485 717 l 583 717 l 676 407 l 765 93 l 768 93 l 842 407 l 919 717 l 1024 717 l 833 0 l 696 0 l 596 344 l 533 563 l 531 563 l 469 344 l 369 0 l 235 0 m 376 1033 l 478 1082 l 596 846 l 524 813 "},"ý":{"ha":693,"x_min":0,"x_max":0,"o":"m 560 717 l 669 717 l 349 -167 b 182 -278 317 -253 288 -278 l 125 -278 l 125 -181 l 238 -181 l 292 -28 l 24 717 l 135 717 l 307 229 l 340 113 l 347 113 l 386 229 m 357 813 l 285 846 l 403 1082 l 504 1033 "},"ŷ":{"ha":693,"x_min":0,"x_max":0,"o":"m 560 717 l 669 717 l 349 -167 b 182 -278 317 -253 288 -278 l 125 -278 l 125 -181 l 238 -181 l 292 -28 l 24 717 l 135 717 l 307 229 l 340 113 l 347 113 l 386 229 m 417 1063 l 571 864 l 510 821 l 347 983 l 185 821 l 124 864 l 278 1063 "},"ÿ":{"ha":693,"x_min":0,"x_max":0,"o":"m 560 717 l 669 717 l 349 -167 b 182 -278 317 -253 288 -278 l 125 -278 l 125 -181 l 238 -181 l 292 -28 l 24 717 l 135 717 l 307 229 l 340 113 l 347 113 l 386 229 m 218 858 b 150 922 171 858 150 883 l 150 938 b 218 1001 150 976 171 1001 b 286 938 265 1001 286 976 l 286 922 b 218 858 286 883 265 858 m 476 858 b 408 922 429 858 408 883 l 408 938 b 476 1001 408 976 429 1001 b 544 938 524 1001 544 976 l 544 922 b 476 858 544 883 524 858 "},"ỵ":{"ha":693,"x_min":0,"x_max":0,"o":"m 560 717 l 669 717 l 349 -167 b 182 -278 317 -253 288 -278 l 125 -278 l 125 -181 l 238 -181 l 292 -28 l 24 717 l 135 717 l 307 229 l 340 113 l 347 113 l 386 229 m 544 -235 b 474 -171 497 -235 474 -210 l 474 -156 b 544 -92 474 -117 497 -92 b 615 -156 592 -92 615 -117 l 615 -171 b 544 -235 615 -210 592 -235 "},"ỳ":{"ha":693,"x_min":0,"x_max":0,"o":"m 560 717 l 669 717 l 349 -167 b 182 -278 317 -253 288 -278 l 125 -278 l 125 -181 l 238 -181 l 292 -28 l 24 717 l 135 717 l 307 229 l 340 113 l 347 113 l 386 229 m 190 1033 l 292 1082 l 410 846 l 338 813 "},"ỷ":{"ha":693,"x_min":0,"x_max":0,"o":"m 560 717 l 669 717 l 349 -167 b 182 -278 317 -253 288 -278 l 125 -278 l 125 -181 l 238 -181 l 292 -28 l 24 717 l 135 717 l 307 229 l 340 113 l 347 113 l 386 229 m 231 1063 l 382 1063 b 479 986 453 1063 479 1028 b 411 843 479 946 454 897 l 378 801 l 314 833 l 394 978 l 231 978 "},"ỹ":{"ha":693,"x_min":0,"x_max":0,"o":"m 560 717 l 669 717 l 349 -167 b 182 -278 317 -253 288 -278 l 125 -278 l 125 -181 l 238 -181 l 292 -28 l 24 717 l 135 717 l 307 229 l 340 113 l 347 113 l 386 229 m 449 850 b 338 886 400 850 367 871 b 240 919 293 910 264 919 b 160 882 210 919 188 906 l 114 938 b 246 1011 139 975 182 1011 b 357 975 294 1011 328 990 b 454 942 401 951 431 942 b 535 979 485 942 507 956 l 581 924 b 449 850 556 886 513 850 "},"ź":{"ha":644,"x_min":0,"x_max":0,"o":"m 46 0 l 46 93 l 453 619 l 58 619 l 58 717 l 588 717 l 588 633 l 172 97 l 599 97 l 599 0 m 332 813 l 260 846 l 378 1082 l 479 1033 "},"ž":{"ha":644,"x_min":0,"x_max":0,"o":"m 46 0 l 46 93 l 453 619 l 58 619 l 58 717 l 588 717 l 588 633 l 172 97 l 599 97 l 599 0 m 253 832 l 99 1031 l 160 1074 l 322 911 l 485 1074 l 546 1031 l 392 832 "},"ż":{"ha":644,"x_min":0,"x_max":0,"o":"m 46 0 l 46 93 l 453 619 l 58 619 l 58 717 l 588 717 l 588 633 l 172 97 l 599 97 l 599 0 m 322 856 b 251 919 275 856 251 881 l 251 935 b 322 999 251 974 275 999 b 393 935 369 999 393 974 l 393 919 b 322 856 393 881 369 856 "},"Á":{"ha":890,"x_min":0,"x_max":0,"o":"m 736 0 l 639 286 l 247 286 l 150 0 l 32 0 l 371 969 l 519 969 l 858 0 m 446 861 l 439 861 l 275 389 l 610 389 m 457 1049 l 385 1082 l 503 1318 l 604 1269 "},"Ă":{"ha":890,"x_min":0,"x_max":0,"o":"m 736 0 l 639 286 l 247 286 l 150 0 l 32 0 l 371 969 l 519 969 l 858 0 m 446 861 l 439 861 l 275 389 l 610 389 m 447 1064 b 236 1238 299 1064 261 1161 l 299 1268 l 328 1222 b 447 1151 353 1182 376 1151 b 567 1222 518 1151 542 1182 l 596 1268 l 658 1238 b 447 1064 633 1161 596 1064 "},"Ǎ":{"ha":890,"x_min":0,"x_max":0,"o":"m 736 0 l 639 286 l 247 286 l 150 0 l 32 0 l 371 969 l 519 969 l 858 0 m 446 861 l 439 861 l 275 389 l 610 389 m 378 1068 l 224 1267 l 285 1310 l 447 1147 l 610 1310 l 671 1267 l 517 1068 "},"Â":{"ha":890,"x_min":0,"x_max":0,"o":"m 736 0 l 639 286 l 247 286 l 150 0 l 32 0 l 371 969 l 519 969 l 858 0 m 446 861 l 439 861 l 275 389 l 610 389 m 517 1299 l 671 1100 l 610 1057 l 447 1219 l 285 1057 l 224 1100 l 378 1299 "},"Ä":{"ha":890,"x_min":0,"x_max":0,"o":"m 736 0 l 639 286 l 247 286 l 150 0 l 32 0 l 371 969 l 519 969 l 858 0 m 446 861 l 439 861 l 275 389 l 610 389 m 318 1094 b 249 1160 271 1094 249 1121 l 249 1176 b 318 1242 249 1215 271 1242 b 388 1176 365 1242 388 1215 l 388 1160 b 318 1094 388 1121 365 1094 m 576 1094 b 507 1160 529 1094 507 1121 l 507 1176 b 576 1242 507 1215 529 1242 b 646 1176 624 1242 646 1215 l 646 1160 b 576 1094 646 1121 624 1094 "},"Ạ":{"ha":890,"x_min":0,"x_max":0,"o":"m 736 0 l 639 286 l 247 286 l 150 0 l 32 0 l 371 969 l 519 969 l 858 0 m 446 861 l 439 861 l 275 389 l 610 389 m 447 -235 b 376 -171 400 -235 376 -210 l 376 -156 b 447 -92 376 -117 400 -92 b 518 -156 494 -92 518 -117 l 518 -171 b 447 -235 518 -210 494 -235 "},"À":{"ha":890,"x_min":0,"x_max":0,"o":"m 736 0 l 639 286 l 247 286 l 150 0 l 32 0 l 371 969 l 519 969 l 858 0 m 446 861 l 439 861 l 275 389 l 610 389 m 290 1269 l 392 1318 l 510 1082 l 438 1049 "},"Ả":{"ha":890,"x_min":0,"x_max":0,"o":"m 736 0 l 639 286 l 247 286 l 150 0 l 32 0 l 371 969 l 519 969 l 858 0 m 446 861 l 439 861 l 275 389 l 610 389 m 331 1299 l 482 1299 b 579 1222 553 1299 579 1264 b 511 1079 579 1182 554 1133 l 478 1038 l 414 1069 l 494 1214 l 331 1214 "},"Ā":{"ha":890,"x_min":0,"x_max":0,"o":"m 736 0 l 639 286 l 247 286 l 150 0 l 32 0 l 371 969 l 519 969 l 858 0 m 446 861 l 439 861 l 275 389 l 610 389 m 253 1215 l 642 1215 l 642 1121 l 253 1121 "},"Ą":{"ha":890,"x_min":0,"x_max":0,"o":"m 371 969 l 519 969 l 858 0 b 722 -171 740 -108 722 -140 b 765 -212 722 -201 740 -212 b 832 -179 792 -212 815 -200 l 888 -233 b 765 -287 871 -262 829 -287 b 633 -182 693 -287 633 -256 b 774 -6 633 -111 699 -60 l 772 0 l 736 0 l 639 286 l 247 286 l 150 0 l 32 0 m 446 861 l 439 861 l 275 389 l 610 389 "},"Å":{"ha":890,"x_min":0,"x_max":0,"o":"m 736 0 l 639 286 l 247 286 l 150 0 l 32 0 l 371 969 l 519 969 l 858 0 m 446 861 l 439 861 l 275 389 l 610 389 m 447 1036 b 286 1196 357 1036 286 1104 b 447 1356 286 1288 357 1356 b 608 1196 538 1356 608 1288 b 447 1036 608 1104 538 1036 m 447 1104 b 528 1181 497 1104 528 1132 l 528 1211 b 447 1288 528 1260 497 1288 b 367 1211 397 1288 367 1260 l 367 1181 b 447 1104 367 1132 397 1104 "},"Ǻ":{"ha":890,"x_min":0,"x_max":0,"o":"m 736 0 l 639 286 l 247 286 l 150 0 l 32 0 l 371 969 l 519 969 l 858 0 m 446 861 l 439 861 l 275 389 l 610 389 m 467 1371 l 401 1397 l 503 1554 l 600 1519 m 447 1022 b 286 1182 357 1022 286 1090 b 447 1342 286 1274 357 1342 b 608 1182 538 1342 608 1274 b 447 1022 608 1090 538 1022 m 447 1090 b 528 1167 497 1090 528 1118 l 528 1197 b 447 1274 528 1246 497 1274 b 367 1197 397 1274 367 1246 l 367 1167 b 447 1090 367 1118 397 1090 "},"Ã":{"ha":890,"x_min":0,"x_max":0,"o":"m 736 0 l 639 286 l 247 286 l 150 0 l 32 0 l 371 969 l 519 969 l 858 0 m 446 861 l 439 861 l 275 389 l 610 389 m 549 1086 b 438 1122 500 1086 467 1107 b 340 1156 393 1146 364 1156 b 260 1118 310 1156 288 1142 l 214 1174 b 346 1247 239 1211 282 1247 b 457 1211 394 1247 428 1226 b 554 1178 501 1188 531 1178 b 635 1215 585 1178 607 1192 l 681 1160 b 549 1086 656 1122 613 1086 "},"Ắ":{"ha":890,"x_min":0,"x_max":0,"o":"m 736 0 l 639 286 l 247 286 l 150 0 l 32 0 l 371 969 l 519 969 l 858 0 m 446 861 l 439 861 l 275 389 l 610 389 m 447 1050 b 236 1224 299 1050 261 1147 l 299 1254 l 328 1201 b 447 1131 350 1161 376 1131 b 567 1201 518 1131 544 1161 l 596 1254 l 658 1224 b 447 1050 633 1147 596 1050 m 453 1206 l 385 1238 l 503 1474 l 600 1426 "},"Ặ":{"ha":890,"x_min":0,"x_max":0,"o":"m 736 0 l 639 286 l 247 286 l 150 0 l 32 0 l 371 969 l 519 969 l 858 0 m 446 861 l 439 861 l 275 389 l 610 389 m 447 1064 b 236 1238 299 1064 261 1161 l 299 1268 l 328 1222 b 447 1151 353 1182 376 1151 b 567 1222 518 1151 542 1182 l 596 1268 l 658 1238 b 447 1064 633 1161 596 1064 m 447 -235 b 376 -171 400 -235 376 -210 l 376 -156 b 447 -92 376 -117 400 -92 b 518 -156 494 -92 518 -117 l 518 -171 b 447 -235 518 -210 494 -235 "},"Ằ":{"ha":890,"x_min":0,"x_max":0,"o":"m 736 0 l 639 286 l 247 286 l 150 0 l 32 0 l 371 969 l 519 969 l 858 0 m 446 861 l 439 861 l 275 389 l 610 389 m 447 1050 b 236 1224 299 1050 261 1147 l 299 1254 l 328 1201 b 447 1131 350 1161 376 1131 b 567 1201 518 1131 544 1161 l 596 1254 l 658 1224 b 447 1050 633 1147 596 1050 m 294 1426 l 392 1474 l 510 1238 l 442 1206 "},"Ẳ":{"ha":890,"x_min":0,"x_max":0,"o":"m 736 0 l 639 286 l 247 286 l 150 0 l 32 0 l 371 969 l 519 969 l 858 0 m 446 861 l 439 861 l 275 389 l 610 389 m 324 1458 l 454 1458 b 551 1382 525 1458 551 1424 b 483 1239 551 1342 526 1293 l 450 1197 l 389 1229 l 472 1378 l 324 1378 m 447 1050 b 236 1224 299 1050 261 1147 l 299 1254 l 328 1201 b 447 1131 350 1161 376 1131 b 567 1201 518 1131 544 1161 l 596 1254 l 658 1224 b 447 1050 633 1147 596 1050 "},"Ẵ":{"ha":890,"x_min":0,"x_max":0,"o":"m 736 0 l 639 286 l 247 286 l 150 0 l 32 0 l 371 969 l 519 969 l 858 0 m 446 861 l 439 861 l 275 389 l 610 389 m 547 1308 b 436 1344 499 1308 465 1329 b 339 1378 392 1368 363 1378 b 258 1340 308 1378 286 1364 l 215 1390 b 347 1464 240 1428 283 1464 b 458 1428 396 1464 429 1443 b 556 1394 503 1404 532 1394 b 636 1432 586 1394 608 1408 l 679 1382 b 547 1308 654 1344 611 1308 m 447 1050 b 236 1224 299 1050 261 1147 l 299 1254 l 328 1201 b 447 1131 350 1161 376 1131 b 567 1201 518 1131 544 1161 l 596 1254 l 658 1224 b 447 1050 633 1147 596 1050 "},"Ấ":{"ha":890,"x_min":0,"x_max":0,"o":"m 736 0 l 639 286 l 247 286 l 150 0 l 32 0 l 371 969 l 519 969 l 858 0 m 446 861 l 439 861 l 275 389 l 610 389 m 661 1206 l 593 1238 l 711 1474 l 808 1426 m 517 1271 l 669 1085 l 613 1043 l 447 1199 l 282 1043 l 225 1085 l 378 1271 "},"Ậ":{"ha":890,"x_min":0,"x_max":0,"o":"m 736 0 l 639 286 l 247 286 l 150 0 l 32 0 l 371 969 l 519 969 l 858 0 m 446 861 l 439 861 l 275 389 l 610 389 m 517 1299 l 671 1100 l 610 1057 l 447 1219 l 285 1057 l 224 1100 l 378 1299 m 447 -235 b 376 -171 400 -235 376 -210 l 376 -156 b 447 -92 376 -117 400 -92 b 518 -156 494 -92 518 -117 l 518 -171 b 447 -235 518 -210 494 -235 "},"Ầ":{"ha":890,"x_min":0,"x_max":0,"o":"m 736 0 l 639 286 l 247 286 l 150 0 l 32 0 l 371 969 l 519 969 l 858 0 m 446 861 l 439 861 l 275 389 l 610 389 m 86 1426 l 183 1474 l 301 1238 l 233 1206 m 517 1271 l 669 1085 l 613 1043 l 447 1199 l 282 1043 l 225 1085 l 378 1271 "},"Ẩ":{"ha":890,"x_min":0,"x_max":0,"o":"m 736 0 l 639 286 l 247 286 l 150 0 l 32 0 l 371 969 l 519 969 l 858 0 m 446 861 l 439 861 l 275 389 l 610 389 m 517 1458 l 668 1458 b 765 1382 739 1458 765 1424 b 697 1239 765 1342 740 1293 l 664 1197 l 603 1229 l 686 1378 l 517 1378 m 517 1271 l 669 1085 l 613 1043 l 447 1199 l 282 1043 l 225 1085 l 378 1271 "},"Ẫ":{"ha":890,"x_min":0,"x_max":0,"o":"m 736 0 l 639 286 l 247 286 l 150 0 l 32 0 l 371 969 l 519 969 l 858 0 m 446 861 l 439 861 l 275 389 l 610 389 m 347 1464 b 458 1428 396 1464 429 1443 b 556 1394 503 1404 532 1394 b 636 1432 586 1394 608 1408 l 679 1382 b 547 1308 654 1344 611 1308 b 436 1344 499 1308 465 1329 b 339 1378 392 1368 363 1378 b 258 1340 308 1378 286 1364 l 215 1390 b 347 1464 240 1428 283 1464 m 517 1271 l 669 1085 l 613 1043 l 447 1199 l 282 1043 l 225 1085 l 378 1271 "},"Æ":{"ha":1260,"x_min":0,"x_max":0,"o":"m 579 285 l 267 285 l 125 0 l 6 0 l 501 969 l 1171 969 l 1171 867 l 694 867 l 694 542 l 1143 542 l 1143 439 l 694 439 l 694 103 l 1171 103 l 1171 0 l 579 0 m 561 867 l 315 388 l 579 388 l 579 867 "},"Ǽ":{"ha":1260,"x_min":0,"x_max":0,"o":"m 579 285 l 267 285 l 125 0 l 6 0 l 501 969 l 1171 969 l 1171 867 l 694 867 l 694 542 l 1143 542 l 1143 439 l 694 439 l 694 103 l 1171 103 l 1171 0 l 579 0 m 561 867 l 315 388 l 579 388 l 579 867 m 831 1049 l 758 1082 l 876 1318 l 978 1269 "},"Ć":{"ha":863,"x_min":0,"x_max":0,"o":"m 471 -17 b 81 479 226 -17 81 156 b 471 986 81 803 226 986 b 804 774 632 986 743 908 l 710 717 b 471 882 671 817 590 882 b 206 551 304 882 206 750 l 206 407 b 471 88 206 208 304 88 b 718 263 594 88 679 157 l 811 204 b 471 -17 750 68 632 -17 m 479 1049 l 407 1082 l 525 1318 l 626 1269 "},"Č":{"ha":863,"x_min":0,"x_max":0,"o":"m 471 -17 b 81 479 226 -17 81 156 b 471 986 81 803 226 986 b 804 774 632 986 743 908 l 710 717 b 471 882 671 817 590 882 b 206 551 304 882 206 750 l 206 407 b 471 88 206 208 304 88 b 718 263 594 88 679 157 l 811 204 b 471 -17 750 68 632 -17 m 400 1068 l 246 1267 l 307 1310 l 469 1147 l 632 1310 l 693 1267 l 539 1068 "},"Ç":{"ha":863,"x_min":0,"x_max":0,"o":"m 471 882 b 206 551 304 882 206 750 l 206 407 b 471 88 206 208 304 88 b 718 263 594 88 679 157 l 811 204 b 501 -15 754 76 647 -6 l 488 -85 l 492 -89 b 546 -81 510 -83 529 -81 b 640 -172 600 -81 640 -112 b 486 -287 640 -251 568 -287 b 349 -231 411 -287 368 -257 l 401 -174 b 486 -212 418 -194 446 -212 b 547 -169 521 -212 547 -199 b 453 -112 547 -144 531 -124 l 414 -107 l 432 -15 b 81 479 211 1 81 172 b 471 986 81 803 226 986 b 804 774 632 986 743 908 l 710 717 b 471 882 671 817 590 882 "},"Ĉ":{"ha":863,"x_min":0,"x_max":0,"o":"m 471 -17 b 81 479 226 -17 81 156 b 471 986 81 803 226 986 b 804 774 632 986 743 908 l 710 717 b 471 882 671 817 590 882 b 206 551 304 882 206 750 l 206 407 b 471 88 206 208 304 88 b 718 263 594 88 679 157 l 811 204 b 471 -17 750 68 632 -17 m 539 1299 l 693 1100 l 632 1057 l 469 1219 l 307 1057 l 246 1100 l 400 1299 "},"Ċ":{"ha":863,"x_min":0,"x_max":0,"o":"m 471 -17 b 81 479 226 -17 81 156 b 471 986 81 803 226 986 b 804 774 632 986 743 908 l 710 717 b 471 882 671 817 590 882 b 206 551 304 882 206 750 l 206 407 b 471 88 206 208 304 88 b 718 263 594 88 679 157 l 811 204 b 471 -17 750 68 632 -17 m 469 1083 b 392 1157 417 1083 392 1113 l 392 1176 b 469 1250 392 1221 417 1250 b 547 1176 522 1250 547 1221 l 547 1157 b 469 1083 547 1113 522 1083 "},"Ď":{"ha":932,"x_min":0,"x_max":0,"o":"m 129 969 l 454 969 b 851 485 696 969 851 808 b 454 0 851 161 696 0 l 129 0 m 454 103 b 726 406 614 103 726 214 l 726 564 b 454 867 726 756 614 867 l 246 867 l 246 103 m 357 1068 l 203 1267 l 264 1310 l 426 1147 l 589 1310 l 650 1267 l 496 1068 "},"Đ":{"ha":936,"x_min":0,"x_max":0,"o":"m 133 468 l 24 468 l 24 557 l 133 557 l 133 969 l 458 969 b 856 485 700 969 856 808 b 458 0 856 161 700 0 l 133 0 m 458 103 b 731 406 618 103 731 214 l 731 564 b 458 867 731 756 618 867 l 250 867 l 250 557 l 440 557 l 440 468 l 250 468 l 250 103 "},"Ð":{"ha":936,"x_min":0,"x_max":0,"o":"m 133 468 l 24 468 l 24 557 l 133 557 l 133 969 l 458 969 b 856 485 700 969 856 808 b 458 0 856 161 700 0 l 133 0 m 458 103 b 731 406 618 103 731 214 l 731 564 b 458 867 731 756 618 867 l 250 867 l 250 557 l 440 557 l 440 468 l 250 468 l 250 103 "},"É":{"ha":810,"x_min":0,"x_max":0,"o":"m 129 0 l 129 969 l 721 969 l 721 867 l 246 867 l 246 542 l 693 542 l 693 439 l 246 439 l 246 103 l 721 103 l 721 0 m 432 1049 l 360 1082 l 478 1318 l 579 1269 "},"Ĕ":{"ha":810,"x_min":0,"x_max":0,"o":"m 129 0 l 129 969 l 721 969 l 721 867 l 246 867 l 246 542 l 693 542 l 693 439 l 246 439 l 246 103 l 721 103 l 721 0 m 422 1064 b 211 1238 274 1064 236 1161 l 274 1268 l 303 1222 b 422 1151 328 1182 351 1151 b 542 1222 493 1151 517 1182 l 571 1268 l 633 1238 b 422 1064 608 1161 571 1064 "},"Ě":{"ha":810,"x_min":0,"x_max":0,"o":"m 129 0 l 129 969 l 721 969 l 721 867 l 246 867 l 246 542 l 693 542 l 693 439 l 246 439 l 246 103 l 721 103 l 721 0 m 353 1068 l 199 1267 l 260 1310 l 422 1147 l 585 1310 l 646 1267 l 492 1068 "},"Ê":{"ha":810,"x_min":0,"x_max":0,"o":"m 129 0 l 129 969 l 721 969 l 721 867 l 246 867 l 246 542 l 693 542 l 693 439 l 246 439 l 246 103 l 721 103 l 721 0 m 492 1299 l 646 1100 l 585 1057 l 422 1219 l 260 1057 l 199 1100 l 353 1299 "},"Ë":{"ha":810,"x_min":0,"x_max":0,"o":"m 129 0 l 129 969 l 721 969 l 721 867 l 246 867 l 246 542 l 693 542 l 693 439 l 246 439 l 246 103 l 721 103 l 721 0 m 293 1094 b 224 1160 246 1094 224 1121 l 224 1176 b 293 1242 224 1215 246 1242 b 363 1176 340 1242 363 1215 l 363 1160 b 293 1094 363 1121 340 1094 m 551 1094 b 482 1160 504 1094 482 1121 l 482 1176 b 551 1242 482 1215 504 1242 b 621 1176 599 1242 621 1215 l 621 1160 b 551 1094 621 1121 599 1094 "},"Ė":{"ha":810,"x_min":0,"x_max":0,"o":"m 129 0 l 129 969 l 721 969 l 721 867 l 246 867 l 246 542 l 693 542 l 693 439 l 246 439 l 246 103 l 721 103 l 721 0 m 422 1083 b 344 1157 369 1083 344 1113 l 344 1176 b 422 1250 344 1221 369 1250 b 500 1176 475 1250 500 1221 l 500 1157 b 422 1083 500 1113 475 1083 "},"Ẹ":{"ha":810,"x_min":0,"x_max":0,"o":"m 129 0 l 129 969 l 721 969 l 721 867 l 246 867 l 246 542 l 693 542 l 693 439 l 246 439 l 246 103 l 721 103 l 721 0 m 422 -235 b 351 -171 375 -235 351 -210 l 351 -156 b 422 -92 351 -117 375 -92 b 493 -156 469 -92 493 -117 l 493 -171 b 422 -235 493 -210 469 -235 "},"È":{"ha":810,"x_min":0,"x_max":0,"o":"m 129 0 l 129 969 l 721 969 l 721 867 l 246 867 l 246 542 l 693 542 l 693 439 l 246 439 l 246 103 l 721 103 l 721 0 m 265 1269 l 367 1318 l 485 1082 l 413 1049 "},"Ẻ":{"ha":810,"x_min":0,"x_max":0,"o":"m 129 0 l 129 969 l 721 969 l 721 867 l 246 867 l 246 542 l 693 542 l 693 439 l 246 439 l 246 103 l 721 103 l 721 0 m 306 1299 l 457 1299 b 554 1222 528 1299 554 1264 b 486 1079 554 1182 529 1133 l 453 1038 l 389 1069 l 469 1214 l 306 1214 "},"Ē":{"ha":810,"x_min":0,"x_max":0,"o":"m 129 0 l 129 969 l 721 969 l 721 867 l 246 867 l 246 542 l 693 542 l 693 439 l 246 439 l 246 103 l 721 103 l 721 0 m 228 1215 l 617 1215 l 617 1121 l 228 1121 "},"Ę":{"ha":810,"x_min":0,"x_max":0,"o":"m 129 969 l 721 969 l 721 867 l 246 867 l 246 542 l 693 542 l 693 439 l 246 439 l 246 103 l 721 103 l 721 0 b 585 -171 603 -108 585 -140 b 628 -212 585 -201 603 -212 b 694 -179 654 -212 678 -200 l 750 -233 b 628 -287 733 -262 692 -287 b 496 -182 556 -287 496 -256 b 636 -7 496 -111 560 -58 l 635 0 l 129 0 "},"Ẽ":{"ha":810,"x_min":0,"x_max":0,"o":"m 129 0 l 129 969 l 721 969 l 721 867 l 246 867 l 246 542 l 693 542 l 693 439 l 246 439 l 246 103 l 721 103 l 721 0 m 524 1086 b 413 1122 475 1086 442 1107 b 315 1156 368 1146 339 1156 b 235 1118 285 1156 263 1142 l 189 1174 b 321 1247 214 1211 257 1247 b 432 1211 369 1247 403 1226 b 529 1178 476 1188 506 1178 b 610 1215 560 1178 582 1192 l 656 1160 b 524 1086 631 1122 588 1086 "},"Ế":{"ha":810,"x_min":0,"x_max":0,"o":"m 129 0 l 129 969 l 721 969 l 721 867 l 246 867 l 246 542 l 693 542 l 693 439 l 246 439 l 246 103 l 721 103 l 721 0 m 636 1206 l 568 1238 l 686 1474 l 783 1426 m 492 1271 l 644 1085 l 588 1043 l 422 1199 l 257 1043 l 200 1085 l 353 1271 "},"Ệ":{"ha":810,"x_min":0,"x_max":0,"o":"m 129 0 l 129 969 l 721 969 l 721 867 l 246 867 l 246 542 l 693 542 l 693 439 l 246 439 l 246 103 l 721 103 l 721 0 m 492 1299 l 646 1100 l 585 1057 l 422 1219 l 260 1057 l 199 1100 l 353 1299 m 422 -235 b 351 -171 375 -235 351 -210 l 351 -156 b 422 -92 351 -117 375 -92 b 493 -156 469 -92 493 -117 l 493 -171 b 422 -235 493 -210 469 -235 "},"Ề":{"ha":810,"x_min":0,"x_max":0,"o":"m 129 0 l 129 969 l 721 969 l 721 867 l 246 867 l 246 542 l 693 542 l 693 439 l 246 439 l 246 103 l 721 103 l 721 0 m 61 1426 l 158 1474 l 276 1238 l 208 1206 m 492 1271 l 644 1085 l 588 1043 l 422 1199 l 257 1043 l 200 1085 l 353 1271 "},"Ể":{"ha":810,"x_min":0,"x_max":0,"o":"m 129 0 l 129 969 l 721 969 l 721 867 l 246 867 l 246 542 l 693 542 l 693 439 l 246 439 l 246 103 l 721 103 l 721 0 m 492 1458 l 643 1458 b 740 1382 714 1458 740 1424 b 672 1239 740 1342 715 1293 l 639 1197 l 578 1229 l 661 1378 l 492 1378 m 492 1271 l 644 1085 l 588 1043 l 422 1199 l 257 1043 l 200 1085 l 353 1271 "},"Ễ":{"ha":810,"x_min":0,"x_max":0,"o":"m 129 0 l 129 969 l 721 969 l 721 867 l 246 867 l 246 542 l 693 542 l 693 439 l 246 439 l 246 103 l 721 103 l 721 0 m 322 1464 b 433 1428 371 1464 404 1443 b 531 1394 478 1404 507 1394 b 611 1432 561 1394 583 1408 l 654 1382 b 522 1308 629 1344 586 1308 b 411 1344 474 1308 440 1329 b 314 1378 367 1368 338 1378 b 233 1340 283 1378 261 1364 l 190 1390 b 322 1464 215 1428 258 1464 m 492 1271 l 644 1085 l 588 1043 l 422 1199 l 257 1043 l 200 1085 l 353 1271 "},"Ə":{"ha":983,"x_min":0,"x_max":0,"o":"m 81 515 l 779 515 l 779 557 b 499 882 779 760 668 882 b 221 692 374 882 269 808 l 124 739 b 500 986 179 879 319 986 b 903 485 758 986 903 797 b 490 -17 903 171 746 -17 b 81 485 235 -17 81 151 m 490 88 b 779 413 651 88 779 217 l 779 419 l 201 419 l 201 413 b 490 88 201 217 329 88 "},"Ğ":{"ha":965,"x_min":0,"x_max":0,"o":"m 757 142 l 753 142 b 483 -17 729 51 631 -17 b 81 485 246 -17 81 160 b 493 986 81 807 244 986 b 846 774 667 986 783 900 l 750 715 b 493 882 706 818 615 882 b 206 564 322 882 206 756 l 206 407 b 504 88 206 215 319 88 b 751 300 639 88 751 157 l 751 396 l 538 396 l 538 499 l 865 499 l 865 0 l 757 0 m 493 1064 b 282 1238 344 1064 307 1161 l 344 1268 l 374 1222 b 493 1151 399 1182 422 1151 b 613 1222 564 1151 588 1182 l 642 1268 l 704 1238 b 493 1064 679 1161 642 1064 "},"Ĝ":{"ha":965,"x_min":0,"x_max":0,"o":"m 757 142 l 753 142 b 483 -17 729 51 631 -17 b 81 485 246 -17 81 160 b 493 986 81 807 244 986 b 846 774 667 986 783 900 l 750 715 b 493 882 706 818 615 882 b 206 564 322 882 206 756 l 206 407 b 504 88 206 215 319 88 b 751 300 639 88 751 157 l 751 396 l 538 396 l 538 499 l 865 499 l 865 0 l 757 0 m 563 1299 l 717 1100 l 656 1057 l 493 1219 l 331 1057 l 269 1100 l 424 1299 "},"Ģ":{"ha":965,"x_min":0,"x_max":0,"o":"m 757 142 l 753 142 b 483 -17 729 51 631 -17 b 81 485 246 -17 81 160 b 493 986 81 807 244 986 b 846 774 667 986 783 900 l 750 715 b 493 882 706 818 615 882 b 206 564 322 882 206 756 l 206 407 b 504 88 206 215 319 88 b 751 300 639 88 751 157 l 751 396 l 538 396 l 538 499 l 865 499 l 865 0 l 757 0 m 483 -92 b 554 -157 529 -92 554 -117 l 554 -172 b 471 -340 554 -237 515 -299 l 390 -340 b 461 -232 428 -301 449 -275 b 413 -171 429 -225 413 -201 l 413 -157 b 483 -92 413 -117 438 -92 "},"Ġ":{"ha":965,"x_min":0,"x_max":0,"o":"m 757 142 l 753 142 b 483 -17 729 51 631 -17 b 81 485 246 -17 81 160 b 493 986 81 807 244 986 b 846 774 667 986 783 900 l 750 715 b 493 882 706 818 615 882 b 206 564 322 882 206 756 l 206 407 b 504 88 206 215 319 88 b 751 300 639 88 751 157 l 751 396 l 538 396 l 538 499 l 865 499 l 865 0 l 757 0 m 493 1083 b 415 1157 440 1083 415 1113 l 415 1176 b 493 1250 415 1221 440 1250 b 571 1176 546 1250 571 1221 l 571 1157 b 493 1083 571 1113 546 1083 "},"Ħ":{"ha":990,"x_min":0,"x_max":0,"o":"m 740 439 l 250 439 l 250 0 l 133 0 l 133 719 l 38 719 l 38 808 l 133 808 l 133 969 l 250 969 l 250 808 l 740 808 l 740 969 l 857 969 l 857 808 l 953 808 l 953 719 l 857 719 l 857 0 l 740 0 m 740 542 l 740 719 l 250 719 l 250 542 "},"Ĥ":{"ha":982,"x_min":0,"x_max":0,"o":"m 736 439 l 246 439 l 246 0 l 129 0 l 129 969 l 246 969 l 246 542 l 736 542 l 736 969 l 853 969 l 853 0 l 736 0 m 561 1299 l 715 1100 l 654 1057 l 492 1219 l 329 1057 l 268 1100 l 422 1299 "},"Í":{"ha":556,"x_min":0,"x_max":0,"o":"m 83 0 l 83 97 l 219 97 l 219 872 l 83 872 l 83 969 l 472 969 l 472 872 l 336 872 l 336 97 l 472 97 l 472 0 m 288 1049 l 215 1082 l 333 1318 l 435 1269 "},"Ĭ":{"ha":556,"x_min":0,"x_max":0,"o":"m 83 0 l 83 97 l 219 97 l 219 872 l 83 872 l 83 969 l 472 969 l 472 872 l 336 872 l 336 97 l 472 97 l 472 0 m 278 1064 b 67 1238 129 1064 92 1161 l 129 1268 l 158 1222 b 278 1151 183 1182 207 1151 b 397 1222 349 1151 372 1182 l 426 1268 l 489 1238 b 278 1064 464 1161 426 1064 "},"Ǐ":{"ha":556,"x_min":0,"x_max":0,"o":"m 83 0 l 83 97 l 219 97 l 219 872 l 83 872 l 83 969 l 472 969 l 472 872 l 336 872 l 336 97 l 472 97 l 472 0 m 208 1068 l 54 1267 l 115 1310 l 278 1147 l 440 1310 l 501 1267 l 347 1068 "},"Î":{"ha":556,"x_min":0,"x_max":0,"o":"m 83 0 l 83 97 l 219 97 l 219 872 l 83 872 l 83 969 l 472 969 l 472 872 l 336 872 l 336 97 l 472 97 l 472 0 m 347 1299 l 501 1100 l 440 1057 l 278 1219 l 115 1057 l 54 1100 l 208 1299 "},"Ï":{"ha":556,"x_min":0,"x_max":0,"o":"m 83 0 l 83 97 l 219 97 l 219 872 l 83 872 l 83 969 l 472 969 l 472 872 l 336 872 l 336 97 l 472 97 l 472 0 m 149 1094 b 79 1160 101 1094 79 1121 l 79 1176 b 149 1242 79 1215 101 1242 b 218 1176 196 1242 218 1215 l 218 1160 b 149 1094 218 1121 196 1094 m 407 1094 b 338 1160 360 1094 338 1121 l 338 1176 b 407 1242 338 1215 360 1242 b 476 1176 454 1242 476 1215 l 476 1160 b 407 1094 476 1121 454 1094 "},"İ":{"ha":556,"x_min":0,"x_max":0,"o":"m 83 0 l 83 97 l 219 97 l 219 872 l 83 872 l 83 969 l 472 969 l 472 872 l 336 872 l 336 97 l 472 97 l 472 0 m 278 1083 b 200 1157 225 1083 200 1113 l 200 1176 b 278 1250 200 1221 225 1250 b 356 1176 331 1250 356 1221 l 356 1157 b 278 1083 356 1113 331 1083 "},"Ị":{"ha":556,"x_min":0,"x_max":0,"o":"m 83 0 l 83 97 l 219 97 l 219 872 l 83 872 l 83 969 l 472 969 l 472 872 l 336 872 l 336 97 l 472 97 l 472 0 m 278 -235 b 207 -171 231 -235 207 -210 l 207 -156 b 278 -92 207 -117 231 -92 b 349 -156 325 -92 349 -117 l 349 -171 b 278 -235 349 -210 325 -235 "},"Ì":{"ha":556,"x_min":0,"x_max":0,"o":"m 83 0 l 83 97 l 219 97 l 219 872 l 83 872 l 83 969 l 472 969 l 472 872 l 336 872 l 336 97 l 472 97 l 472 0 m 121 1269 l 222 1318 l 340 1082 l 268 1049 "},"Ỉ":{"ha":556,"x_min":0,"x_max":0,"o":"m 83 0 l 83 97 l 219 97 l 219 872 l 83 872 l 83 969 l 472 969 l 472 872 l 336 872 l 336 97 l 472 97 l 472 0 m 161 1299 l 313 1299 b 410 1222 383 1299 410 1264 b 342 1079 410 1182 385 1133 l 308 1038 l 244 1069 l 325 1214 l 161 1214 "},"Ī":{"ha":556,"x_min":0,"x_max":0,"o":"m 83 0 l 83 97 l 219 97 l 219 872 l 83 872 l 83 969 l 472 969 l 472 872 l 336 872 l 336 97 l 472 97 l 472 0 m 83 1215 l 472 1215 l 472 1121 l 83 1121 "},"Į":{"ha":556,"x_min":0,"x_max":0,"o":"m 83 97 l 219 97 l 219 872 l 83 872 l 83 969 l 472 969 l 472 872 l 336 872 l 336 97 l 472 97 l 472 0 b 336 -171 354 -108 336 -140 b 379 -212 336 -201 354 -212 b 446 -179 406 -212 429 -200 l 501 -233 b 379 -287 485 -262 443 -287 b 247 -182 307 -287 247 -256 b 388 -7 247 -112 300 -65 l 386 0 l 83 0 "},"Ĩ":{"ha":556,"x_min":0,"x_max":0,"o":"m 83 0 l 83 97 l 219 97 l 219 872 l 83 872 l 83 969 l 472 969 l 472 872 l 336 872 l 336 97 l 472 97 l 472 0 m 379 1086 b 268 1122 331 1086 297 1107 b 171 1156 224 1146 194 1156 b 90 1118 140 1156 118 1142 l 44 1174 b 176 1247 69 1211 113 1247 b 288 1211 225 1247 258 1226 b 385 1178 332 1188 361 1178 b 465 1215 415 1178 438 1192 l 511 1160 b 379 1086 486 1122 443 1086 "},"Ĳ":{"ha":896,"x_min":0,"x_max":0,"o":"m 444 -17 b 129 214 260 -17 157 82 l 235 239 b 449 88 256 153 318 88 b 657 289 578 88 657 151 l 657 865 l 446 865 l 446 969 l 774 969 l 774 313 b 444 -17 774 108 650 -17 m 122 969 l 239 969 l 239 403 l 122 403 "},"Ĵ":{"ha":708,"x_min":0,"x_max":0,"o":"m 586 969 l 586 251 b 308 -17 586 88 472 -17 b 39 204 158 -17 65 72 l 144 229 b 311 88 163 146 213 88 b 469 272 411 88 469 149 l 469 867 l 136 867 l 136 969 m 435 1299 l 589 1100 l 528 1057 l 365 1219 l 203 1057 l 142 1100 l 296 1299 "},"Ķ":{"ha":881,"x_min":0,"x_max":0,"o":"m 383 476 l 246 324 l 246 0 l 129 0 l 129 969 l 246 969 l 246 454 l 250 454 l 389 622 l 682 969 l 825 969 l 464 554 l 850 0 l 706 0 m 467 -92 b 538 -157 513 -92 538 -117 l 538 -172 b 454 -340 538 -237 499 -299 l 374 -340 b 444 -232 411 -301 432 -275 b 396 -171 413 -225 396 -201 l 396 -157 b 467 -92 396 -117 421 -92 "},"Ĺ":{"ha":696,"x_min":0,"x_max":0,"o":"m 129 0 l 129 969 l 246 969 l 246 103 l 658 103 l 658 0 m 197 1049 l 125 1082 l 243 1318 l 344 1269 "},"Ľ":{"ha":696,"x_min":0,"x_max":0,"o":"m 129 0 l 129 969 l 246 969 l 246 103 l 658 103 l 658 0 m 428 771 l 354 771 l 371 1028 l 500 1028 "},"Ļ":{"ha":696,"x_min":0,"x_max":0,"o":"m 129 0 l 129 969 l 246 969 l 246 103 l 658 103 l 658 0 m 414 -92 b 485 -157 460 -92 485 -117 l 485 -172 b 401 -340 485 -237 446 -299 l 321 -340 b 392 -232 358 -301 379 -275 b 343 -171 360 -225 343 -201 l 343 -157 b 414 -92 343 -117 368 -92 "},"Ŀ":{"ha":696,"x_min":0,"x_max":0,"o":"m 129 0 l 129 969 l 246 969 l 246 103 l 658 103 l 658 0 m 535 406 b 464 469 488 406 464 431 l 464 485 b 535 549 464 524 488 549 b 606 485 582 549 606 524 l 606 469 b 535 406 606 431 582 406 "},"Ł":{"ha":706,"x_min":0,"x_max":0,"o":"m 663 0 l 133 0 l 133 376 l -10 329 l -10 422 l 133 471 l 133 969 l 250 969 l 250 510 l 501 594 l 501 496 l 250 414 l 250 104 l 663 104 "},"Ń":{"ha":982,"x_min":0,"x_max":0,"o":"m 364 592 l 247 807 l 243 807 l 243 0 l 129 0 l 129 969 l 264 969 l 618 378 l 735 163 l 739 163 l 739 969 l 853 969 l 853 0 l 718 0 m 500 1049 l 428 1082 l 546 1318 l 647 1269 "},"Ň":{"ha":982,"x_min":0,"x_max":0,"o":"m 364 592 l 247 807 l 243 807 l 243 0 l 129 0 l 129 969 l 264 969 l 618 378 l 735 163 l 739 163 l 739 969 l 853 969 l 853 0 l 718 0 m 421 1068 l 267 1267 l 328 1310 l 490 1147 l 653 1310 l 714 1267 l 560 1068 "},"Ņ":{"ha":982,"x_min":0,"x_max":0,"o":"m 364 592 l 247 807 l 243 807 l 243 0 l 129 0 l 129 969 l 264 969 l 618 378 l 735 163 l 739 163 l 739 969 l 853 969 l 853 0 l 718 0 m 490 -92 b 561 -157 536 -92 561 -117 l 561 -172 b 478 -340 561 -237 522 -299 l 397 -340 b 468 -232 435 -301 456 -275 b 419 -171 436 -225 419 -201 l 419 -157 b 490 -92 419 -117 444 -92 "},"Ñ":{"ha":982,"x_min":0,"x_max":0,"o":"m 364 592 l 247 807 l 243 807 l 243 0 l 129 0 l 129 969 l 264 969 l 618 378 l 735 163 l 739 163 l 739 969 l 853 969 l 853 0 l 718 0 m 592 1086 b 481 1122 543 1086 510 1107 b 383 1156 436 1146 407 1156 b 303 1118 353 1156 331 1142 l 257 1174 b 389 1247 282 1211 325 1247 b 500 1211 438 1247 471 1226 b 597 1178 544 1188 574 1178 b 678 1215 628 1178 650 1192 l 724 1160 b 592 1086 699 1122 656 1086 "},"Ŋ":{"ha":982,"x_min":0,"x_max":0,"o":"m 129 0 l 129 969 l 264 969 l 618 378 l 735 163 l 739 163 l 739 969 l 853 969 l 853 -104 b 694 -278 853 -207 801 -278 l 619 -278 l 619 -175 l 739 -175 l 739 0 l 718 0 l 364 592 l 247 807 l 243 807 l 243 0 "},"Ó":{"ha":983,"x_min":0,"x_max":0,"o":"m 492 -17 b 81 485 242 -17 81 160 b 492 986 81 810 242 986 b 903 485 742 986 903 810 b 492 -17 903 160 742 -17 m 492 88 b 778 404 660 88 778 213 l 778 565 b 492 882 778 757 660 882 b 206 565 324 882 206 757 l 206 404 b 492 88 206 213 324 88 m 501 1049 l 429 1082 l 547 1318 l 649 1269 "},"Ŏ":{"ha":983,"x_min":0,"x_max":0,"o":"m 492 -17 b 81 485 242 -17 81 160 b 492 986 81 810 242 986 b 903 485 742 986 903 810 b 492 -17 903 160 742 -17 m 492 88 b 778 404 660 88 778 213 l 778 565 b 492 882 778 757 660 882 b 206 565 324 882 206 757 l 206 404 b 492 88 206 213 324 88 m 492 1064 b 281 1238 343 1064 306 1161 l 343 1268 l 372 1222 b 492 1151 397 1182 421 1151 b 611 1222 563 1151 586 1182 l 640 1268 l 703 1238 b 492 1064 678 1161 640 1064 "},"Ǒ":{"ha":983,"x_min":0,"x_max":0,"o":"m 492 -17 b 81 485 242 -17 81 160 b 492 986 81 810 242 986 b 903 485 742 986 903 810 b 492 -17 903 160 742 -17 m 492 88 b 778 404 660 88 778 213 l 778 565 b 492 882 778 757 660 882 b 206 565 324 882 206 757 l 206 404 b 492 88 206 213 324 88 m 422 1068 l 268 1267 l 329 1310 l 492 1147 l 654 1310 l 715 1267 l 561 1068 "},"Ô":{"ha":983,"x_min":0,"x_max":0,"o":"m 492 -17 b 81 485 242 -17 81 160 b 492 986 81 810 242 986 b 903 485 742 986 903 810 b 492 -17 903 160 742 -17 m 492 88 b 778 404 660 88 778 213 l 778 565 b 492 882 778 757 660 882 b 206 565 324 882 206 757 l 206 404 b 492 88 206 213 324 88 m 561 1299 l 715 1100 l 654 1057 l 492 1219 l 329 1057 l 268 1100 l 422 1299 "},"Ö":{"ha":983,"x_min":0,"x_max":0,"o":"m 492 -17 b 81 485 242 -17 81 160 b 492 986 81 810 242 986 b 903 485 742 986 903 810 b 492 -17 903 160 742 -17 m 492 88 b 778 404 660 88 778 213 l 778 565 b 492 882 778 757 660 882 b 206 565 324 882 206 757 l 206 404 b 492 88 206 213 324 88 m 363 1094 b 293 1160 315 1094 293 1121 l 293 1176 b 363 1242 293 1215 315 1242 b 432 1176 410 1242 432 1215 l 432 1160 b 363 1094 432 1121 410 1094 m 621 1094 b 551 1160 574 1094 551 1121 l 551 1176 b 621 1242 551 1215 574 1242 b 690 1176 668 1242 690 1215 l 690 1160 b 621 1094 690 1121 668 1094 "},"Ọ":{"ha":983,"x_min":0,"x_max":0,"o":"m 492 -17 b 81 485 242 -17 81 160 b 492 986 81 810 242 986 b 903 485 742 986 903 810 b 492 -17 903 160 742 -17 m 492 88 b 778 404 660 88 778 213 l 778 565 b 492 882 778 757 660 882 b 206 565 324 882 206 757 l 206 404 b 492 88 206 213 324 88 m 492 -235 b 421 -171 444 -235 421 -210 l 421 -156 b 492 -92 421 -117 444 -92 b 563 -156 539 -92 563 -117 l 563 -171 b 492 -235 563 -210 539 -235 "},"Ò":{"ha":983,"x_min":0,"x_max":0,"o":"m 492 -17 b 81 485 242 -17 81 160 b 492 986 81 810 242 986 b 903 485 742 986 903 810 b 492 -17 903 160 742 -17 m 492 88 b 778 404 660 88 778 213 l 778 565 b 492 882 778 757 660 882 b 206 565 324 882 206 757 l 206 404 b 492 88 206 213 324 88 m 335 1269 l 436 1318 l 554 1082 l 482 1049 "},"Ỏ":{"ha":983,"x_min":0,"x_max":0,"o":"m 492 -17 b 81 485 242 -17 81 160 b 492 986 81 810 242 986 b 903 485 742 986 903 810 b 492 -17 903 160 742 -17 m 492 88 b 778 404 660 88 778 213 l 778 565 b 492 882 778 757 660 882 b 206 565 324 882 206 757 l 206 404 b 492 88 206 213 324 88 m 375 1299 l 526 1299 b 624 1222 597 1299 624 1264 b 556 1079 624 1182 599 1133 l 522 1038 l 458 1069 l 539 1214 l 375 1214 "},"Ő":{"ha":983,"x_min":0,"x_max":0,"o":"m 492 -17 b 81 485 242 -17 81 160 b 492 986 81 810 242 986 b 903 485 742 986 903 810 b 492 -17 903 160 742 -17 m 492 88 b 778 404 660 88 778 213 l 778 565 b 492 882 778 757 660 882 b 206 565 324 882 206 757 l 206 404 b 492 88 206 213 324 88 m 390 1050 l 324 1081 l 442 1317 l 538 1271 m 613 1050 l 546 1081 l 664 1317 l 760 1271 "},"Ō":{"ha":983,"x_min":0,"x_max":0,"o":"m 492 -17 b 81 485 242 -17 81 160 b 492 986 81 810 242 986 b 903 485 742 986 903 810 b 492 -17 903 160 742 -17 m 492 88 b 778 404 660 88 778 213 l 778 565 b 492 882 778 757 660 882 b 206 565 324 882 206 757 l 206 404 b 492 88 206 213 324 88 m 297 1215 l 686 1215 l 686 1121 l 297 1121 "},"Ø":{"ha":983,"x_min":0,"x_max":0,"o":"m 492 -17 b 251 57 397 -17 317 8 l 168 -62 l 89 -11 l 183 124 b 81 485 117 208 81 329 b 492 986 81 810 242 986 b 732 913 586 986 667 961 l 815 1032 l 894 981 l 800 846 b 903 485 867 761 903 640 b 492 -17 903 160 742 -17 m 206 404 b 250 222 206 333 222 272 l 669 822 b 492 882 622 861 561 882 b 206 565 324 882 206 757 l 206 404 m 778 565 b 733 747 778 636 761 697 l 314 147 b 492 88 361 108 422 88 b 778 404 660 88 778 213 l 778 565 "},"Ǿ":{"ha":983,"x_min":0,"x_max":0,"o":"m 492 -17 b 251 57 397 -17 317 8 l 168 -62 l 89 -11 l 183 124 b 81 485 117 208 81 329 b 492 986 81 810 242 986 b 732 913 586 986 667 961 l 815 1032 l 894 981 l 800 846 b 903 485 867 761 903 640 b 492 -17 903 160 742 -17 m 206 404 b 250 222 206 333 222 272 l 669 822 b 492 882 622 861 561 882 b 206 565 324 882 206 757 l 206 404 m 778 565 b 733 747 778 636 761 697 l 314 147 b 492 88 361 108 422 88 b 778 404 660 88 778 213 l 778 565 m 501 1049 l 429 1082 l 547 1318 l 649 1269 "},"Õ":{"ha":983,"x_min":0,"x_max":0,"o":"m 492 -17 b 81 485 242 -17 81 160 b 492 986 81 810 242 986 b 903 485 742 986 903 810 b 492 -17 903 160 742 -17 m 492 88 b 778 404 660 88 778 213 l 778 565 b 492 882 778 757 660 882 b 206 565 324 882 206 757 l 206 404 b 492 88 206 213 324 88 m 593 1086 b 482 1122 544 1086 511 1107 b 385 1156 438 1146 408 1156 b 304 1118 354 1156 332 1142 l 258 1174 b 390 1247 283 1211 326 1247 b 501 1211 439 1247 472 1226 b 599 1178 546 1188 575 1178 b 679 1215 629 1178 651 1192 l 725 1160 b 593 1086 700 1122 657 1086 "},"Ơ":{"ha":983,"x_min":0,"x_max":0,"o":"m 911 1125 l 911 986 b 824 899 911 936 893 899 l 750 899 b 903 485 860 801 903 660 b 492 -17 903 160 742 -17 b 81 485 242 -17 81 160 b 492 986 81 810 242 986 b 617 969 536 986 578 981 l 813 969 l 813 1125 m 492 88 b 778 404 660 88 778 213 l 778 565 b 492 882 778 757 660 882 b 206 565 324 882 206 757 l 206 404 b 492 88 206 213 324 88 "},"Ớ":{"ha":983,"x_min":0,"x_max":0,"o":"m 911 1125 l 911 986 b 824 899 911 936 893 899 l 750 899 b 903 485 860 801 903 660 b 492 -17 903 160 742 -17 b 81 485 242 -17 81 160 b 492 986 81 810 242 986 b 617 969 536 986 578 981 l 813 969 l 813 1125 m 492 88 b 778 404 660 88 778 213 l 778 565 b 492 882 778 757 660 882 b 206 565 324 882 206 757 l 206 404 b 492 88 206 213 324 88 m 501 1049 l 429 1082 l 547 1318 l 649 1269 "},"Ợ":{"ha":983,"x_min":0,"x_max":0,"o":"m 911 1125 l 911 986 b 824 899 911 936 893 899 l 750 899 b 903 485 860 801 903 660 b 492 -17 903 160 742 -17 b 81 485 242 -17 81 160 b 492 986 81 810 242 986 b 617 969 536 986 578 981 l 813 969 l 813 1125 m 492 88 b 778 404 660 88 778 213 l 778 565 b 492 882 778 757 660 882 b 206 565 324 882 206 757 l 206 404 b 492 88 206 213 324 88 m 492 -235 b 421 -171 444 -235 421 -210 l 421 -156 b 492 -92 421 -117 444 -92 b 563 -156 539 -92 563 -117 l 563 -171 b 492 -235 563 -210 539 -235 "},"Ờ":{"ha":983,"x_min":0,"x_max":0,"o":"m 911 1125 l 911 986 b 824 899 911 936 893 899 l 750 899 b 903 485 860 801 903 660 b 492 -17 903 160 742 -17 b 81 485 242 -17 81 160 b 492 986 81 810 242 986 b 617 969 536 986 578 981 l 813 969 l 813 1125 m 492 88 b 778 404 660 88 778 213 l 778 565 b 492 882 778 757 660 882 b 206 565 324 882 206 757 l 206 404 b 492 88 206 213 324 88 m 335 1269 l 436 1318 l 554 1082 l 482 1049 "},"Ở":{"ha":983,"x_min":0,"x_max":0,"o":"m 911 1125 l 911 986 b 824 899 911 936 893 899 l 750 899 b 903 485 860 801 903 660 b 492 -17 903 160 742 -17 b 81 485 242 -17 81 160 b 492 986 81 810 242 986 b 617 969 536 986 578 981 l 813 969 l 813 1125 m 492 88 b 778 404 660 88 778 213 l 778 565 b 492 882 778 757 660 882 b 206 565 324 882 206 757 l 206 404 b 492 88 206 213 324 88 m 375 1299 l 526 1299 b 624 1222 597 1299 624 1264 b 556 1079 624 1182 599 1133 l 522 1038 l 458 1069 l 539 1214 l 375 1214 "},"Ỡ":{"ha":983,"x_min":0,"x_max":0,"o":"m 911 1125 l 911 986 b 824 899 911 936 893 899 l 750 899 b 903 485 860 801 903 660 b 492 -17 903 160 742 -17 b 81 485 242 -17 81 160 b 492 986 81 810 242 986 b 617 969 536 986 578 981 l 813 969 l 813 1125 m 492 88 b 778 404 660 88 778 213 l 778 565 b 492 882 778 757 660 882 b 206 565 324 882 206 757 l 206 404 b 492 88 206 213 324 88 m 579 1092 b 482 1122 536 1092 507 1110 b 403 1150 447 1140 428 1150 b 324 1113 374 1150 350 1136 l 278 1168 b 404 1242 303 1206 344 1242 b 501 1211 447 1242 476 1224 b 581 1183 536 1193 556 1183 b 660 1221 610 1183 633 1197 l 706 1165 b 579 1092 681 1128 639 1092 "},"Ố":{"ha":983,"x_min":0,"x_max":0,"o":"m 492 -17 b 81 485 242 -17 81 160 b 492 986 81 810 242 986 b 903 485 742 986 903 810 b 492 -17 903 160 742 -17 m 492 88 b 778 404 660 88 778 213 l 778 565 b 492 882 778 757 660 882 b 206 565 324 882 206 757 l 206 404 b 492 88 206 213 324 88 m 706 1206 l 638 1238 l 756 1474 l 853 1426 m 561 1271 l 714 1085 l 657 1043 l 492 1199 l 326 1043 l 269 1085 l 422 1271 "},"Ộ":{"ha":983,"x_min":0,"x_max":0,"o":"m 492 -17 b 81 485 242 -17 81 160 b 492 986 81 810 242 986 b 903 485 742 986 903 810 b 492 -17 903 160 742 -17 m 492 88 b 778 404 660 88 778 213 l 778 565 b 492 882 778 757 660 882 b 206 565 324 882 206 757 l 206 404 b 492 88 206 213 324 88 m 561 1299 l 715 1100 l 654 1057 l 492 1219 l 329 1057 l 268 1100 l 422 1299 m 492 -235 b 421 -171 444 -235 421 -210 l 421 -156 b 492 -92 421 -117 444 -92 b 563 -156 539 -92 563 -117 l 563 -171 b 492 -235 563 -210 539 -235 "},"Ồ":{"ha":983,"x_min":0,"x_max":0,"o":"m 492 -17 b 81 485 242 -17 81 160 b 492 986 81 810 242 986 b 903 485 742 986 903 810 b 492 -17 903 160 742 -17 m 492 88 b 778 404 660 88 778 213 l 778 565 b 492 882 778 757 660 882 b 206 565 324 882 206 757 l 206 404 b 492 88 206 213 324 88 m 131 1426 l 228 1474 l 346 1238 l 278 1206 m 561 1271 l 714 1085 l 657 1043 l 492 1199 l 326 1043 l 269 1085 l 422 1271 "},"Ổ":{"ha":983,"x_min":0,"x_max":0,"o":"m 492 -17 b 81 485 242 -17 81 160 b 492 986 81 810 242 986 b 903 485 742 986 903 810 b 492 -17 903 160 742 -17 m 492 88 b 778 404 660 88 778 213 l 778 565 b 492 882 778 757 660 882 b 206 565 324 882 206 757 l 206 404 b 492 88 206 213 324 88 m 561 1458 l 713 1458 b 810 1382 783 1458 810 1424 b 742 1239 810 1342 785 1293 l 708 1197 l 647 1229 l 731 1378 l 561 1378 m 561 1271 l 714 1085 l 657 1043 l 492 1199 l 326 1043 l 269 1085 l 422 1271 "},"Ỗ":{"ha":983,"x_min":0,"x_max":0,"o":"m 492 -17 b 81 485 242 -17 81 160 b 492 986 81 810 242 986 b 903 485 742 986 903 810 b 492 -17 903 160 742 -17 m 492 88 b 778 404 660 88 778 213 l 778 565 b 492 882 778 757 660 882 b 206 565 324 882 206 757 l 206 404 b 492 88 206 213 324 88 m 392 1464 b 503 1428 440 1464 474 1443 b 600 1394 547 1404 576 1394 b 681 1432 631 1394 653 1408 l 724 1382 b 592 1308 699 1344 656 1308 b 481 1344 543 1308 510 1329 b 383 1378 436 1368 407 1378 b 303 1340 353 1378 331 1364 l 260 1390 b 392 1464 285 1428 328 1464 m 561 1271 l 714 1085 l 657 1043 l 492 1199 l 326 1043 l 269 1085 l 422 1271 "},"Œ":{"ha":1368,"x_min":0,"x_max":0,"o":"m 688 0 b 510 -17 636 -10 564 -17 b 81 485 242 -17 81 158 b 510 986 81 811 242 986 b 688 969 564 986 636 979 l 1279 969 l 1279 867 l 803 867 l 803 542 l 1251 542 l 1251 439 l 803 439 l 803 103 l 1279 103 l 1279 0 m 524 88 b 686 113 575 88 636 96 l 686 857 b 524 882 636 874 575 882 b 206 565 307 882 206 757 l 206 404 b 524 88 206 213 307 88 "},"Ŕ":{"ha":889,"x_min":0,"x_max":0,"o":"m 246 0 l 129 0 l 129 969 l 515 969 b 786 694 685 969 786 871 b 592 428 786 553 718 457 l 814 0 l 682 0 l 472 417 l 246 417 m 515 517 b 661 656 607 517 661 567 l 661 728 b 515 867 661 817 607 867 l 246 867 l 246 517 m 436 1049 l 364 1082 l 482 1318 l 583 1269 "},"Ř":{"ha":889,"x_min":0,"x_max":0,"o":"m 246 0 l 129 0 l 129 969 l 515 969 b 786 694 685 969 786 871 b 592 428 786 553 718 457 l 814 0 l 682 0 l 472 417 l 246 417 m 515 517 b 661 656 607 517 661 567 l 661 728 b 515 867 661 817 607 867 l 246 867 l 246 517 m 357 1068 l 203 1267 l 264 1310 l 426 1147 l 589 1310 l 650 1267 l 496 1068 "},"Ŗ":{"ha":889,"x_min":0,"x_max":0,"o":"m 246 0 l 129 0 l 129 969 l 515 969 b 786 694 685 969 786 871 b 592 428 786 553 718 457 l 814 0 l 682 0 l 472 417 l 246 417 m 515 517 b 661 656 607 517 661 567 l 661 728 b 515 867 661 817 607 867 l 246 867 l 246 517 m 450 -92 b 521 -157 496 -92 521 -117 l 521 -172 b 438 -340 521 -237 482 -299 l 357 -340 b 428 -232 394 -301 415 -275 b 379 -171 396 -225 379 -201 l 379 -157 b 450 -92 379 -117 404 -92 "},"Ś":{"ha":807,"x_min":0,"x_max":0,"o":"m 401 -17 b 58 153 246 -17 136 47 l 144 225 b 406 86 213 135 293 86 b 619 269 544 86 619 158 b 440 436 619 361 568 407 l 361 454 b 88 721 185 494 88 572 b 408 986 88 893 218 986 b 729 828 554 986 657 931 l 642 764 b 403 883 589 838 515 883 b 203 725 279 883 203 829 b 385 564 203 633 263 592 l 464 546 b 735 275 653 503 735 419 b 401 -17 735 97 610 -17 m 410 1049 l 338 1082 l 456 1318 l 557 1269 "},"Š":{"ha":807,"x_min":0,"x_max":0,"o":"m 401 -17 b 58 153 246 -17 136 47 l 144 225 b 406 86 213 135 293 86 b 619 269 544 86 619 158 b 440 436 619 361 568 407 l 361 454 b 88 721 185 494 88 572 b 408 986 88 893 218 986 b 729 828 554 986 657 931 l 642 764 b 403 883 589 838 515 883 b 203 725 279 883 203 829 b 385 564 203 633 263 592 l 464 546 b 735 275 653 503 735 419 b 401 -17 735 97 610 -17 m 331 1068 l 176 1267 l 238 1310 l 400 1147 l 563 1310 l 624 1267 l 469 1068 "},"Ş":{"ha":807,"x_min":0,"x_max":0,"o":"m 403 883 b 203 725 279 883 203 829 b 385 564 203 633 263 592 l 464 546 b 735 275 653 503 735 419 b 431 -15 735 106 621 -6 l 417 -85 l 421 -89 b 475 -81 439 -83 458 -81 b 569 -172 529 -81 569 -112 b 415 -287 569 -251 497 -287 b 278 -231 340 -287 297 -257 l 331 -174 b 415 -212 347 -194 375 -212 b 476 -169 450 -212 476 -199 b 382 -112 476 -144 460 -124 l 343 -107 l 361 -15 b 58 153 226 -6 129 57 l 144 225 b 406 86 213 135 293 86 b 619 269 544 86 619 158 b 440 436 619 361 568 407 l 361 454 b 88 721 185 494 88 572 b 408 986 88 893 218 986 b 729 828 554 986 657 931 l 642 764 b 403 883 589 838 515 883 "},"Ŝ":{"ha":807,"x_min":0,"x_max":0,"o":"m 401 -17 b 58 153 246 -17 136 47 l 144 225 b 406 86 213 135 293 86 b 619 269 544 86 619 158 b 440 436 619 361 568 407 l 361 454 b 88 721 185 494 88 572 b 408 986 88 893 218 986 b 729 828 554 986 657 931 l 642 764 b 403 883 589 838 515 883 b 203 725 279 883 203 829 b 385 564 203 633 263 592 l 464 546 b 735 275 653 503 735 419 b 401 -17 735 97 610 -17 m 469 1299 l 624 1100 l 563 1057 l 400 1219 l 238 1057 l 176 1100 l 331 1299 "},"Ș":{"ha":807,"x_min":0,"x_max":0,"o":"m 401 -17 b 58 153 246 -17 136 47 l 144 225 b 406 86 213 135 293 86 b 619 269 544 86 619 158 b 440 436 619 361 568 407 l 361 454 b 88 721 185 494 88 572 b 408 986 88 893 218 986 b 729 828 554 986 657 931 l 642 764 b 403 883 589 838 515 883 b 203 725 279 883 203 829 b 385 564 203 633 263 592 l 464 546 b 735 275 653 503 735 419 b 401 -17 735 97 610 -17 m 399 -92 b 469 -157 444 -92 469 -117 l 469 -172 b 386 -340 469 -237 431 -299 l 306 -340 b 376 -232 343 -301 364 -275 b 328 -171 344 -225 328 -201 l 328 -157 b 399 -92 328 -117 353 -92 "},"ẞ":{"ha":972,"x_min":0,"x_max":0,"o":"m 900 272 b 594 -17 900 90 781 -17 b 318 113 471 -17 382 24 l 399 181 b 594 82 447 117 514 82 b 775 251 711 82 775 149 l 775 293 b 594 461 775 396 711 461 l 464 461 l 464 568 l 721 867 l 246 867 l 246 0 l 129 0 l 129 969 l 839 969 l 839 856 l 588 563 l 588 557 b 900 272 781 554 900 451 "},"Ŧ":{"ha":808,"x_min":0,"x_max":0,"o":"m 463 469 l 463 0 l 346 0 l 346 469 l 117 469 l 117 558 l 346 558 l 346 867 l 38 867 l 38 969 l 771 969 l 771 867 l 463 867 l 463 558 l 690 558 l 690 469 "},"Ť":{"ha":794,"x_min":0,"x_max":0,"o":"m 456 867 l 456 0 l 339 0 l 339 867 l 31 867 l 31 969 l 764 969 l 764 867 m 328 1068 l 174 1267 l 235 1310 l 397 1147 l 560 1310 l 621 1267 l 467 1068 "},"Ț":{"ha":794,"x_min":0,"x_max":0,"o":"m 456 867 l 456 0 l 339 0 l 339 867 l 31 867 l 31 969 l 764 969 l 764 867 m 397 -92 b 468 -157 443 -92 468 -117 l 468 -172 b 385 -340 468 -237 429 -299 l 304 -340 b 375 -232 342 -301 363 -275 b 326 -171 343 -225 326 -201 l 326 -157 b 397 -92 326 -117 351 -92 "},"Ţ":{"ha":794,"x_min":0,"x_max":0,"o":"m 414 -287 b 276 -231 339 -287 296 -257 l 329 -174 b 414 -212 346 -194 374 -212 b 475 -169 449 -212 475 -199 b 381 -112 475 -144 458 -124 l 342 -107 l 363 0 l 339 0 l 339 867 l 31 867 l 31 969 l 764 969 l 764 867 l 456 867 l 456 0 l 432 0 l 415 -85 l 419 -89 b 474 -81 438 -83 457 -81 b 568 -172 528 -81 568 -112 b 414 -287 568 -251 496 -287 "},"Þ":{"ha":842,"x_min":0,"x_max":0,"o":"m 129 0 l 129 969 l 246 969 l 246 769 l 515 769 b 786 492 689 769 786 661 b 515 214 786 322 689 214 l 246 214 l 246 0 m 246 318 l 515 318 b 661 457 607 318 661 369 l 661 526 b 515 665 661 614 607 665 l 246 665 "},"Ú":{"ha":942,"x_min":0,"x_max":0,"o":"m 239 969 l 239 369 b 471 88 239 185 299 88 b 703 369 643 88 703 185 l 703 969 l 819 969 l 819 397 b 467 -17 819 115 725 -17 b 122 397 208 -17 122 115 l 122 969 m 478 1049 l 406 1082 l 524 1318 l 625 1269 "},"Ŭ":{"ha":942,"x_min":0,"x_max":0,"o":"m 239 969 l 239 369 b 471 88 239 185 299 88 b 703 369 643 88 703 185 l 703 969 l 819 969 l 819 397 b 467 -17 819 115 725 -17 b 122 397 208 -17 122 115 l 122 969 m 468 1064 b 257 1238 319 1064 282 1161 l 319 1268 l 349 1222 b 468 1151 374 1182 397 1151 b 588 1222 539 1151 563 1182 l 617 1268 l 679 1238 b 468 1064 654 1161 617 1064 "},"Ǔ":{"ha":942,"x_min":0,"x_max":0,"o":"m 239 969 l 239 369 b 471 88 239 185 299 88 b 703 369 643 88 703 185 l 703 969 l 819 969 l 819 397 b 467 -17 819 115 725 -17 b 122 397 208 -17 122 115 l 122 969 m 399 1068 l 244 1267 l 306 1310 l 468 1147 l 631 1310 l 692 1267 l 538 1068 "},"Û":{"ha":942,"x_min":0,"x_max":0,"o":"m 239 969 l 239 369 b 471 88 239 185 299 88 b 703 369 643 88 703 185 l 703 969 l 819 969 l 819 397 b 467 -17 819 115 725 -17 b 122 397 208 -17 122 115 l 122 969 m 538 1299 l 692 1100 l 631 1057 l 468 1219 l 306 1057 l 244 1100 l 399 1299 "},"Ü":{"ha":942,"x_min":0,"x_max":0,"o":"m 239 969 l 239 369 b 471 88 239 185 299 88 b 703 369 643 88 703 185 l 703 969 l 819 969 l 819 397 b 467 -17 819 115 725 -17 b 122 397 208 -17 122 115 l 122 969 m 339 1094 b 269 1160 292 1094 269 1121 l 269 1176 b 339 1242 269 1215 292 1242 b 408 1176 386 1242 408 1215 l 408 1160 b 339 1094 408 1121 386 1094 m 597 1094 b 528 1160 550 1094 528 1121 l 528 1176 b 597 1242 528 1215 550 1242 b 667 1176 644 1242 667 1215 l 667 1160 b 597 1094 667 1121 644 1094 "},"Ụ":{"ha":942,"x_min":0,"x_max":0,"o":"m 239 969 l 239 369 b 471 88 239 185 299 88 b 703 369 643 88 703 185 l 703 969 l 819 969 l 819 397 b 467 -17 819 115 725 -17 b 122 397 208 -17 122 115 l 122 969 m 468 -235 b 397 -171 421 -235 397 -210 l 397 -156 b 468 -92 397 -117 421 -92 b 539 -156 515 -92 539 -117 l 539 -171 b 468 -235 539 -210 515 -235 "},"Ù":{"ha":942,"x_min":0,"x_max":0,"o":"m 239 969 l 239 369 b 471 88 239 185 299 88 b 703 369 643 88 703 185 l 703 969 l 819 969 l 819 397 b 467 -17 819 115 725 -17 b 122 397 208 -17 122 115 l 122 969 m 311 1269 l 413 1318 l 531 1082 l 458 1049 "},"Ủ":{"ha":942,"x_min":0,"x_max":0,"o":"m 239 969 l 239 369 b 471 88 239 185 299 88 b 703 369 643 88 703 185 l 703 969 l 819 969 l 819 397 b 467 -17 819 115 725 -17 b 122 397 208 -17 122 115 l 122 969 m 351 1299 l 503 1299 b 600 1222 574 1299 600 1264 b 532 1079 600 1182 575 1133 l 499 1038 l 435 1069 l 515 1214 l 351 1214 "},"Ű":{"ha":942,"x_min":0,"x_max":0,"o":"m 239 969 l 239 369 b 471 88 239 185 299 88 b 703 369 643 88 703 185 l 703 969 l 819 969 l 819 397 b 467 -17 819 115 725 -17 b 122 397 208 -17 122 115 l 122 969 m 367 1050 l 300 1081 l 418 1317 l 514 1271 m 589 1050 l 522 1081 l 640 1317 l 736 1271 "},"Ū":{"ha":942,"x_min":0,"x_max":0,"o":"m 239 969 l 239 369 b 471 88 239 185 299 88 b 703 369 643 88 703 185 l 703 969 l 819 969 l 819 397 b 467 -17 819 115 725 -17 b 122 397 208 -17 122 115 l 122 969 m 274 1215 l 663 1215 l 663 1121 l 274 1121 "},"Ų":{"ha":942,"x_min":0,"x_max":0,"o":"m 239 969 l 239 369 b 471 88 239 185 299 88 b 703 369 643 88 703 185 l 703 969 l 819 969 l 819 397 b 660 -17 819 214 786 108 b 540 -171 568 -107 540 -133 b 583 -212 540 -201 558 -212 b 650 -179 610 -212 633 -200 l 706 -233 b 583 -287 689 -262 647 -287 b 451 -185 513 -287 451 -254 b 613 0 451 -108 522 -61 l 607 7 b 467 -17 565 -11 517 -17 b 122 397 208 -17 122 115 l 122 969 "},"Ů":{"ha":942,"x_min":0,"x_max":0,"o":"m 239 969 l 239 369 b 471 88 239 185 299 88 b 703 369 643 88 703 185 l 703 969 l 819 969 l 819 397 b 467 -17 819 115 725 -17 b 122 397 208 -17 122 115 l 122 969 m 468 1036 b 307 1196 378 1036 307 1104 b 468 1356 307 1288 378 1356 b 629 1196 558 1356 629 1288 b 468 1036 629 1104 558 1036 m 468 1104 b 549 1181 518 1104 549 1132 l 549 1211 b 468 1288 549 1260 518 1288 b 388 1211 418 1288 388 1260 l 388 1181 b 468 1104 388 1132 418 1104 "},"Ũ":{"ha":942,"x_min":0,"x_max":0,"o":"m 239 969 l 239 369 b 471 88 239 185 299 88 b 703 369 643 88 703 185 l 703 969 l 819 969 l 819 397 b 467 -17 819 115 725 -17 b 122 397 208 -17 122 115 l 122 969 m 569 1086 b 458 1122 521 1086 488 1107 b 361 1156 414 1146 385 1156 b 281 1118 331 1156 308 1142 l 235 1174 b 367 1247 260 1211 303 1247 b 478 1211 415 1247 449 1226 b 575 1178 522 1188 551 1178 b 656 1215 606 1178 628 1192 l 701 1160 b 569 1086 676 1122 633 1086 "},"Ư":{"ha":942,"x_min":0,"x_max":0,"o":"m 239 969 l 239 369 b 471 88 239 185 299 88 b 703 369 643 88 703 185 l 703 969 l 829 969 l 829 1125 l 928 1125 l 928 983 b 840 896 928 935 910 896 l 819 896 l 819 397 b 467 -17 819 115 725 -17 b 122 397 208 -17 122 115 l 122 969 "},"Ứ":{"ha":942,"x_min":0,"x_max":0,"o":"m 239 969 l 239 369 b 471 88 239 185 299 88 b 703 369 643 88 703 185 l 703 969 l 829 969 l 829 1125 l 928 1125 l 928 983 b 840 896 928 935 910 896 l 819 896 l 819 397 b 467 -17 819 115 725 -17 b 122 397 208 -17 122 115 l 122 969 m 478 1049 l 406 1082 l 524 1318 l 625 1269 "},"Ự":{"ha":942,"x_min":0,"x_max":0,"o":"m 239 969 l 239 369 b 471 88 239 185 299 88 b 703 369 643 88 703 185 l 703 969 l 829 969 l 829 1125 l 928 1125 l 928 983 b 840 896 928 935 910 896 l 819 896 l 819 397 b 467 -17 819 115 725 -17 b 122 397 208 -17 122 115 l 122 969 m 468 -235 b 397 -171 421 -235 397 -210 l 397 -156 b 468 -92 397 -117 421 -92 b 539 -156 515 -92 539 -117 l 539 -171 b 468 -235 539 -210 515 -235 "},"Ừ":{"ha":942,"x_min":0,"x_max":0,"o":"m 239 969 l 239 369 b 471 88 239 185 299 88 b 703 369 643 88 703 185 l 703 969 l 829 969 l 829 1125 l 928 1125 l 928 983 b 840 896 928 935 910 896 l 819 896 l 819 397 b 467 -17 819 115 725 -17 b 122 397 208 -17 122 115 l 122 969 m 311 1269 l 413 1318 l 531 1082 l 458 1049 "},"Ử":{"ha":942,"x_min":0,"x_max":0,"o":"m 239 969 l 239 369 b 471 88 239 185 299 88 b 703 369 643 88 703 185 l 703 969 l 829 969 l 829 1125 l 928 1125 l 928 983 b 840 896 928 935 910 896 l 819 896 l 819 397 b 467 -17 819 115 725 -17 b 122 397 208 -17 122 115 l 122 969 m 351 1299 l 503 1299 b 600 1222 574 1299 600 1264 b 532 1079 600 1182 575 1133 l 499 1038 l 435 1069 l 515 1214 l 351 1214 "},"Ữ":{"ha":942,"x_min":0,"x_max":0,"o":"m 239 969 l 239 369 b 471 88 239 185 299 88 b 703 369 643 88 703 185 l 703 969 l 829 969 l 829 1125 l 928 1125 l 928 983 b 840 896 928 935 910 896 l 819 896 l 819 397 b 467 -17 819 115 725 -17 b 122 397 208 -17 122 115 l 122 969 m 556 1092 b 458 1122 513 1092 483 1110 b 379 1150 424 1140 404 1150 b 300 1113 350 1150 326 1136 l 254 1168 b 381 1242 279 1206 321 1242 b 478 1211 424 1242 453 1224 b 557 1183 513 1193 532 1183 b 636 1221 586 1183 610 1197 l 682 1165 b 556 1092 657 1128 615 1092 "},"Ǖ":{"ha":942,"x_min":0,"x_max":0,"o":"m 239 969 l 239 369 b 471 88 239 185 299 88 b 703 369 643 88 703 185 l 703 969 l 819 969 l 819 397 b 467 -17 819 115 725 -17 b 122 397 208 -17 122 115 l 122 969 m 274 1371 l 663 1371 l 663 1276 l 274 1276 m 331 1065 b 261 1131 283 1065 261 1092 l 261 1147 b 331 1213 261 1186 283 1213 b 400 1147 378 1213 400 1186 l 400 1131 b 331 1065 400 1092 378 1065 m 606 1065 b 536 1131 558 1065 536 1092 l 536 1147 b 606 1213 536 1186 558 1213 b 675 1147 653 1213 675 1186 l 675 1131 b 606 1065 675 1092 653 1065 "},"Ǘ":{"ha":942,"x_min":0,"x_max":0,"o":"m 239 969 l 239 369 b 471 88 239 185 299 88 b 703 369 643 88 703 185 l 703 969 l 819 969 l 819 397 b 467 -17 819 115 725 -17 b 122 397 208 -17 122 115 l 122 969 m 485 1206 l 417 1238 l 535 1474 l 632 1426 m 331 1065 b 261 1131 283 1065 261 1092 l 261 1147 b 331 1213 261 1186 283 1213 b 400 1147 378 1213 400 1186 l 400 1131 b 331 1065 400 1092 378 1065 m 606 1065 b 536 1131 558 1065 536 1092 l 536 1147 b 606 1213 536 1186 558 1213 b 675 1147 653 1213 675 1186 l 675 1131 b 606 1065 675 1092 653 1065 "},"Ǜ":{"ha":942,"x_min":0,"x_max":0,"o":"m 239 969 l 239 369 b 471 88 239 185 299 88 b 703 369 643 88 703 185 l 703 969 l 819 969 l 819 397 b 467 -17 819 115 725 -17 b 122 397 208 -17 122 115 l 122 969 m 304 1426 l 401 1474 l 519 1238 l 451 1206 m 331 1065 b 261 1131 283 1065 261 1092 l 261 1147 b 331 1213 261 1186 283 1213 b 400 1147 378 1213 400 1186 l 400 1131 b 331 1065 400 1092 378 1065 m 606 1065 b 536 1131 558 1065 536 1092 l 536 1147 b 606 1213 536 1186 558 1213 b 675 1147 653 1213 675 1186 l 675 1131 b 606 1065 675 1092 653 1065 "},"Ǚ":{"ha":942,"x_min":0,"x_max":0,"o":"m 239 969 l 239 369 b 471 88 239 185 299 88 b 703 369 643 88 703 185 l 703 969 l 819 969 l 819 397 b 467 -17 819 115 725 -17 b 122 397 208 -17 122 115 l 122 969 m 399 1243 l 246 1429 l 303 1471 l 468 1315 l 633 1471 l 690 1429 l 538 1243 m 331 1065 b 261 1131 283 1065 261 1092 l 261 1147 b 331 1213 261 1186 283 1213 b 400 1147 378 1213 400 1186 l 400 1131 b 331 1065 400 1092 378 1065 m 606 1065 b 536 1131 558 1065 536 1092 l 536 1147 b 606 1213 536 1186 558 1213 b 675 1147 653 1213 675 1186 l 675 1131 b 606 1065 675 1092 653 1065 "},"Ẃ":{"ha":1238,"x_min":0,"x_max":0,"o":"m 264 0 l 28 969 l 151 969 l 256 503 l 336 140 l 339 140 l 429 503 l 551 969 l 685 969 l 803 503 l 893 142 l 897 142 l 981 503 l 1090 969 l 1210 969 l 961 0 l 832 0 l 706 483 l 617 839 l 614 839 l 522 483 l 393 0 m 629 1049 l 557 1082 l 675 1318 l 776 1269 "},"Ŵ":{"ha":1238,"x_min":0,"x_max":0,"o":"m 264 0 l 28 969 l 151 969 l 256 503 l 336 140 l 339 140 l 429 503 l 551 969 l 685 969 l 803 503 l 893 142 l 897 142 l 981 503 l 1090 969 l 1210 969 l 961 0 l 832 0 l 706 483 l 617 839 l 614 839 l 522 483 l 393 0 m 689 1299 l 843 1100 l 782 1057 l 619 1219 l 457 1057 l 396 1100 l 550 1299 "},"Ẅ":{"ha":1238,"x_min":0,"x_max":0,"o":"m 264 0 l 28 969 l 151 969 l 256 503 l 336 140 l 339 140 l 429 503 l 551 969 l 685 969 l 803 503 l 893 142 l 897 142 l 981 503 l 1090 969 l 1210 969 l 961 0 l 832 0 l 706 483 l 617 839 l 614 839 l 522 483 l 393 0 m 490 1094 b 421 1160 443 1094 421 1121 l 421 1176 b 490 1242 421 1215 443 1242 b 560 1176 538 1242 560 1215 l 560 1160 b 490 1094 560 1121 538 1094 m 749 1094 b 679 1160 701 1094 679 1121 l 679 1176 b 749 1242 679 1215 701 1242 b 818 1176 796 1242 818 1215 l 818 1160 b 749 1094 818 1121 796 1094 "},"Ẁ":{"ha":1238,"x_min":0,"x_max":0,"o":"m 264 0 l 28 969 l 151 969 l 256 503 l 336 140 l 339 140 l 429 503 l 551 969 l 685 969 l 803 503 l 893 142 l 897 142 l 981 503 l 1090 969 l 1210 969 l 961 0 l 832 0 l 706 483 l 617 839 l 614 839 l 522 483 l 393 0 m 463 1269 l 564 1318 l 682 1082 l 610 1049 "},"Ý":{"ha":824,"x_min":0,"x_max":0,"o":"m 351 0 l 351 383 l 18 969 l 151 969 l 410 503 l 414 503 l 672 969 l 806 969 l 468 388 l 468 0 m 422 1049 l 350 1082 l 468 1318 l 569 1269 "},"Ŷ":{"ha":824,"x_min":0,"x_max":0,"o":"m 351 0 l 351 383 l 18 969 l 151 969 l 410 503 l 414 503 l 672 969 l 806 969 l 468 388 l 468 0 m 482 1299 l 636 1100 l 575 1057 l 413 1219 l 250 1057 l 189 1100 l 343 1299 "},"Ỵ":{"ha":824,"x_min":0,"x_max":0,"o":"m 351 0 l 351 383 l 18 969 l 151 969 l 410 503 l 414 503 l 672 969 l 806 969 l 468 388 l 468 0 m 413 -235 b 342 -171 365 -235 342 -210 l 342 -156 b 413 -92 342 -117 365 -92 b 483 -156 460 -92 483 -117 l 483 -171 b 413 -235 483 -210 460 -235 "},"Ÿ":{"ha":824,"x_min":0,"x_max":0,"o":"m 351 0 l 351 383 l 18 969 l 151 969 l 410 503 l 414 503 l 672 969 l 806 969 l 468 388 l 468 0 m 283 1094 b 214 1160 236 1094 214 1121 l 214 1176 b 283 1242 214 1215 236 1242 b 353 1176 331 1242 353 1215 l 353 1160 b 283 1094 353 1121 331 1094 m 542 1094 b 472 1160 494 1094 472 1121 l 472 1176 b 542 1242 472 1215 494 1242 b 611 1176 589 1242 611 1215 l 611 1160 b 542 1094 611 1121 589 1094 "},"Ỳ":{"ha":824,"x_min":0,"x_max":0,"o":"m 351 0 l 351 383 l 18 969 l 151 969 l 410 503 l 414 503 l 672 969 l 806 969 l 468 388 l 468 0 m 256 1269 l 357 1318 l 475 1082 l 403 1049 "},"Ỷ":{"ha":824,"x_min":0,"x_max":0,"o":"m 351 0 l 351 383 l 18 969 l 151 969 l 410 503 l 414 503 l 672 969 l 806 969 l 468 388 l 468 0 m 296 1299 l 447 1299 b 544 1222 518 1299 544 1264 b 476 1079 544 1182 519 1133 l 443 1038 l 379 1069 l 460 1214 l 296 1214 "},"Ỹ":{"ha":824,"x_min":0,"x_max":0,"o":"m 351 0 l 351 383 l 18 969 l 151 969 l 410 503 l 414 503 l 672 969 l 806 969 l 468 388 l 468 0 m 514 1086 b 403 1122 465 1086 432 1107 b 306 1156 358 1146 329 1156 b 225 1118 275 1156 253 1142 l 179 1174 b 311 1247 204 1211 247 1247 b 422 1211 360 1247 393 1226 b 519 1178 467 1188 496 1178 b 600 1215 550 1178 572 1192 l 646 1160 b 514 1086 621 1122 578 1086 "},"Ź":{"ha":806,"x_min":0,"x_max":0,"o":"m 756 0 l 50 0 l 50 106 l 610 867 l 79 867 l 79 969 l 736 969 l 736 864 l 175 103 l 756 103 m 422 1049 l 350 1082 l 468 1318 l 569 1269 "},"Ž":{"ha":806,"x_min":0,"x_max":0,"o":"m 756 0 l 50 0 l 50 106 l 610 867 l 79 867 l 79 969 l 736 969 l 736 864 l 175 103 l 756 103 m 343 1068 l 189 1267 l 250 1310 l 413 1147 l 575 1310 l 636 1267 l 482 1068 "},"Ż":{"ha":806,"x_min":0,"x_max":0,"o":"m 756 0 l 50 0 l 50 106 l 610 867 l 79 867 l 79 969 l 736 969 l 736 864 l 175 103 l 756 103 m 413 1083 b 335 1157 360 1083 335 1113 l 335 1176 b 413 1250 335 1221 360 1250 b 490 1176 465 1250 490 1221 l 490 1157 b 413 1083 490 1113 465 1083 "},"µ":{"ha":796,"x_min":0,"x_max":0,"o":"m 118 -278 l 118 717 l 229 717 l 229 276 b 392 83 229 149 286 83 b 567 222 481 83 567 128 l 567 717 l 678 717 l 678 0 l 567 0 l 567 117 l 561 117 b 364 -17 533 49 478 -17 b 224 56 294 -17 250 7 l 219 56 l 229 -62 l 229 -278 "},"∆":{"ha":893,"x_min":0,"x_max":0,"o":"m 61 104 l 372 969 l 521 969 l 832 104 l 832 0 l 61 0 m 447 861 l 440 861 l 179 103 l 708 103 "},"∏":{"ha":981,"x_min":0,"x_max":0,"o":"m 178 -278 l 178 867 l 67 867 l 67 969 l 914 969 l 914 867 l 803 867 l 803 -278 l 686 -278 l 686 867 l 294 867 l 294 -278 "},"∑":{"ha":700,"x_min":0,"x_max":0,"o":"m 650 -278 l 25 -278 l 25 -174 l 388 343 l 388 349 l 25 865 l 25 969 l 650 969 l 650 867 l 151 867 l 490 383 l 490 308 l 151 -175 l 650 -175 "},"Ω":{"ha":994,"x_min":0,"x_max":0,"o":"m 81 103 l 301 103 l 301 117 b 86 525 188 179 86 319 b 497 986 86 753 211 986 b 908 525 783 986 908 753 b 693 117 908 319 807 179 l 693 103 l 914 103 l 914 0 l 594 0 l 594 154 b 783 474 683 188 783 328 l 783 599 b 497 882 783 733 678 882 b 211 599 317 882 211 733 l 211 474 b 400 154 211 328 311 188 l 400 0 l 81 0 "},"α":{"ha":894,"x_min":0,"x_max":0,"o":"m 844 0 l 782 0 b 654 115 707 0 668 32 l 631 256 l 625 256 b 357 -17 588 76 507 -17 b 69 358 185 -17 69 132 b 357 733 69 585 185 733 b 628 461 504 733 589 644 l 633 461 l 674 615 l 711 717 l 833 717 l 682 361 l 769 97 l 844 97 m 357 82 b 533 240 440 82 488 115 l 576 358 l 533 476 b 357 635 488 601 440 635 b 189 408 269 635 189 558 l 189 308 b 357 82 189 158 269 82 "},"β":{"ha":811,"x_min":0,"x_max":0,"o":"m 118 724 b 411 1044 118 918 219 1044 b 686 797 576 1044 686 950 b 500 565 686 656 590 581 l 500 560 b 736 293 613 546 736 478 b 439 -17 736 118 624 -17 b 235 83 347 -17 275 17 l 229 83 l 229 -278 l 118 -278 m 342 608 l 407 608 b 567 765 518 608 567 671 l 567 799 b 404 944 567 888 515 944 b 229 732 286 944 229 881 l 229 190 b 411 83 229 122 314 83 b 617 281 540 83 617 154 l 617 314 b 414 511 617 440 539 511 l 342 511 "},"γ":{"ha":697,"x_min":0,"x_max":0,"o":"m 300 0 l 89 619 l 14 619 l 14 717 l 76 717 b 196 635 138 717 175 697 l 288 360 l 353 131 l 360 131 l 433 360 l 565 717 l 672 717 l 411 0 l 411 -278 l 300 -278 "},"δ":{"ha":778,"x_min":0,"x_max":0,"o":"m 360 931 l 263 938 l 263 932 l 461 774 b 713 360 650 624 713 510 b 389 -17 713 126 581 -17 b 65 347 197 -17 65 131 b 364 717 65 589 206 717 l 364 724 l 163 899 l 163 1028 l 638 1028 l 638 931 m 593 335 b 418 676 593 474 564 544 b 185 385 286 660 185 561 l 185 310 b 389 82 185 156 269 82 b 593 310 508 82 593 156 l 593 335 "},"ε":{"ha":719,"x_min":0,"x_max":0,"o":"m 681 138 b 369 -17 622 35 521 -17 b 83 190 176 -17 83 67 b 260 368 83 290 144 347 l 260 374 b 99 526 160 385 99 438 b 382 733 99 644 206 733 b 674 593 521 733 624 679 l 593 529 b 381 635 557 596 483 635 b 218 536 264 635 218 585 l 218 519 b 354 417 218 460 269 417 l 524 417 l 524 324 l 354 324 b 203 213 254 324 203 285 l 203 196 b 376 82 203 124 261 82 b 601 194 488 82 561 121 "},"ζ":{"ha":594,"x_min":0,"x_max":0,"o":"m 89 1028 l 578 1028 l 578 944 l 333 638 b 185 318 215 490 185 399 l 185 299 b 363 110 185 199 235 143 l 463 83 b 556 -19 528 67 556 29 b 549 -65 556 -33 553 -49 l 507 -221 l 401 -194 l 449 -18 l 349 7 b 65 308 138 60 65 136 b 236 671 65 404 96 494 l 443 931 l 443 938 l 357 931 l 89 931 "},"η":{"ha":796,"x_min":0,"x_max":0,"o":"m 125 0 l 125 619 l 43 619 l 43 717 l 118 717 b 236 600 194 717 236 668 l 242 600 b 444 733 276 681 338 733 b 685 460 592 733 685 633 l 685 -278 l 574 -278 l 574 440 b 411 633 574 568 518 633 b 236 497 322 633 236 589 l 236 0 "},"θ":{"ha":781,"x_min":0,"x_max":0,"o":"m 390 1044 b 703 514 588 1044 703 914 b 390 -17 703 114 588 -17 b 78 514 193 -17 78 114 b 390 1044 78 914 193 1044 m 197 563 l 583 563 l 583 650 b 390 949 583 868 513 949 b 197 650 268 949 197 868 m 390 79 b 583 378 513 79 583 160 l 583 465 l 197 465 l 197 378 b 390 79 197 160 268 79 "},"ι":{"ha":410,"x_min":0,"x_max":0,"o":"m 375 0 l 236 0 b 118 118 160 0 118 49 l 118 717 l 229 717 l 229 97 l 375 97 "},"κ":{"ha":732,"x_min":0,"x_max":0,"o":"m 322 342 l 229 242 l 229 0 l 118 0 l 118 717 l 229 717 l 229 365 l 235 365 l 304 447 l 517 676 b 608 717 544 707 569 717 l 676 717 l 676 619 l 594 619 l 401 411 l 708 0 l 574 0 "},"λ":{"ha":707,"x_min":0,"x_max":0,"o":"m 225 931 l 81 931 l 81 1028 l 213 1028 b 331 949 282 1028 314 1001 l 607 97 l 696 97 l 696 0 l 619 0 b 501 79 550 0 518 26 l 411 358 l 346 606 l 339 606 l 258 358 l 118 0 l 8 0 l 294 717 "},"μ":{"ha":803,"x_min":0,"x_max":0,"o":"m 118 -278 l 118 717 l 229 717 l 229 276 b 393 83 229 149 286 83 b 567 222 481 83 567 128 l 567 717 l 678 717 l 678 97 l 760 97 l 760 0 l 685 0 b 567 117 608 0 567 49 l 561 117 b 386 -17 528 28 469 -17 b 211 117 297 -17 236 33 l 206 117 l 229 -90 l 229 -278 "},"ν":{"ha":710,"x_min":0,"x_max":0,"o":"m 296 0 l 89 619 l 14 619 l 14 717 l 76 717 b 196 635 138 717 175 697 l 285 360 l 358 117 l 365 117 l 446 360 l 578 717 l 685 717 l 425 0 "},"ξ":{"ha":633,"x_min":0,"x_max":0,"o":"m 410 931 b 244 753 310 931 244 867 l 244 733 b 397 582 244 636 299 582 l 518 582 l 518 485 l 397 485 b 194 310 251 485 194 421 l 194 290 b 375 111 194 199 247 144 l 481 83 b 574 -19 546 67 574 29 b 567 -65 574 -33 571 -49 l 525 -221 l 419 -194 l 467 -18 l 361 8 b 75 300 150 61 75 136 b 288 533 75 422 154 517 l 288 539 b 125 743 176 567 125 632 b 253 921 125 829 169 893 l 253 931 l 63 931 l 63 1028 l 594 1028 l 594 931 "},"ο":{"ha":778,"x_min":0,"x_max":0,"o":"m 389 -17 b 65 358 197 -17 65 131 b 389 733 65 586 197 733 b 713 358 581 733 713 586 b 389 -17 713 131 581 -17 m 389 82 b 593 307 508 82 593 156 l 593 410 b 389 635 593 561 508 635 b 185 410 269 635 185 561 l 185 307 b 389 82 185 156 269 82 "},"π":{"ha":864,"x_min":0,"x_max":0,"o":"m 676 97 l 765 97 l 765 0 l 683 0 b 565 114 607 0 565 50 l 565 619 l 276 619 l 276 0 l 165 0 l 165 619 l 33 619 l 33 717 l 819 717 l 819 619 l 676 619 "},"ρ":{"ha":767,"x_min":0,"x_max":0,"o":"m 81 411 b 392 733 81 589 186 733 b 697 364 592 733 697 597 b 403 -17 697 124 586 -17 b 197 82 310 -17 235 19 l 192 82 l 192 -278 l 81 -278 m 375 83 b 578 307 511 83 578 164 l 578 410 b 385 633 578 553 507 633 b 192 410 263 633 192 553 l 192 190 b 375 83 192 124 279 83 "},"ς":{"ha":671,"x_min":0,"x_max":0,"o":"m 476 -18 l 308 28 b 65 361 146 71 65 172 b 369 733 65 593 183 733 b 625 565 494 733 581 669 l 532 518 b 367 635 506 592 446 635 b 185 419 254 635 185 546 l 185 325 b 363 118 185 218 242 151 l 490 83 b 583 -19 556 67 583 29 b 576 -65 583 -33 581 -49 l 535 -221 l 429 -194 "},"σ":{"ha":810,"x_min":0,"x_max":0,"o":"m 583 619 l 583 610 b 713 350 675 567 713 485 b 389 -17 713 131 581 -17 b 65 350 197 -17 65 131 b 406 717 65 569 186 717 l 775 717 l 775 619 m 406 619 b 185 393 269 619 185 544 l 185 307 b 389 82 185 156 269 82 b 593 307 508 82 593 156 l 593 393 b 503 619 593 494 564 557 "},"τ":{"ha":663,"x_min":0,"x_max":0,"o":"m 379 0 b 261 118 303 0 261 49 l 261 619 l 28 619 l 28 717 l 618 717 l 618 619 l 372 619 l 372 97 l 532 97 l 532 0 "},"υ":{"ha":789,"x_min":0,"x_max":0,"o":"m 222 325 b 394 82 222 158 272 82 b 567 325 517 82 567 158 l 567 717 l 678 717 l 678 342 b 394 -17 678 94 582 -17 b 111 342 207 -17 111 94 l 111 717 l 222 717 "},"φ":{"ha":993,"x_min":0,"x_max":0,"o":"m 426 -17 b 69 347 221 -17 69 128 b 271 733 69 544 143 672 l 333 656 b 189 374 233 606 189 524 l 189 319 b 426 82 189 154 296 82 l 426 381 b 669 733 426 629 514 733 b 921 381 833 733 921 629 b 538 -17 921 122 776 -17 l 538 -278 l 426 -278 m 538 82 b 801 319 696 82 801 147 l 801 415 b 669 635 801 581 751 635 b 538 415 588 635 538 581 "},"χ":{"ha":689,"x_min":0,"x_max":0,"o":"m 100 717 b 219 638 167 717 194 697 l 349 333 l 353 333 l 539 717 l 661 717 l 413 239 l 590 -181 l 686 -181 l 686 -278 l 603 -278 b 483 -199 536 -278 507 -257 l 344 138 l 340 138 l 146 -278 l 24 -278 l 281 232 l 113 619 l 17 619 l 17 717 "},"ψ":{"ha":1008,"x_min":0,"x_max":0,"o":"m 449 -278 l 449 -17 b 111 358 232 -17 111 122 l 111 717 l 222 717 l 222 325 b 449 82 222 167 296 82 l 449 986 l 560 986 l 560 82 b 786 325 713 82 786 167 l 786 717 l 897 717 l 897 358 b 560 -17 897 122 776 -17 l 560 -278 "},"ω":{"ha":1022,"x_min":0,"x_max":0,"o":"m 567 301 b 699 82 567 136 617 82 b 831 301 781 82 831 136 l 831 374 b 686 656 831 514 783 608 l 749 733 b 950 336 878 674 950 553 b 713 -17 950 88 856 -17 b 514 160 599 -17 536 56 l 508 160 b 310 -17 486 56 424 -17 b 72 336 167 -17 72 88 b 274 733 72 544 146 672 l 336 656 b 192 374 236 606 192 524 l 192 301 b 324 82 192 136 242 82 b 456 301 406 82 456 136 l 456 485 l 567 485 "},"Α":{"ha":890,"x_min":0,"x_max":0,"o":"m 736 0 l 639 286 l 247 286 l 150 0 l 32 0 l 371 969 l 519 969 l 858 0 m 446 861 l 439 861 l 275 389 l 610 389 "},"Β":{"ha":907,"x_min":0,"x_max":0,"o":"m 129 969 l 528 969 b 786 719 688 969 786 871 b 629 514 786 575 693 524 l 629 506 b 819 281 699 501 819 442 b 569 0 819 121 713 0 l 129 0 m 246 103 l 533 103 b 694 253 633 103 694 156 l 694 300 b 533 450 694 397 633 450 l 246 450 m 246 550 l 514 550 b 661 685 606 550 661 599 l 661 732 b 514 867 661 818 606 867 l 246 867 "},"Γ":{"ha":693,"x_min":0,"x_max":0,"o":"m 129 969 l 657 969 l 657 867 l 246 867 l 246 0 l 129 0 "},"Δ":{"ha":893,"x_min":0,"x_max":0,"o":"m 61 104 l 372 969 l 521 969 l 832 104 l 832 0 l 61 0 m 447 861 l 440 861 l 179 103 l 708 103 "},"Ε":{"ha":810,"x_min":0,"x_max":0,"o":"m 129 0 l 129 969 l 721 969 l 721 867 l 246 867 l 246 542 l 693 542 l 693 439 l 246 439 l 246 103 l 721 103 l 721 0 "},"Ζ":{"ha":806,"x_min":0,"x_max":0,"o":"m 756 0 l 50 0 l 50 106 l 610 867 l 79 867 l 79 969 l 736 969 l 736 864 l 175 103 l 756 103 "},"Η":{"ha":982,"x_min":0,"x_max":0,"o":"m 736 439 l 246 439 l 246 0 l 129 0 l 129 969 l 246 969 l 246 542 l 736 542 l 736 969 l 853 969 l 853 0 l 736 0 "},"Θ":{"ha":983,"x_min":0,"x_max":0,"o":"m 492 -17 b 81 485 242 -17 81 160 b 492 986 81 810 242 986 b 903 485 742 986 903 810 b 492 -17 903 160 742 -17 m 492 88 b 778 404 660 88 778 213 l 778 565 b 492 882 778 757 660 882 b 206 565 324 882 206 757 l 206 404 b 492 88 206 213 324 88 m 282 439 l 282 542 l 701 542 l 701 439 "},"Ι":{"ha":556,"x_min":0,"x_max":0,"o":"m 83 0 l 83 97 l 219 97 l 219 872 l 83 872 l 83 969 l 472 969 l 472 872 l 336 872 l 336 97 l 472 97 l 472 0 "},"Κ":{"ha":881,"x_min":0,"x_max":0,"o":"m 383 476 l 246 324 l 246 0 l 129 0 l 129 969 l 246 969 l 246 454 l 250 454 l 389 622 l 682 969 l 825 969 l 464 554 l 850 0 l 706 0 "},"Λ":{"ha":874,"x_min":0,"x_max":0,"o":"m 511 969 l 842 0 l 719 0 l 560 489 l 438 861 l 431 861 l 310 489 l 150 0 l 32 0 l 363 969 "},"Μ":{"ha":1128,"x_min":0,"x_max":0,"o":"m 129 969 l 285 969 l 563 447 l 569 447 l 849 969 l 999 969 l 999 0 l 885 0 l 885 817 l 878 817 l 796 654 l 564 232 l 332 654 l 250 817 l 243 817 l 243 0 l 129 0 "},"Ν":{"ha":982,"x_min":0,"x_max":0,"o":"m 364 592 l 247 807 l 243 807 l 243 0 l 129 0 l 129 969 l 264 969 l 618 378 l 735 163 l 739 163 l 739 969 l 853 969 l 853 0 l 718 0 "},"Ξ":{"ha":811,"x_min":0,"x_max":0,"o":"m 89 969 l 722 969 l 722 867 l 89 867 m 144 542 l 667 542 l 667 439 l 144 439 m 89 103 l 722 103 l 722 0 l 89 0 "},"Ο":{"ha":983,"x_min":0,"x_max":0,"o":"m 492 -17 b 81 485 242 -17 81 160 b 492 986 81 810 242 986 b 903 485 742 986 903 810 b 492 -17 903 160 742 -17 m 492 88 b 778 404 660 88 778 213 l 778 565 b 492 882 778 757 660 882 b 206 565 324 882 206 757 l 206 404 b 492 88 206 213 324 88 "},"Π":{"ha":963,"x_min":0,"x_max":0,"o":"m 129 969 l 833 969 l 833 0 l 717 0 l 717 867 l 246 867 l 246 0 l 129 0 "},"Ρ":{"ha":842,"x_min":0,"x_max":0,"o":"m 129 0 l 129 969 l 515 969 b 786 692 689 969 786 863 b 515 414 786 521 689 414 l 246 414 l 246 0 m 246 517 l 515 517 b 661 656 607 517 661 567 l 661 728 b 515 867 661 817 607 867 l 246 867 "},"Σ":{"ha":790,"x_min":0,"x_max":0,"o":"m 56 0 l 56 106 l 400 489 l 67 864 l 67 969 l 707 969 l 707 867 l 206 867 l 539 492 l 189 103 l 707 103 l 707 0 "},"Τ":{"ha":794,"x_min":0,"x_max":0,"o":"m 456 867 l 456 0 l 339 0 l 339 867 l 31 867 l 31 969 l 764 969 l 764 867 "},"Υ":{"ha":824,"x_min":0,"x_max":0,"o":"m 351 0 l 351 383 l 18 969 l 151 969 l 410 503 l 414 503 l 672 969 l 806 969 l 468 388 l 468 0 "},"Φ":{"ha":1183,"x_min":0,"x_max":0,"o":"m 533 43 l 508 43 b 75 492 228 43 75 236 b 508 940 75 747 228 940 l 533 940 l 533 1007 l 650 1007 l 650 940 l 675 940 b 1108 492 956 940 1108 747 b 675 43 1108 236 956 43 l 650 43 l 650 -40 l 533 -40 m 536 843 l 508 843 b 200 535 319 843 200 710 l 200 449 b 508 140 200 274 319 140 l 536 140 m 675 140 b 983 449 864 140 983 274 l 983 535 b 675 843 983 710 864 843 l 647 843 l 647 140 "},"Χ":{"ha":851,"x_min":0,"x_max":0,"o":"m 350 493 l 42 969 l 182 969 l 425 583 l 428 583 l 676 969 l 810 969 l 499 497 l 818 0 l 678 0 l 424 407 l 421 407 l 167 0 l 33 0 "},"Ψ":{"ha":1097,"x_min":0,"x_max":0,"o":"m 490 282 b 94 650 257 282 94 397 l 94 969 l 211 969 l 211 650 b 490 379 211 447 335 379 l 490 969 l 607 969 l 607 379 b 886 650 763 379 886 447 l 886 969 l 1003 969 l 1003 650 b 607 282 1003 397 840 282 l 607 0 l 490 0 "},"Ω":{"ha":994,"x_min":0,"x_max":0,"o":"m 81 103 l 301 103 l 301 117 b 86 525 188 179 86 319 b 497 986 86 753 211 986 b 908 525 783 986 908 753 b 693 117 908 319 807 179 l 693 103 l 914 103 l 914 0 l 594 0 l 594 154 b 783 474 683 188 783 328 l 783 599 b 497 882 783 733 678 882 b 211 599 317 882 211 733 l 211 474 b 400 154 211 328 311 188 l 400 0 l 81 0 "},"ά":{"ha":894,"x_min":0,"x_max":0,"o":"m 844 0 l 782 0 b 654 115 707 0 668 32 l 631 256 l 625 256 b 357 -17 588 76 507 -17 b 69 358 185 -17 69 132 b 357 733 69 585 185 733 b 628 461 504 733 589 644 l 633 461 l 674 615 l 711 717 l 833 717 l 682 361 l 769 97 l 844 97 m 357 82 b 533 240 440 82 488 115 l 576 358 l 533 476 b 357 635 488 601 440 635 b 189 408 269 635 189 558 l 189 308 b 357 82 189 158 269 82 m 406 813 l 326 822 l 367 1083 l 478 1068 "},"έ":{"ha":719,"x_min":0,"x_max":0,"o":"m 681 138 b 369 -17 622 35 521 -17 b 83 190 176 -17 83 67 b 260 368 83 290 144 347 l 260 374 b 99 526 160 385 99 438 b 382 733 99 644 206 733 b 674 593 521 733 624 679 l 593 529 b 381 635 557 596 483 635 b 218 536 264 635 218 585 l 218 519 b 354 417 218 460 269 417 l 524 417 l 524 324 l 354 324 b 203 213 254 324 203 285 l 203 196 b 376 82 203 124 261 82 b 601 194 488 82 561 121 m 414 813 l 335 822 l 375 1083 l 486 1068 "},"ή":{"ha":796,"x_min":0,"x_max":0,"o":"m 125 0 l 125 619 l 43 619 l 43 717 l 118 717 b 236 600 194 717 236 668 l 242 600 b 444 733 276 681 338 733 b 685 460 592 733 685 633 l 685 -278 l 574 -278 l 574 440 b 411 633 574 568 518 633 b 236 497 322 633 236 589 l 236 0 m 443 813 l 364 822 l 404 1083 l 515 1068 "},"ί":{"ha":410,"x_min":0,"x_max":0,"o":"m 375 0 l 236 0 b 118 118 160 0 118 49 l 118 717 l 229 717 l 229 97 l 375 97 m 217 813 l 138 822 l 178 1083 l 289 1068 "},"ϊ":{"ha":410,"x_min":0,"x_max":0,"o":"m 375 0 l 236 0 b 118 118 160 0 118 49 l 118 717 l 229 717 l 229 97 l 375 97 m 54 858 b -14 922 7 858 -14 883 l -14 938 b 54 1001 -14 976 7 1001 b 122 938 101 1001 122 976 l 122 922 b 54 858 122 883 101 858 m 313 858 b 244 922 265 858 244 883 l 244 938 b 313 1001 244 976 265 1001 b 381 938 360 1001 381 976 l 381 922 b 313 858 381 883 360 858 "},"ΐ":{"ha":410,"x_min":0,"x_max":0,"o":"m 375 0 l 236 0 b 118 118 160 0 118 49 l 118 717 l 229 717 l 229 97 l 375 97 m 28 858 b -35 922 -14 858 -35 883 l -35 938 b 28 1001 -35 976 -14 1001 b 90 938 69 1001 90 976 l 90 922 b 28 858 90 883 69 858 m 197 813 l 129 822 l 169 1083 l 269 1068 m 353 858 b 290 922 311 858 290 883 l 290 938 b 353 1001 290 976 311 1001 b 415 938 394 1001 415 976 l 415 922 b 353 858 415 883 394 858 "},"ό":{"ha":778,"x_min":0,"x_max":0,"o":"m 389 -17 b 65 358 197 -17 65 131 b 389 733 65 586 197 733 b 713 358 581 733 713 586 b 389 -17 713 131 581 -17 m 389 82 b 593 307 508 82 593 156 l 593 410 b 389 635 593 561 508 635 b 185 410 269 635 185 561 l 185 307 b 389 82 185 156 269 82 m 422 813 l 343 822 l 383 1083 l 494 1068 "},"ύ":{"ha":789,"x_min":0,"x_max":0,"o":"m 222 325 b 394 82 222 158 272 82 b 567 325 517 82 567 158 l 567 717 l 678 717 l 678 342 b 394 -17 678 94 582 -17 b 111 342 207 -17 111 94 l 111 717 l 222 717 m 428 813 l 349 822 l 389 1083 l 500 1068 "},"ϋ":{"ha":789,"x_min":0,"x_max":0,"o":"m 222 325 b 394 82 222 158 272 82 b 567 325 517 82 567 158 l 567 717 l 678 717 l 678 342 b 394 -17 678 94 582 -17 b 111 342 207 -17 111 94 l 111 717 l 222 717 m 265 858 b 197 922 218 858 197 883 l 197 938 b 265 1001 197 976 218 1001 b 333 938 313 1001 333 976 l 333 922 b 265 858 333 883 313 858 m 524 858 b 456 922 476 858 456 883 l 456 938 b 524 1001 456 976 476 1001 b 592 938 571 1001 592 976 l 592 922 b 524 858 592 883 571 858 "},"ΰ":{"ha":789,"x_min":0,"x_max":0,"o":"m 222 325 b 394 82 222 158 272 82 b 567 325 517 82 567 158 l 567 717 l 678 717 l 678 342 b 394 -17 678 94 582 -17 b 111 342 207 -17 111 94 l 111 717 l 222 717 m 239 858 b 176 922 197 858 176 883 l 176 938 b 239 1001 176 976 197 1001 b 301 938 281 1001 301 976 l 301 922 b 239 858 301 883 281 858 m 408 813 l 340 822 l 381 1083 l 481 1068 m 564 858 b 501 922 522 858 501 883 l 501 938 b 564 1001 501 976 522 1001 b 626 938 606 1001 626 976 l 626 922 b 564 858 626 883 606 858 "},"ώ":{"ha":1022,"x_min":0,"x_max":0,"o":"m 567 301 b 699 82 567 136 617 82 b 831 301 781 82 831 136 l 831 374 b 686 656 831 514 783 608 l 749 733 b 950 336 878 674 950 553 b 713 -17 950 88 856 -17 b 514 160 599 -17 536 56 l 508 160 b 310 -17 486 56 424 -17 b 72 336 167 -17 72 88 b 274 733 72 544 146 672 l 336 656 b 192 374 236 606 192 524 l 192 301 b 324 82 192 136 242 82 b 456 301 406 82 456 136 l 456 485 l 567 485 m 544 813 l 465 822 l 506 1083 l 617 1068 "},"Ά":{"ha":890,"x_min":0,"x_max":0,"o":"m 736 0 l 639 286 l 247 286 l 150 0 l 32 0 l 371 969 l 519 969 l 858 0 m 446 861 l 439 861 l 275 389 l 610 389 m 125 813 l 46 822 l 86 1083 l 197 1068 "},"Έ":{"ha":846,"x_min":0,"x_max":0,"o":"m 165 0 l 165 969 l 757 969 l 757 867 l 282 867 l 282 542 l 729 542 l 729 439 l 282 439 l 282 103 l 757 103 l 757 0 m 44 813 l -35 822 l 6 1083 l 117 1068 "},"Ή":{"ha":1018,"x_min":0,"x_max":0,"o":"m 772 439 l 282 439 l 282 0 l 165 0 l 165 969 l 282 969 l 282 542 l 772 542 l 772 969 l 889 969 l 889 0 l 772 0 m 44 813 l -35 822 l 6 1083 l 117 1068 "},"Ί":{"ha":638,"x_min":0,"x_max":0,"o":"m 165 0 l 165 97 l 301 97 l 301 872 l 165 872 l 165 969 l 554 969 l 554 872 l 418 872 l 418 97 l 554 97 l 554 0 m 44 813 l -35 822 l 6 1083 l 117 1068 "},"Ϊ":{"ha":556,"x_min":0,"x_max":0,"o":"m 83 0 l 83 97 l 219 97 l 219 872 l 83 872 l 83 969 l 472 969 l 472 872 l 336 872 l 336 97 l 472 97 l 472 0 m 149 1094 b 79 1160 101 1094 79 1121 l 79 1176 b 149 1242 79 1215 101 1242 b 218 1176 196 1242 218 1215 l 218 1160 b 149 1094 218 1121 196 1094 m 407 1094 b 338 1160 360 1094 338 1121 l 338 1176 b 407 1242 338 1215 360 1242 b 476 1176 454 1242 476 1215 l 476 1160 b 407 1094 476 1121 454 1094 "},"Ό":{"ha":989,"x_min":0,"x_max":0,"o":"m 497 -17 b 86 485 247 -17 86 160 b 497 986 86 810 247 986 b 908 485 747 986 908 810 b 497 -17 908 160 747 -17 m 497 88 b 783 404 665 88 783 213 l 783 565 b 497 882 783 757 665 882 b 211 565 329 882 211 757 l 211 404 b 497 88 211 213 329 88 m 44 813 l -35 822 l 6 1083 l 117 1068 "},"Ύ":{"ha":940,"x_min":0,"x_max":0,"o":"m 468 0 l 468 383 l 135 969 l 268 969 l 526 503 l 531 503 l 789 969 l 922 969 l 585 388 l 585 0 m 44 813 l -35 822 l 6 1083 l 117 1068 "},"Ϋ":{"ha":824,"x_min":0,"x_max":0,"o":"m 351 0 l 351 383 l 18 969 l 151 969 l 410 503 l 414 503 l 672 969 l 806 969 l 468 388 l 468 0 m 283 1094 b 214 1160 236 1094 214 1121 l 214 1176 b 283 1242 214 1215 236 1242 b 353 1176 331 1242 353 1215 l 353 1160 b 283 1094 353 1121 331 1094 m 542 1094 b 472 1160 494 1094 472 1121 l 472 1176 b 542 1242 472 1215 494 1242 b 611 1176 589 1242 611 1215 l 611 1160 b 542 1094 611 1121 589 1094 "},"Ώ":{"ha":994,"x_min":0,"x_max":0,"o":"m 44 813 l -35 822 l 6 1083 l 117 1068 m 81 103 l 301 103 l 301 117 b 86 525 188 179 86 319 b 497 986 86 753 211 986 b 908 525 783 986 908 753 b 693 117 908 319 807 179 l 693 103 l 914 103 l 914 0 l 594 0 l 594 154 b 783 474 683 188 783 328 l 783 599 b 497 882 783 733 678 882 b 211 599 317 882 211 733 l 211 474 b 400 154 211 328 311 188 l 400 0 l 81 0 "},"а":{"ha":742,"x_min":0,"x_max":0,"o":"m 639 0 b 515 117 557 0 524 50 l 508 117 b 301 -17 478 29 401 -17 b 61 200 150 -17 61 67 b 367 410 61 335 158 410 l 508 410 l 508 481 b 339 638 508 582 453 638 b 157 531 253 638 196 596 l 90 593 b 344 733 129 669 215 733 b 619 492 517 733 619 643 l 619 97 l 701 97 l 701 0 m 319 78 b 508 208 429 78 508 135 l 508 326 l 361 326 b 178 218 235 326 178 288 l 178 189 b 319 78 178 118 233 78 "},"б":{"ha":783,"x_min":0,"x_max":0,"o":"m 394 -17 b 71 426 196 -17 71 110 b 436 1021 71 839 175 1000 l 661 1039 l 661 926 l 422 907 b 188 571 258 893 207 821 l 193 571 b 410 717 235 668 299 717 b 718 349 592 717 718 582 b 394 -17 718 132 586 -17 m 400 82 b 599 300 514 82 599 157 l 599 388 b 389 618 599 542 517 618 b 190 440 256 618 190 546 l 190 313 b 400 82 190 158 272 82 "},"в":{"ha":775,"x_min":0,"x_max":0,"o":"m 118 717 l 479 717 b 667 535 596 717 667 644 b 526 383 667 446 618 394 l 526 378 b 692 214 638 369 692 303 b 497 0 692 99 618 0 l 118 0 m 464 92 b 572 193 531 92 572 128 l 572 225 b 464 326 572 290 531 326 l 229 326 l 229 92 m 450 417 b 547 506 511 417 547 449 l 547 536 b 450 625 547 593 511 625 l 229 625 l 229 417 "},"г":{"ha":604,"x_min":0,"x_max":0,"o":"m 118 717 l 571 717 l 571 619 l 229 619 l 229 0 l 118 0 "},"д":{"ha":829,"x_min":0,"x_max":0,"o":"m 11 97 l 93 97 b 189 510 150 189 189 331 l 189 717 l 674 717 l 674 97 l 793 97 l 793 -194 l 692 -194 l 692 0 l 113 0 l 113 -194 l 11 -194 m 563 97 l 563 619 l 294 619 l 294 504 b 213 97 294 315 257 181 "},"е":{"ha":763,"x_min":0,"x_max":0,"o":"m 388 -17 b 65 358 193 -17 65 131 b 388 733 65 586 193 733 b 697 383 579 733 697 586 l 697 331 l 182 331 l 182 297 b 394 81 182 174 261 81 b 592 204 485 81 554 125 l 671 147 b 388 -17 625 50 522 -17 m 388 640 b 182 424 267 640 182 549 l 182 414 l 578 414 l 578 429 b 388 640 578 556 501 640 "},"ж":{"ha":1069,"x_min":0,"x_max":0,"o":"m 56 97 l 139 97 l 219 290 b 307 367 239 338 271 361 l 307 372 b 222 454 271 383 243 408 l 149 619 l 65 619 l 65 717 l 131 717 b 256 629 186 717 228 690 l 351 417 l 479 417 l 479 717 l 590 717 l 590 417 l 718 417 l 814 629 b 939 717 842 690 883 717 l 1004 717 l 1004 619 l 921 619 l 847 454 b 763 372 826 408 799 383 l 763 367 b 850 290 799 361 831 338 l 931 97 l 1014 97 l 1014 0 l 935 0 b 813 97 885 0 844 22 l 718 322 l 590 322 l 590 0 l 479 0 l 479 322 l 351 322 l 257 97 b 135 0 225 22 185 0 l 56 0 "},"з":{"ha":696,"x_min":0,"x_max":0,"o":"m 321 -17 b 39 128 175 -17 94 36 l 122 194 b 321 82 158 125 225 82 b 493 196 436 82 493 129 l 493 213 b 353 324 493 285 442 324 l 200 324 l 200 417 l 339 417 b 478 518 428 417 478 453 l 478 535 b 318 635 478 596 432 635 b 128 529 225 635 164 593 l 54 592 b 324 733 99 675 182 733 b 597 540 510 733 597 660 b 460 381 597 451 549 401 l 460 375 b 613 208 561 361 613 299 b 321 -17 613 71 499 -17 "},"и":{"ha":817,"x_min":0,"x_max":0,"o":"m 118 717 l 226 717 l 226 319 l 215 147 l 221 147 l 310 300 l 596 717 l 699 717 l 699 0 l 590 0 l 590 397 l 601 569 l 596 569 l 507 417 l 221 0 l 118 0 "},"й":{"ha":817,"x_min":0,"x_max":0,"o":"m 118 717 l 226 717 l 226 319 l 215 147 l 221 147 l 310 300 l 596 717 l 699 717 l 699 0 l 590 0 l 590 397 l 601 569 l 596 569 l 507 417 l 221 0 l 118 0 m 410 828 b 219 936 310 828 254 871 l 192 989 l 289 1032 l 338 918 b 410 910 360 913 388 910 b 482 918 432 910 460 913 l 531 1032 l 628 989 l 600 936 b 410 828 565 871 510 828 "},"к":{"ha":764,"x_min":0,"x_max":0,"o":"m 118 717 l 229 717 l 229 417 l 372 417 l 511 636 b 632 717 553 703 582 717 l 697 717 l 697 619 l 611 619 l 499 442 b 421 372 469 394 457 383 l 421 367 b 517 292 460 361 486 347 l 626 97 l 708 97 l 708 0 l 628 0 b 504 88 581 0 542 21 l 372 322 l 229 322 l 229 0 l 118 0 "},"л":{"ha":785,"x_min":0,"x_max":0,"o":"m 11 97 l 106 97 b 182 513 153 164 182 274 l 182 717 l 667 717 l 667 0 l 556 0 l 556 619 l 288 619 l 288 510 b 189 47 288 231 244 103 b 54 0 154 13 113 0 l 11 0 "},"м":{"ha":967,"x_min":0,"x_max":0,"o":"m 118 717 l 264 717 l 482 344 l 488 344 l 704 717 l 849 717 l 849 0 l 740 0 l 740 583 l 733 583 l 693 506 l 483 150 l 274 506 l 233 583 l 226 583 l 226 0 l 118 0 "},"н":{"ha":817,"x_min":0,"x_max":0,"o":"m 118 717 l 229 717 l 229 418 l 588 418 l 588 717 l 699 717 l 699 0 l 588 0 l 588 321 l 229 321 l 229 0 l 118 0 "},"о":{"ha":778,"x_min":0,"x_max":0,"o":"m 389 -17 b 65 358 197 -17 65 131 b 389 733 65 586 197 733 b 713 358 581 733 713 586 b 389 -17 713 131 581 -17 m 389 82 b 593 307 508 82 593 156 l 593 410 b 389 635 593 561 508 635 b 185 410 269 635 185 561 l 185 307 b 389 82 185 156 269 82 "},"п":{"ha":796,"x_min":0,"x_max":0,"o":"m 118 717 l 678 717 l 678 0 l 567 0 l 567 619 l 229 619 l 229 0 l 118 0 "},"р":{"ha":806,"x_min":0,"x_max":0,"o":"m 118 717 l 229 717 l 229 600 l 235 600 b 444 733 272 690 346 733 b 736 358 624 733 736 588 b 444 -17 736 129 624 -17 b 235 117 346 -17 278 28 l 229 117 l 229 -278 l 118 -278 m 414 83 b 617 297 539 83 617 169 l 617 419 b 414 633 617 547 539 633 b 229 496 313 633 229 575 l 229 229 b 414 83 229 136 313 83 "},"с":{"ha":699,"x_min":0,"x_max":0,"o":"m 385 -17 b 65 358 183 -17 65 129 b 385 733 65 588 183 733 b 653 565 526 733 611 664 l 560 518 b 385 635 533 592 472 635 b 185 419 253 635 185 544 l 185 297 b 385 82 185 172 253 82 b 579 207 475 82 540 125 l 660 153 b 385 -17 614 50 521 -17 "},"т":{"ha":656,"x_min":0,"x_max":0,"o":"m 272 619 l 28 619 l 28 717 l 628 717 l 628 619 l 383 619 l 383 0 l 272 0 "},"у":{"ha":693,"x_min":0,"x_max":0,"o":"m 560 717 l 669 717 l 349 -167 b 182 -278 317 -253 288 -278 l 125 -278 l 125 -181 l 238 -181 l 292 -28 l 24 717 l 135 717 l 307 229 l 340 113 l 347 113 l 386 229 "}}}
